<?xml version="1.0" encoding="UTF-8"?>
<svg id="Layer_2" data-name="Layer 2" xmlns="http://www.w3.org/2000/svg" viewBox="0 0 127.59 54.54">
  <defs>
    <style>
      .cls-1 {
        fill: #1db584;
      }
    </style>
  </defs>
  <g id="Layer_1-2" data-name="Layer 1">
    <path class="cls-1" d="M100.32,0c-13.76,0-25.17,10.23-27,23.5h-19.05C52.42,10.25,41.01,0,27.25,0,12.22,0,0,12.22,0,27.27c0,15.03,12.22,27.27,27.25,27.27,13.74,0,25.15-10.25,27.02-23.5h19.05c1.83,13.24,13.24,23.5,27,23.5,15.05,0,27.27-12.24,27.27-27.27C127.59,12.22,115.38,0,100.32,0ZM27.27,9.45l-.02.02c-9.78,0-17.78,7.97-17.78,17.76,0,.65-.51,1.21-1.16,1.21s-1.18-.56-1.18-1.21c0-11.1,9.02-20.15,20.15-20.15.67,0,1.18.56,1.18,1.18s-.51,1.18-1.18,1.18ZM119.31,28.48l-.04-.02c-.63,0-1.16-.54-1.16-1.18,0-9.8-7.97-17.78-17.78-17.78-.63,0-1.18-.54-1.18-1.16s.56-1.21,1.18-1.21c11.12,0,20.17,9.02,20.17,20.17,0,.65-.54,1.18-1.18,1.18Z"/>
  </g>
</svg>