<?xml version="1.0" encoding="UTF-8"?>
<svg id="Layer_2" data-name="Layer 2" xmlns="http://www.w3.org/2000/svg" viewBox="0 0 26.59 26.59">
  <defs>
    <style>
      .cls-1 {
        fill: #fff;
      }

      .cls-2 {
        fill: #2196f3;
      }
    </style>
  </defs>
  <g id="Layer_1-2" data-name="Layer 1">
    <g>
      <circle class="cls-2" cx="13.29" cy="13.29" r="13.29"/>
      <g>
        <path class="cls-1" d="M22.36,14.41c-.16.22-.34.43-.53.63l-8.54,8.53L4.75,15.04c-.19-.2-.36-.41-.53-.63h5.42c.07,0,.13,0,.2-.03.07-.02.13-.05.18-.08.06-.03.11-.08.15-.13.05-.05.09-.11.11-.16l1.4-2.79,2.36,7.06c.02.07.05.13.1.19.04.06.09.11.15.15.06.04.12.08.18.11.07.03.14.04.21.05.02,0,.03,0,.05,0,.07,0,.13-.01.2-.03.07-.02.13-.05.18-.08.06-.03.11-.08.15-.13.05-.05.09-.11.11-.16l1.98-3.96h4.98Z"/>
        <path class="cls-1" d="M23.15,12.96h-6.21c-.07,0-.13.01-.2.03-.07.02-.13.05-.18.08-.06.03-.11.08-.15.13-.05.05-.09.11-.11.16l-1.4,2.79-2.36-7.06c-.02-.07-.05-.13-.1-.19-.04-.06-.09-.11-.15-.15-.06-.05-.12-.08-.19-.11-.07-.03-.14-.04-.21-.05-.07,0-.14,0-.21.02-.07.01-.14.04-.2.08-.06.03-.12.08-.17.13-.05.05-.09.11-.12.18l-1.98,3.96H3.44c-.73-2.04-.24-4.37,1.31-5.92.07-.07.13-.13.2-.19.07-.06.14-.12.21-.18.07-.06.14-.12.22-.17.07-.05.15-.11.23-.16.08-.05.16-.1.24-.15.08-.05.16-.09.24-.14.08-.05.16-.09.25-.13.09-.04.17-.08.26-.11.09-.03.17-.07.26-.1.09-.03.18-.06.26-.09.09-.03.18-.05.27-.07.09-.02.18-.04.27-.06.09-.02.18-.03.28-.05.09-.01.18-.03.28-.03.09-.01.18-.02.28-.02.09,0,.18,0,.28,0s.18,0,.28,0c.09,0,.19.01.28.02.09.01.18.02.28.04.09.01.18.03.28.05.09.02.18.04.27.06.09.02.18.05.27.07.09.03.18.05.26.09.09.03.17.07.26.1.09.04.17.07.26.11.08.04.17.08.25.12.08.05.16.09.24.14.08.05.16.1.23.15.08.05.15.11.23.16.07.05.15.11.22.17.07.06.14.12.21.18.07.06.14.13.2.19.03.03.07.06.11.09.04.03.08.05.13.07.05.02.09.03.14.04.05,0,.09.01.14.01.05,0,.1,0,.14-.01.05,0,.09-.02.14-.04.05-.02.09-.04.13-.07.04-.03.08-.06.11-.09,2.21-2.21,5.81-2.21,8.03,0,1.55,1.55,2.04,3.88,1.31,5.92Z"/>
      </g>
    </g>
  </g>
</svg>
