<svg width="32" height="32" viewBox="0 0 32 32" fill="none" xmlns="http://www.w3.org/2000/svg">
  <!-- Full body workout icon - person with arms and legs out -->
  <circle cx="16" cy="6" r="3" fill="#ED3F27"/>
  <path d="M16 10C14 10 12 11 10 12V16H12V12.5C13 11.5 14.5 11 16 11C17.5 11 19 11.5 20 12.5V16H22V12C20 11 18 10 16 10Z" fill="#ED3F27"/>
  <path d="M10 17V20L8 24V30H10V24L12 20H20L22 24V30H24V24L22 20V17H10Z" fill="#ED3F27"/>
  <path d="M6 12L8 14L10 12L8 10L6 12Z" fill="#ED3F27"/>
  <path d="M26 12L24 14L22 12L24 10L26 12Z" fill="#ED3F27"/>
</svg>
