<?xml version="1.0" encoding="UTF-8"?>
<svg id="Layer_2" data-name="Layer 2" xmlns="http://www.w3.org/2000/svg" viewBox="0 0 22.94 26.49">
  <defs>
    <style>
      .cls-1 {
        fill: #fff;
      }

      .cls-2 {
        fill: #ed3f27;
      }
    </style>
  </defs>
  <g id="Layer_1-2" data-name="Layer 1">
    <g>
      <polygon class="cls-2" points="11.47 0 0 6.62 0 19.87 11.47 26.49 22.94 19.87 22.94 6.62 11.47 0"/>
      <g>
        <path class="cls-1" d="M12.17,5.99c.22.04.43.02.64-.06.27-.11.5-.28.71-.48.04-.04.05-.08.04-.13-.02-.07-.05-.15-.08-.22-.16-.28-.32-.57-.43-.87-.06-.15-.28-.34-.45-.28-.23.07-.45.15-.68.23-.22.08-.33.25-.35.48-.02.21-.03.43-.02.64.01.32.28.65.62.7Z"/>
        <path class="cls-1" d="M10.91,2.78c-.05-.02-.1-.05-.16-.08l-.05.13c0,.11-.02.23-.03.34,0,.03.01.07.03.1.1.18.21.34.36.49.08.08.17.14.26.2.05.04.08.02.08-.04,0-.08,0-.16,0-.24-.03-.21-.1-.41-.18-.6-.06-.15-.15-.26-.3-.31Z"/>
        <path class="cls-1" d="M11.55,3.93c0,.06.02.07.07.05.07-.04.14-.07.19-.13.12-.13.23-.27.34-.41.08-.11.15-.22.12-.36-.01-.09-.02-.17-.03-.27l-.05-.08c-.09.03-.18.07-.26.11-.04.02-.1.05-.12.09-.11.22-.21.44-.25.68-.02.11-.02.22-.02.32Z"/>
        <path class="cls-1" d="M11.21,2.97c.1.24.19.48.21.74,0,.02,0,.04.02.06,0,.01.02.02.03.04.01-.01.03-.02.03-.04,0-.03.02-.05.02-.08.02-.23.09-.44.18-.65.02-.04.03-.08.05-.12h-.55s0,.03.02.05Z"/>
        <path class="cls-1" d="M11.52,6.1c.05-.06.09-.13.14-.2.02-.02.03-.05.04-.08,0-.02,0-.03-.02-.05-.05-.08-.1-.16-.16-.23-.04-.05-.07-.05-.11,0-.06.08-.11.16-.15.24-.01.02-.01.05,0,.07.05.08.11.17.17.25.03.04.07.04.09,0Z"/>
        <path class="cls-1" d="M8.05,8.18s0,.09.02.15c.01-.02.02-.02.02-.03.07-.13.14-.26.22-.38.19-.25.32-.53.42-.82.06-.17.11-.33.16-.5.1-.34.17-.68.19-1.03.01-.14-.07-.21-.2-.16-.36.13-.72.14-.98.71-.12.25-.14.38-.15.65,0,.14.03.38.15.53.16.21.14.61.15.88Z"/>
        <path class="cls-1" d="M8.25,5.6c.08-.05.22-.11.3-.16.1-.05.4-.1.5-.15.21-.09.22-.03.34-.25.16-.28.38-.64.45-.96.01-.05,0-.1-.04-.14-.07-.06-.15-.11-.23-.16-.03-.02-.08-.01-.11,0-.32.05-.52.09-.76.28-.15.11-.37.36-.44.53-.12.32-.09.7-.11,1.04,0,0,0,.02,0,.04.02-.02.07-.06.08-.07Z"/>
        <path class="cls-1" d="M8.71,8.11c.07-.14.1-.29.06-.45,0-.03-.03-.06-.05-.07-.02,0-.05.01-.07.03-.07.07-.13.15-.19.23-.14.17-.28.35-.37.55-.1.23-.18.47-.26.71-.21.61-.35,1.24-.37,1.89,0,.04,0,.09,0,.13,0,0,.02,0,.02,0,.01-.03.03-.06.04-.09.16-.4.39-.75.55-1.15.14-.35.31-.76.43-1.12.08-.23.08-.44.2-.66Z"/>
        <path class="cls-1" d="M6.86,10.54c.19-.22.36-.46.52-.72.33-.55.56-1.14.61-1.78.01-.18.02-.35-.06-.51-.05-.11-.1-.12-.17-.02-.32.42-.47.91-.51,1.42-.04.56-.2,1.08-.44,1.58-.02.04-.04.07-.06.1,0,0,.01.01.02.02.04-.03.07-.06.11-.09Z"/>
        <path class="cls-1" d="M8.73,7.49s.06-.05.08-.07c.04-.06.13-.2.16-.26.15-.31.2-.42.26-.74,0-.04.02-.27.02-.31,0-.02,0-.14,0-.17-.02-.16-.05-.38-.06-.36-.03.12-.13.69-.15.75-.08.28-.16.57-.24.85-.02.08-.04.17-.06.25,0,0,0,.06,0,.06Z"/>
        <path class="cls-1" d="M13.86,5.58c.03.35.09.69.19,1.03.05.17.11.34.16.5.1.29.23.57.42.82.09.12.15.25.22.38,0,0,0,.01.02.03,0-.06.01-.1.02-.15,0-.27-.01-.67.15-.88.12-.15.16-.39.15-.53-.02-.27-.04-.4-.15-.65-.27-.57-.62-.58-.98-.71-.13-.05-.22.02-.2.16Z"/>
        <path class="cls-1" d="M13.09,4.09c.07.32.29.67.45.96.12.22.13.15.34.25.11.05.4.09.5.15.09.04.22.1.3.16.02.01.06.05.08.07,0-.02,0-.03,0-.04-.01-.34.02-.72-.11-1.04-.07-.17-.29-.42-.44-.53-.24-.18-.44-.23-.76-.28-.04,0-.08,0-.11,0-.08.05-.16.1-.23.16-.04.03-.06.08-.04.14Z"/>
        <path class="cls-1" d="M15.11,9.11c-.08-.24-.16-.48-.26-.71-.09-.2-.22-.38-.37-.55-.06-.08-.13-.15-.19-.23-.02-.02-.05-.04-.07-.03-.02,0-.04.04-.05.07-.04.16-.02.31.06.45.12.22.12.43.2.66.12.36.29.77.43,1.12.16.4.39.75.55,1.15.01.03.03.06.04.09,0,0,.02,0,.02,0,0-.04.01-.09,0-.13-.02-.65-.16-1.28-.37-1.89Z"/>
        <path class="cls-1" d="M15.03,7.53c-.08.16-.08.34-.06.51.05.65.28,1.23.61,1.78.15.25.32.49.52.72.03.03.07.06.11.09,0,0,.01-.01.02-.02-.02-.03-.04-.07-.06-.1-.24-.5-.39-1.02-.44-1.58-.04-.52-.2-1-.51-1.42-.07-.1-.12-.09-.17.02Z"/>
        <path class="cls-1" d="M14.21,7.49s0-.06,0-.06c-.02-.08-.04-.17-.06-.25-.08-.28-.16-.57-.24-.85-.02-.06-.13-.63-.15-.75-.01-.02-.04.2-.06.36,0,.03,0,.15,0,.17,0,.04.01.27.02.31.06.32.11.42.26.74.03.06.12.2.16.26.02.02.05.07.08.07Z"/>
        <path class="cls-1" d="M11.47,4.56s.02-.02.02-.02c.03-.13.09-.25.18-.35.01-.01,0-.04.01-.05-.02,0-.04,0-.06,0-.09.03-.19.03-.28,0-.02,0-.05,0-.07,0,0,.02.01.05.03.07.07.09.12.18.15.29,0,.02.01.04.02.06Z"/>
        <path class="cls-1" d="M9.63,21.23s-.03-.03-.04-.02c-.01,0-.03.02-.03.03-.01.1-.03.2-.03.3l-.1.62-.16.17c-.18.23-.33.38-.59.54-.03.02-.21.17-.32.31-.09.12-.15.23-.05.28.42.19.76.31,1.16-.01.1-.08.18-.16.31-.21.12-.05.3-.08.34-.23,0-.02.07-.3.07-.3h0s.01-.05.01-.07c.01-.16.02-.32.03-.47,0-.12-.03-.21-.11-.3-.18-.2-.38-.38-.49-.63Z"/>
        <path class="cls-1" d="M10.42,17.73s0-.39-.02-.42c-.01.03-.07.25-.07.26-.01.06-.03.13-.04.19-.08.34-.16.68-.23,1.03-.04.18-.09.36-.1.55-.03.29-.04.59-.05.88,0,.31.02.61.11.9.04.14.08.28.12.41-.01,0-.01,0-.02-.02-.03-.09-.07-.18-.1-.28-.14-.46-.18-.93-.19-1.4,0-.52-.03-1.05-.07-1.57-.02-.24-.03-.49-.03-.73,0-.29.04-.57.08-.85.02-.1.03-.19.04-.3-.02,0-.02,0-.02,0-.02.03-.04.05-.06.08-.33.47-.52.99-.59,1.56-.05.38-.06.89,0,1.27.09.55.11.82.29,1.34.07.2.24.53.37.7.12.16.25.31.38.47.02.02.03.04.06.07,0-.04.01-.06.01-.08-.03-.19-.05-.38-.1-.55-.07-.21-.07-.52-.03-.74.11-.54.28-.77.39-1.31.05-.24.06-.57.01-.82-.05-.23-.08-.43-.12-.67Z"/>
        <path class="cls-1" d="M10.16,15.87c-.03.05-.06.11-.08.17-.06.21-.13.41-.18.62-.07.25-.11.51-.1.78,0,.28.01.57.02.85.01.24.03.48.05.71,0,.03.01.05.02.08,0,0,.01,0,.02,0,0-.03.02-.05.02-.08.08-.35.15-.7.23-1.05.04-.18.09-.35.13-.52.02-.1.06-.19.07-.29.04-.27.01-.54-.01-.8-.02-.15-.05-.31-.09-.46,0-.02-.03-.04-.04-.05-.01,0-.04.02-.05.04Z"/>
        <path class="cls-1" d="M10.61,13.72s0,.04,0,.06c-.02.2-.03.41-.05.61-.02.15-.03.31-.06.46-.05.27-.12.53-.18.79,0,.03,0,.06,0,.08.12.37.14.75.14,1.13,0,.07,0,.15,0,.22,0,0,.01,0,.02,0,.22-.52.34-1.06.36-1.61.03-.59-.03-1.17-.19-1.74h-.02Z"/>
        <path class="cls-1" d="M10.47,13.72c0-.25,0-.5-.06-.75-.09-.38-.19-.76-.29-1.14-.13-.51-.25-1.02-.37-1.53-.02-.06-.03-.12-.05-.18,0-.01-.02-.02-.04-.03,0,.01-.02.03-.03.04,0,.01,0,.03,0,.04,0,.16,0,.32,0,.48,0,.19,0,.39-.02.58-.02.21-.05.41-.07.62-.04.41-.08.81-.11,1.22-.02.27-.04.55-.03.82.01.48.05.96.07,1.44.01.24.02.48.03.73,0,.2,0,.4,0,.61.02-.02.03-.03.04-.04.13-.2.27-.39.4-.59.12-.19.23-.38.29-.6.12-.4.17-.81.21-1.22.02-.16.02-.33.02-.49Z"/>
        <path class="cls-1" d="M11.16,11.38c-.12-.1-.42-.24-.53-.34-.3-.27-.44-.35-.66-.69-.05-.08-.1-.16-.15-.23,0,0-.01,0-.02,0,0,.04,0,.08.01.12.06.37.16.72.27,1.07.26.81.47,1.63.66,2.46.03.14.06.28.09.42.02-.01.02-.03.03-.05.02-.15.11-.45.13-.6.11-.52.12-.61.17-1.05.05-.43.06-.51.06-.75,0-.23,0-.32-.06-.37Z"/>
        <path class="cls-1" d="M9.03,14.01s.39,1.5.39,1.52c.01-.1-.1-1.54-.09-1.97.01-.6.09-1.11.14-1.7,0-.1.02-.21.03-.31.02-.23.05-.45.06-.68,0-.29,0-.58-.02-.87,0-.11-.01-.21-.02-.32h-.02s0,.03-.01.05c-.04.16-.06.31-.11.47-.15.53-.33,1.14-.38,1.69-.03.36-.12.79-.1,1.11.02.38.07.6.13,1.03Z"/>
        <path class="cls-1" d="M12.8,15.87s-.04-.04-.05-.04c-.02,0-.04.03-.04.05-.03.15-.07.31-.09.46-.03.27-.05.54-.01.8.01.1.04.19.07.29.04.17.09.35.13.52.08.35.15.7.23,1.05,0,.03.02.05.02.08,0,0,.01,0,.02,0,0-.03.02-.05.02-.08.02-.24.04-.48.05-.71.01-.28.02-.57.02-.85,0-.26-.04-.52-.1-.78-.05-.21-.12-.42-.18-.62-.02-.06-.05-.11-.08-.17Z"/>
        <path class="cls-1" d="M13.46,16.66c0-.21,0-.41,0-.61,0-.24.01-.48.03-.73.02-.48.06-.96.07-1.44,0-.27,0-.55-.03-.82-.03-.41-.07-.81-.11-1.22-.02-.21-.05-.41-.07-.62-.02-.19-.02-.39-.02-.58,0-.16,0-.32,0-.48,0-.01,0-.03,0-.04,0-.02-.02-.03-.03-.04-.01.01-.03.02-.04.03-.02.06-.04.12-.05.18-.12.51-.24,1.02-.37,1.53-.09.38-.2.76-.29,1.14-.06.24-.06.5-.06.75,0,.16,0,.33.02.49.04.41.08.82.21,1.22.07.21.17.41.29.6.13.2.26.39.4.59,0,.01.02.02.04.04Z"/>
        <path class="cls-1" d="M12.52,17.08c0-.07,0-.15,0-.22,0-.38.02-.77.14-1.13,0-.03,0-.06,0-.08-.06-.26-.12-.53-.18-.79-.03-.15-.04-.31-.06-.46-.02-.2-.04-.41-.05-.61,0-.02,0-.04,0-.06,0,0-.02,0-.02,0-.16.57-.22,1.15-.19,1.74.03.56.14,1.1.36,1.61,0,0,.01,0,.02,0Z"/>
        <path class="cls-1" d="M12.76,21.83c.13-.16.25-.31.38-.47.13-.17.31-.5.37-.7.18-.53.2-.8.29-1.34.06-.38.05-.89,0-1.27-.07-.57-.26-1.09-.59-1.56-.02-.03-.04-.05-.06-.08,0,0,0,0-.02,0,.02.1.03.2.04.3.05.28.09.57.08.85,0,.24-.01.49-.03.73-.04.52-.06,1.04-.07,1.57,0,.47-.05.95-.19,1.4-.03.09-.07.19-.1.28,0,0,0,.01-.02.02.04-.14.08-.28.12-.41.08-.3.11-.6.11-.9,0-.29-.02-.59-.05-.88-.02-.18-.06-.37-.1-.55-.07-.34-.15-.68-.23-1.03-.01-.06-.03-.13-.04-.19,0-.02-.06-.23-.07-.26-.01.03-.02.41-.02.42-.04.24-.07.43-.12.67-.05.25-.04.58.01.82.11.54.28.77.39,1.31.04.22.04.52-.03.74-.06.18-.07.37-.1.55,0,.02,0,.04.01.08.03-.03.05-.05.06-.07Z"/>
        <path class="cls-1" d="M13.94,14.01c.06-.42.11-.65.13-1.03.02-.32-.07-.75-.1-1.11-.05-.54-.23-1.16-.38-1.69-.04-.15-.07-.31-.11-.47,0-.02,0-.03-.01-.04h-.02c0,.11-.02.21-.02.32,0,.29-.02.58-.02.87,0,.23.03.45.06.68,0,.1.02.21.03.31.05.6.13,1.1.14,1.7,0,.43-.1,1.87-.09,1.97,0-.01.39-1.5.39-1.52Z"/>
        <path class="cls-1" d="M12.23,13.76c.19-.83.4-1.65.66-2.46.11-.35.21-.71.27-1.07,0-.04,0-.08.01-.12,0,0-.01,0-.02,0-.05.08-.1.16-.15.23-.22.34-.37.42-.66.69-.11.1-.42.24-.53.34-.06.05-.06.14-.06.37,0,.24.01.32.06.75.06.44.06.52.17,1.05.02.15.11.45.13.6,0,.02,0,.03.03.05.03-.14.06-.28.09-.42Z"/>
        <path class="cls-1" d="M14.28,22.86c-.25-.16-.41-.31-.59-.54l-.16-.17-.1-.62c0-.1-.02-.2-.03-.3,0-.01-.02-.03-.03-.03,0,0-.03.01-.04.02-.11.25-.31.43-.49.63-.08.09-.12.18-.11.3.01.16.02.32.03.47,0,.02,0,.04.01.06h0s.07.29.07.3c.04.15.21.18.34.23.12.05.21.13.31.21.4.32.74.2,1.16.01.09-.04.04-.16-.05-.28-.12-.15-.3-.3-.32-.31Z"/>
        <g id="core">
          <path class="cls-1" d="M11.96,10.94c.19-.29.3-.62.38-.95.07-.29.11-.57.13-.87,0-.14-.05-.2-.19-.18-.21.03-.4.09-.6.16-.07.02-.1.07-.11.13-.02.12-.04.24-.05.36-.02.33-.03.99-.02.99,0,.2,0,.4,0,.6,0,.07,0,.08.08.06.16-.05.29-.15.38-.29Z"/>
          <path class="cls-1" d="M11.39,9.25c0-.08-.05-.14-.14-.16-.04-.01-.07-.03-.11-.04-.16-.04-.31-.08-.47-.11-.12-.02-.19.05-.18.16.02.38.08.76.19,1.13.08.29.19.57.38.8.1.13.24.18.39.22,0-.05,0-.09,0-.12,0-.42,0-.84,0-1.26,0-.2-.04-.41-.06-.61Z"/>
          <path class="cls-1" d="M12.02,10.95s0,.04-.01.06c.02,0,.04,0,.06,0,.06-.03.13-.05.18-.09.41-.29.73-.67.96-1.12.08-.15.15-.31.16-.48.02-.3-.03-.59-.11-.87,0-.02-.02-.04-.04-.08-.02.04-.04.07-.05.09-.11.2-.25.37-.45.48-.12.06-.16.14-.16.27,0,.26-.05.52-.12.77-.1.34-.24.67-.41.98Z"/>
          <path class="cls-1" d="M10.54,10.8c.1.09.21.17.34.21.02,0,.04,0,.06,0,0-.02,0-.04-.01-.05-.06-.11-.12-.22-.17-.33-.22-.47-.37-.96-.38-1.48,0-.09-.03-.15-.11-.19-.21-.11-.36-.29-.48-.49-.02-.03-.04-.07-.05-.1,0,0-.01,0-.02,0-.01.03-.03.06-.03.09-.03.16-.07.32-.09.48-.03.23-.03.45.06.67.19.47.5.87.89,1.19Z"/>
          <path class="cls-1" d="M11.52,8.88c0,.11.07.16.17.13.18-.05.35-.1.53-.14.07-.02.13-.05.17-.11.11-.19.17-.39.19-.6,0-.05-.02-.08-.05-.1-.23-.16-.49-.22-.77-.21-.18,0-.2,0-.24.22,0,.02,0,.04,0,.05,0,.12,0,.25,0,.37h0c0,.13,0,.26,0,.39Z"/>
          <path class="cls-1" d="M10.71,8.87c.19.04.37.09.56.14.09.02.15-.02.15-.12,0-.23.02-.46.01-.7,0-.09-.02-.19-.04-.28,0-.05-.05-.07-.1-.07-.12,0-.25,0-.37,0-.18.02-.35.09-.5.19-.05.03-.07.07-.06.12.02.21.08.41.2.59.03.05.08.09.15.1Z"/>
          <path class="cls-1" d="M11.51,7.64c0,.08.02.1.1.1.11,0,.21,0,.32,0,.21,0,.4.06.57.17.02.01.04.02.06.02,0-.02.02-.05.02-.07-.02-.17-.04-.33-.07-.5,0-.05-.04-.09-.08-.13-.19-.19-.43-.28-.69-.29-.03,0-.07,0-.1,0-.09,0-.12.03-.13.12,0,.02,0,.04,0,.05,0,.17,0,.34,0,.5Z"/>
          <path class="cls-1" d="M11.42,7.05c0-.05-.04-.07-.09-.08-.3-.04-.55.06-.78.23-.04.03-.09.08-.11.13-.06.18-.09.36-.08.55,0,.02.01.04.02.05.02,0,.04,0,.05-.02.12-.08.26-.14.41-.16.1-.01.2-.01.3-.02,0,0,0,0,0,0,.07,0,.14,0,.22,0,.04,0,.06-.02.07-.06.02-.21.03-.42,0-.64Z"/>
          <path class="cls-1" d="M11.51,6.35c0,.13,0,.26,0,.38,0,.05.03.08.07.09.03,0,.06.01.09.01.27.03.53.1.77.24.02,0,.03.02.07.04,0-.04,0-.07,0-.1-.05-.22-.1-.44-.16-.67-.02-.1-.08-.18-.17-.22-.12-.05-.24-.1-.36-.15-.05-.02-.08,0-.11.03-.06.09-.12.19-.18.28,0,.02-.01.04-.01.06Z"/>
          <path class="cls-1" d="M11.42,6.3c-.06-.1-.12-.2-.19-.29-.02-.04-.06-.04-.1-.03-.09.03-.18.06-.26.1-.16.06-.27.17-.3.35-.04.19-.09.37-.13.56,0,.04,0,.07,0,.12.02,0,.02,0,.03,0,.01,0,.03-.01.04-.02.17-.1.36-.17.56-.2.09-.01.18-.03.27-.04.07-.01.09-.04.09-.12,0-.11,0-.22,0-.33,0-.03,0-.06-.01-.09Z"/>
          <path class="cls-1" d="M12.5,8.93c.08-.03.17-.05.23-.1.2-.14.33-.34.42-.57.04-.11.03-.22-.04-.32-.11-.17-.26-.31-.41-.44-.02-.01-.04-.02-.07-.04,0,.04,0,.06.01.08.06.24.09.48.07.73-.02.24-.09.45-.27.62,0,0-.02.02-.04.05.04,0,.07,0,.09,0Z"/>
          <path class="cls-1" d="M10.5,8.89c-.16-.14-.24-.33-.26-.54-.04-.28,0-.55.07-.82,0-.02,0-.04.01-.07h-.01s-.05.02-.07.04c-.13.13-.26.26-.38.41-.1.11-.11.25-.04.38.05.1.11.21.18.3.1.14.22.26.39.31.05.02.09.04.15,0-.01-.01-.02-.02-.02-.03Z"/>
          <path class="cls-1" d="M12.45,6.22c.06.31.12.61.19.92.02.08.07.17.12.24.07.09.15.17.24.26.13.13.22.27.27.45,0,.02.01.04.02.07.07-.09.09-.17.1-.26l.04-.42s.02-.09.02-.14c.04-.32.04-.64.02-.95-.01-.17-.03-.34-.04-.52,0-.08-.03-.09-.1-.06l-.75.28h0s-.02,0-.04,0c-.08.01-.12.07-.11.14Z"/>
          <path class="cls-1" d="M9.62,5.79s0,0,0,0h0s0,0,0,0c-.08-.03-.1,0-.11.12-.04.35-.05.71-.03,1.06,0,.14.03.33.05.49h0s.04.39.04.39c0,0,0,0,0,0,0,.1.02.19.09.28.01-.01.02-.02.02-.02,0-.02.01-.04.02-.06.04-.13.09-.24.19-.34.08-.08.16-.17.24-.25.12-.13.21-.28.24-.46,0-.04.02-.08.02-.12.04-.22.09-.44.13-.65.02-.1-.03-.15-.13-.16,0,0,0,0-.01,0h0s-.74-.28-.74-.28Z"/>
        </g>
        <path class="cls-1" d="M12.29,3.35c-.08.18-.21.32-.34.46-.07.07-.14.14-.2.21,0,0,0,.03-.01.04.01,0,.03.01.04.01.04,0,.07-.01.11-.02.17-.04.33-.08.5-.13.08-.02.16-.04.24-.06,0,0,0,0,0,0,.11-.03.28.04.38.1.05-.13.31-.21.31-.21l-.26-.11c-.06-.02-.1-.04-.15-.06-.17-.08-.35-.16-.52-.24-.04-.02-.07-.03-.1.02Z"/>
        <path class="cls-1" d="M11.35,4.65c-.02-.23-.13-.39-.35-.48-.22-.08-.45-.16-.68-.23-.17-.05-.39.13-.45.28-.12.3-.27.59-.43.87-.04.07-.06.14-.08.22-.02.05,0,.1.04.13.21.2.44.37.71.48.2.08.42.1.64.06.34-.05.6-.39.62-.7,0-.21,0-.43-.02-.64Z"/>
        <path class="cls-1" d="M9.91,3.96c.09-.06.27-.13.38-.1,0,0,0,0,0,0,.08.02.16.04.24.06.17.04.33.09.5.13.04,0,.07.02.11.02.01,0,.03,0,.04-.01,0-.01,0-.03-.01-.04-.07-.07-.14-.14-.2-.21-.13-.14-.26-.28-.34-.46-.02-.05-.06-.04-.1-.02-.17.08-.35.16-.52.24-.04.02-.09.04-.15.06l-.26.11s.26.08.31.21Z"/>
        <path class="cls-1" d="M7.38,11.08c.01-.24.04-.47.06-.71,0-.03,0-.07,0-.1l.08-.39h0s.01-.06.02-.09c0-.02,0-.05,0-.09-.22.32-.43.62-.65.92l-.15.14c-.1.01-.18.05-.25.12-.14.13-.28.27-.41.41l-.13.16h0c-.09.04-.18.08-.28.12-.01,0-.02.05-.01.06.04.07.1.1.18.12.13-.03.25-.06.38-.09l.11.04s0,.01-.01.02c0,0-.01.02-.02.03-.1.18-.21.37-.31.55-.05.09-.14.17-.13.28,0,.04.03.07.06.09.01,0,.05-.02.07-.04.02-.02.03-.04.05-.06.1-.16.2-.33.29-.49.04-.08.09-.15.13-.23l.03.04c-.11.18-.21.36-.31.55-.07.13-.13.26-.2.4-.04.07,0,.16.1.16.02-.02.07-.04.09-.07.05-.07.08-.14.12-.22.11-.2.21-.4.32-.6l.04.06c-.08.14-.16.28-.23.43-.05.1-.1.21-.15.32-.03.06,0,.1.06.1.06,0,.11-.02.14-.08.04-.07.07-.14.1-.22.07-.13.13-.26.2-.39l.05.06s-.01.02-.02.04c-.04.1-.1.19-.14.29,0,.02,0,.06,0,.06.02,0,.05,0,.08,0,0,0,.02-.01.03-.02.12-.14.21-.3.29-.47h0s.25-.33.25-.33c.16-.21.19-.38.1-.63-.03-.08-.04-.17-.04-.26Z"/>
        <path class="cls-1" d="M17.27,11.59c-.09-.04-.18-.08-.28-.12h0s-.13-.16-.13-.16c-.14-.14-.27-.28-.41-.41-.07-.07-.16-.1-.25-.12l-.15-.14c-.21-.3-.43-.61-.65-.92,0,.04,0,.06,0,.09,0,.03.01.06.02.09h0s.08.39.08.39c0,.03,0,.07,0,.1.02.24.05.47.06.71,0,.09-.01.18-.04.26-.09.24-.06.42.1.63l.25.33h0c.08.17.17.33.29.47,0,0,.02.02.03.02.03,0,.06,0,.08,0,0,0,.01-.05,0-.06-.05-.1-.1-.19-.14-.29,0-.01-.01-.03-.02-.04l.05-.06c.07.13.13.26.2.39.04.07.07.15.1.22.03.06.08.08.14.08.06,0,.09-.04.06-.1-.05-.11-.09-.21-.15-.32-.07-.14-.15-.28-.23-.43l.04-.06c.11.2.21.4.32.6.04.07.07.15.12.22.02.04.07.06.09.07.1,0,.14-.08.1-.16-.07-.13-.13-.27-.2-.4-.1-.18-.21-.37-.31-.55l.03-.04c.04.08.09.15.13.23.1.16.2.33.29.49.01.02.03.04.05.06.02.02.06.05.07.04.03-.02.06-.05.06-.09,0-.11-.08-.19-.13-.28-.1-.19-.21-.37-.31-.55,0,0,0-.02-.02-.03,0,0,0-.01-.01-.02l.11-.04c.13.03.26.06.38.09.08-.01.15-.04.18-.12,0-.02,0-.06-.01-.06Z"/>
      </g>
    </g>
  </g>
</svg>
