<svg width="32" height="32" viewBox="0 0 32 32" fill="none" xmlns="http://www.w3.org/2000/svg">
  <!-- Lower body workout icon - person with legs emphasized -->
  <circle cx="16" cy="6" r="3" fill="#ED3F27"/>
  <rect x="14" y="10" width="4" height="8" rx="1" fill="#ED3F27"/>
  <path d="M12 8L10 10L10 12L12 12L12 8Z" fill="#ED3F27"/>
  <path d="M20 8L22 10L22 12L20 12L20 8Z" fill="#ED3F27"/>
  <path d="M12 18L10 22L8 28L8 30H10L12 24L14 20H18L20 24L22 30H24V28L22 22L20 18H12Z" fill="#ED3F27"/>
  <circle cx="10" r="2" cy="29" fill="#ED3F27"/>
  <circle cx="22" r="2" cy="29" fill="#ED3F27"/>
</svg>
