<?xml version="1.0" encoding="UTF-8"?>
<svg id="Layer_2" data-name="Layer 2" xmlns="http://www.w3.org/2000/svg" viewBox="0 0 27.73 32.02">
  <defs>
    <style>
      .cls-1 {
        fill: #fff;
      }

      .cls-2 {
        fill: #ed3f27;
      }
    </style>
  </defs>
  <g id="Layer_1-2" data-name="Layer 1">
    <g>
      <polygon class="cls-2" points="13.86 0 0 8 0 24.01 13.86 32.02 27.73 24.01 27.73 8 13.86 0"/>
      <g>
        <path class="cls-1" d="M10.96,23.51s-.04-.04-.06-.04c-.02,0-.04.03-.04.05-.02.16-.04.32-.05.47l-.16.97-.25.26c-.28.37-.52.6-.92.84-.04.03-.32.26-.5.49-.15.18-.23.36-.08.43.66.29,1.19.48,1.81-.02.16-.13.29-.25.48-.32.2-.08.47-.13.53-.36,0-.03.12-.46.12-.46h0s.02-.08.02-.11c.02-.25.04-.49.05-.74.01-.19-.05-.33-.18-.47-.28-.31-.6-.59-.77-.99Z"/>
        <path class="cls-1" d="M12.2,18.04s-.02-.62-.03-.66c-.02.05-.11.39-.12.41-.02.1-.05.2-.07.3-.12.54-.24,1.07-.36,1.61-.06.29-.13.57-.16.86-.05.46-.07.92-.08,1.38-.01.48.03.95.17,1.42.06.22.12.43.18.65-.02,0-.02-.01-.03-.02-.05-.14-.11-.29-.15-.43-.22-.72-.29-1.45-.29-2.2,0-.82-.05-1.64-.11-2.45-.03-.38-.04-.76-.05-1.15,0-.45.06-.89.13-1.34.03-.15.05-.3.07-.46-.03,0-.03.01-.04.01-.03.04-.06.08-.09.12-.52.73-.82,1.56-.93,2.45-.07.6-.1,1.39,0,1.99.14.86.17,1.28.45,2.1.1.31.37.83.58,1.09.2.25.39.49.59.74.02.03.05.06.1.1,0-.06.02-.09.02-.12-.05-.29-.07-.59-.16-.87-.1-.33-.12-.81-.05-1.15.17-.85.43-1.2.61-2.05.08-.38.1-.9.02-1.28-.08-.37-.12-.67-.19-1.04Z"/>
        <path class="cls-1" d="M11.8,15.12c-.05.09-.09.17-.12.26-.1.32-.2.65-.29.97-.1.4-.17.8-.16,1.22.01.45.02.89.04,1.34.02.37.05.75.08,1.12,0,.04.02.08.03.12,0,0,.02,0,.03,0,.01-.04.03-.08.04-.12.12-.55.23-1.09.35-1.64.06-.27.14-.55.21-.82.04-.15.09-.3.11-.46.06-.42.02-.84-.02-1.26-.02-.24-.08-.48-.13-.72,0-.03-.04-.07-.07-.08-.02,0-.06.03-.07.06Z"/>
        <path class="cls-1" d="M12.5,11.76s-.01.06-.02.09c-.03.32-.05.64-.08.96-.02.24-.04.48-.09.72-.08.42-.18.83-.27,1.24,0,.04-.01.09,0,.13.19.58.22,1.18.21,1.78,0,.11,0,.23-.01.34,0,0,.02,0,.03,0,.35-.81.53-1.65.57-2.53.04-.93-.04-1.84-.3-2.73h-.04Z"/>
        <path class="cls-1" d="M12.27,11.75c0-.39,0-.79-.09-1.17-.14-.6-.3-1.19-.45-1.78-.2-.8-.39-1.6-.58-2.4-.02-.1-.05-.19-.08-.29,0-.02-.04-.04-.06-.05-.01.02-.03.04-.04.07,0,.02,0,.04,0,.07,0,.25,0,.5,0,.74,0,.3-.01.61-.04.91-.03.33-.08.65-.11.97-.06.63-.12,1.27-.17,1.91-.03.43-.06.85-.05,1.28.02.75.08,1.5.11,2.25.02.38.03.76.04,1.14,0,.31,0,.63,0,.96.03-.03.05-.05.06-.07.21-.31.42-.61.62-.92.19-.29.35-.6.46-.94.19-.62.26-1.27.33-1.91.03-.26.03-.51.03-.77Z"/>
        <path class="cls-1" d="M13.36,8.09c-.18-.15-.66-.37-.83-.53-.46-.42-.69-.55-1.04-1.08-.08-.12-.15-.24-.23-.37,0,0-.02,0-.03,0,0,.06,0,.12.02.18.09.57.24,1.13.42,1.68.4,1.27.73,2.55,1.03,3.85.05.22.09.44.14.66.03-.02.04-.05.04-.07.04-.24.18-.7.21-.94.18-.82.19-.95.27-1.64.08-.67.1-.79.1-1.17,0-.35,0-.5-.1-.58Z"/>
        <path class="cls-1" d="M10.84,7.3c0,.35-.05.71-.09,1.06-.01.16-.04.32-.05.48-.08.93-.2,1.73-.22,2.66-.01.67.16,2.93.15,3.08,0-.03-.61-2.35-.61-2.38-.1-.66-.18-1.01-.21-1.6-.03-.5.11-1.17.16-1.73.07-.85.36-1.82.6-2.64.07-.24.11-.49.17-.73,0-.03.01-.05.02-.07h.03c0,.17.03.33.03.51.01.45.03.91.03,1.36Z"/>
        <path class="cls-1" d="M15.93,15.12s-.06-.06-.07-.06c-.03,0-.06.05-.07.08-.05.24-.11.48-.13.72-.04.42-.08.84-.02,1.26.02.15.07.3.11.46.07.27.14.54.21.82.12.54.24,1.09.35,1.64,0,.04.02.08.04.12,0,0,.02,0,.03,0,0-.04.02-.08.03-.12.03-.37.06-.74.08-1.12.02-.44.03-.89.04-1.34,0-.41-.06-.82-.16-1.22-.09-.33-.19-.65-.29-.97-.03-.09-.08-.18-.12-.26Z"/>
        <path class="cls-1" d="M16.95,16.36c0-.34,0-.65,0-.96,0-.38.02-.76.04-1.14.04-.75.09-1.5.11-2.25.01-.43-.02-.85-.05-1.28-.05-.64-.11-1.27-.17-1.91-.03-.32-.08-.65-.11-.97-.02-.3-.03-.61-.04-.91,0-.25,0-.5,0-.74,0-.02,0-.05,0-.07,0-.02-.03-.05-.04-.07-.02.02-.05.03-.06.05-.03.1-.06.19-.08.29-.19.8-.38,1.6-.58,2.4-.15.59-.31,1.18-.45,1.78-.09.38-.1.78-.09,1.17,0,.26,0,.52.03.77.07.64.13,1.29.33,1.91.1.33.27.64.46.94.2.31.41.61.62.92.01.02.03.04.06.07Z"/>
        <path class="cls-1" d="M15.49,17.01c0-.11,0-.23-.01-.34,0-.6.03-1.2.21-1.78.01-.04.01-.09,0-.13-.09-.41-.19-.83-.27-1.24-.05-.24-.07-.48-.09-.72-.03-.32-.06-.64-.08-.96,0-.03-.01-.06-.02-.09-.01,0-.03,0-.04,0-.25.89-.34,1.8-.3,2.73.04.88.22,1.72.57,2.53,0,0,.02,0,.03,0Z"/>
        <path class="cls-1" d="M15.87,24.46c.2-.24.39-.49.59-.74.21-.26.48-.78.58-1.09.28-.82.31-1.25.45-2.1.09-.6.07-1.39,0-1.99-.11-.89-.41-1.71-.93-2.45-.03-.04-.06-.08-.09-.12,0,0-.01,0-.04-.01.02.16.04.31.07.46.08.44.14.89.13,1.34,0,.38-.02.77-.05,1.15-.06.82-.1,1.63-.11,2.45,0,.74-.07,1.48-.29,2.2-.05.15-.1.29-.15.43,0,.01-.01.02-.03.02.06-.22.12-.43.18-.65.13-.46.18-.94.17-1.42-.01-.46-.04-.92-.08-1.38-.03-.29-.1-.57-.16-.86-.12-.54-.24-1.07-.36-1.61-.02-.1-.04-.2-.07-.3,0-.03-.1-.37-.12-.41-.02.04-.03.64-.03.66-.07.37-.11.68-.19,1.04-.08.39-.06.91.02,1.28.18.85.44,1.2.61,2.05.07.34.06.82-.05,1.15-.09.28-.11.58-.16.87,0,.03,0,.06.02.12.05-.05.07-.07.1-.1Z"/>
        <path class="cls-1" d="M17.92,10.61c-.03.59-.11.95-.21,1.6,0,.03-.61,2.35-.61,2.38-.02-.15.16-2.41.15-3.08-.02-.93-.13-1.73-.22-2.66-.02-.16-.04-.32-.05-.48-.03-.35-.08-.71-.09-1.06,0-.45.01-.91.03-1.36,0-.17.02-.34.03-.51h.03s.01.05.02.07c.05.25.1.49.17.73.24.83.53,1.79.6,2.64.05.56.19,1.24.16,1.73Z"/>
        <path class="cls-1" d="M15.03,11.82c.3-1.29.62-2.58,1.03-3.85.18-.55.33-1.11.42-1.68,0-.06.01-.12.02-.18,0,0-.02,0-.03,0-.08.12-.15.25-.23.37-.34.53-.57.66-1.04,1.08-.17.16-.65.38-.83.53-.1.08-.1.22-.1.58,0,.38.02.5.1,1.17.09.69.1.82.27,1.64.03.24.17.7.21.94,0,.03.01.05.04.07.05-.22.09-.44.14-.66Z"/>
        <path class="cls-1" d="M18.25,26.07c-.39-.24-.64-.48-.92-.84l-.25-.26-.16-.97c0-.16-.03-.32-.05-.47,0-.02-.02-.05-.04-.05-.01,0-.05.02-.06.04-.18.39-.49.68-.77.99-.13.14-.19.29-.18.47.02.25.03.49.05.74,0,.03.01.07.02.1h0s.11.45.12.48c.06.24.34.29.53.36.19.08.32.2.48.32.62.5,1.15.31,1.81.02.15-.07.06-.25-.08-.43-.18-.23-.46-.47-.5-.49Z"/>
        <path class="cls-1" d="M15.29,5.43c-.03.16-.06.32-.1.48-.13.53-.29,1.04-.59,1.49-.15.23-.35.38-.6.45-.12.03-.13.03-.13-.09v-.93s0-.87.03-1.41h1.38Z"/>
        <path class="cls-1" d="M13.82,7.7c0,.05,0,.11,0,.19-.25-.07-.46-.15-.61-.35-.3-.37-.47-.81-.6-1.26-.08-.28-.15-.57-.2-.86h1.38c0,.1.01.2.02.29.02.66.01,1.32.02,1.98Z"/>
        <path class="cls-1" d="M16.65,5.43c-.03.06-.06.12-.09.18-.35.71-.85,1.29-1.49,1.75-.08.06-.19.1-.28.14-.03.01-.07,0-.1,0,0-.03,0-.07.02-.09.27-.49.49-1,.64-1.53.04-.15.08-.3.11-.45h1.19Z"/>
        <path class="cls-1" d="M13.01,7.5s-.06.02-.09,0c-.21-.05-.37-.19-.53-.33-.58-.48-1.04-1.06-1.34-1.76h1.18c.1.51.28,1.01.5,1.49.08.18.18.34.26.51.01.03.01.05.02.08Z"/>
      </g>
    </g>
  </g>
</svg>
