<?xml version="1.0" encoding="UTF-8"?>
<svg id="Layer_2" data-name="Layer 2" xmlns="http://www.w3.org/2000/svg" viewBox="0 0 22.94 26.49">
  <defs>
    <style>
      .cls-1 {
        fill: #fff;
      }

      .cls-2 {
        fill: #ed3f27;
      }
    </style>
  </defs>
  <g id="Layer_1-2" data-name="Layer 1">
    <g>
      <polygon class="cls-2" points="11.47 0 0 6.62 0 19.87 11.47 26.49 22.94 19.87 22.94 6.62 11.47 0"/>
      <g>
        <path class="cls-1" d="M12.78,10.76c.42.07.83.03,1.22-.12.52-.2.96-.54,1.36-.92.07-.07.1-.16.07-.25-.05-.14-.09-.29-.16-.42-.3-.54-.6-1.08-.82-1.66-.11-.29-.53-.64-.85-.54-.43.13-.86.29-1.29.44-.42.15-.63.48-.67.91-.03.4-.05.81-.03,1.21.03.61.53,1.24,1.17,1.34Z"/>
        <path class="cls-1" d="M10.38,4.65c-.1-.03-.19-.09-.31-.15l-.09.25c-.02.22-.04.43-.05.65,0,.06.02.14.05.19.18.34.41.66.68.93.15.15.32.27.49.39.1.07.15.04.15-.08,0-.15,0-.31-.01-.46-.05-.4-.19-.78-.34-1.15-.11-.29-.28-.49-.58-.58Z"/>
        <path class="cls-1" d="M11.61,6.84c0,.11.04.14.14.09.13-.07.26-.14.36-.24.23-.25.44-.51.65-.78.16-.2.28-.42.24-.69-.03-.16-.04-.33-.06-.52l-.1-.16c-.18.06-.34.13-.49.22-.08.05-.18.1-.23.18-.22.41-.39.84-.47,1.3-.03.2-.03.41-.03.62Z"/>
        <path class="cls-1" d="M10.96,5.01c.2.45.36.92.4,1.41,0,.04.01.08.03.11.01.03.04.05.07.07.02-.02.06-.04.07-.07.02-.05.03-.1.03-.16.04-.43.17-.84.34-1.23.03-.08.06-.15.09-.23h-1.05s.02.06.03.09Z"/>
        <path class="cls-1" d="M11.55,10.98c.09-.12.18-.25.26-.37.03-.04.05-.09.07-.14-.01-.03-.01-.06-.03-.09-.1-.15-.19-.3-.3-.45-.08-.1-.13-.1-.21,0-.11.14-.2.3-.3.45-.02.03-.02.1,0,.13.1.16.21.32.32.47.05.08.12.07.18,0Z"/>
        <path class="cls-1" d="M4.93,14.95c0,.09.02.17.03.28.03-.03.04-.04.04-.05.14-.24.26-.49.43-.72.35-.48.61-1,.8-1.57.11-.32.21-.64.31-.96.19-.64.32-1.29.37-1.96.02-.27-.14-.4-.39-.3-.69.25-1.37.26-1.87,1.35-.22.47-.26.72-.29,1.23-.02.27.07.73.29,1.02.31.39.27,1.17.29,1.67Z"/>
        <path class="cls-1" d="M5.32,10.02c.16-.1.41-.21.58-.3.2-.1.75-.19.96-.28.39-.18.41-.06.65-.47.31-.54.73-1.22.86-1.83.02-.1,0-.2-.08-.26-.14-.11-.28-.22-.44-.31-.06-.03-.15-.03-.21-.02-.62.09-.98.17-1.45.52-.28.21-.7.68-.83,1.02-.23.61-.18,1.33-.2,1.98,0,.02,0,.03.02.07.04-.03.13-.12.16-.14Z"/>
        <path class="cls-1" d="M6.19,14.81c-.22.42-.22.82-.38,1.26-.23.68-.55,1.46-.82,2.13-.31.76-.73,1.43-1.05,2.19l-.14-.08c.04-1.24.3-2.43.7-3.59.15-.46.31-.91.5-1.35.17-.39.43-.72.7-1.04.12-.15.24-.3.37-.44.03-.04.1-.08.13-.06.04.02.08.08.09.13.08.3.03.59-.11.86Z"/>
        <path class="cls-1" d="M4.8,14.68c-.09,1.23-.53,2.35-1.15,3.4-.29.48-.61.94-.98,1.37-.04.05-.09.08-.14.12l-.07-.04s.05-.09.08-.14c.46-.95.75-1.95.83-3.01.08-.99.37-1.91.98-2.72.14-.18.23-.17.33.04.15.31.14.64.12.98Z"/>
        <path class="cls-1" d="M6.23,13.63c.06,0,.12-.09.15-.14.07-.11.24-.38.3-.5.29-.6.38-.8.5-1.41.01-.07.05-.52.03-.59,0-.05,0-.28,0-.33-.03-.3-.09-.72-.11-.68-.05.23-.26,1.31-.29,1.43-.16.54-.3,1.08-.45,1.62-.04.16-.08.32-.12.47.01,0-.01.12,0,.12Z"/>
        <path class="cls-1" d="M16,9.98c.05.66.18,1.32.37,1.96.1.32.2.64.31.96.19.56.44,1.09.8,1.57.16.22.29.48.43.72,0,.01.02.02.04.05.01-.11.03-.19.03-.28.01-.51-.03-1.28.29-1.67.23-.28.31-.75.29-1.02-.03-.51-.07-.76-.29-1.23-.51-1.09-1.18-1.11-1.87-1.35-.25-.09-.41.04-.39.3Z"/>
        <path class="cls-1" d="M14.55,7.15c.14.6.56,1.28.86,1.83.23.41.25.29.65.47.2.09.76.18.96.28.17.09.42.19.58.3.03.02.12.1.16.14,0-.04.02-.05.02-.07-.02-.65.03-1.37-.2-1.98-.13-.33-.55-.8-.83-1.02-.47-.35-.83-.43-1.45-.52-.07-.01-.16-.02-.21.02-.15.09-.3.2-.44.31-.08.06-.11.15-.08.26Z"/>
        <path class="cls-1" d="M19.1,20.31s0,.08,0,.12l-.09.05s-.03-.06-.04-.09c-.31-.76-.74-1.44-1.05-2.2-.27-.67-.59-1.45-.82-2.13-.15-.45-.16-.85-.38-1.26-.14-.27-.19-.56-.11-.86.01-.05.05-.11.09-.13.03-.01.1.03.13.06.13.14.25.29.37.44.27.32.53.66.7,1.04.19.44.35.9.5,1.35.4,1.17.66,2.36.7,3.6Z"/>
        <path class="cls-1" d="M18.23,13.7c-.15.31-.14.64-.12.98.09,1.23.53,2.35,1.16,3.4.29.48.61.94.98,1.37.06.07.13.12.2.17.01-.01.02-.02.03-.03-.04-.07-.08-.13-.11-.2-.46-.95-.75-1.95-.83-3.01-.08-.99-.37-1.91-.98-2.72-.14-.18-.23-.17-.33.04Z"/>
        <path class="cls-1" d="M16.67,13.63s-.01-.11,0-.12c-.04-.16-.08-.32-.12-.47-.15-.54-.3-1.08-.45-1.62-.04-.12-.24-1.2-.29-1.43-.02-.04-.08.38-.11.68,0,.05,0,.28,0,.33-.01.07.02.52.03.59.12.61.21.81.5,1.41.06.12.23.39.3.5.03.05.09.13.15.14Z"/>
        <path class="cls-1" d="M11.45,8.03s.03-.03.03-.04c.07-.25.17-.47.34-.67.02-.02.02-.07.03-.1-.04,0-.08-.02-.11,0-.18.06-.36.06-.54,0-.04-.01-.09,0-.14,0,.02.04.02.1.05.13.14.16.23.35.29.55.01.04.03.07.04.12Z"/>
        <g id="core">
          <path class="cls-1" d="M12.38,20.2c.37-.56.57-1.17.72-1.81.13-.54.21-1.09.24-1.65.01-.26-.1-.38-.36-.35-.39.05-.77.18-1.14.31-.13.05-.2.13-.21.26-.03.23-.08.45-.09.68-.03.63-.05,1.88-.05,1.88,0,.38,0,.76,0,1.14,0,.14.02.15.15.11.31-.09.55-.28.73-.55Z"/>
          <path class="cls-1" d="M11.29,16.99c-.02-.16-.1-.27-.26-.31-.07-.02-.14-.06-.22-.08-.3-.08-.6-.16-.9-.22-.22-.04-.36.09-.35.3.04.73.16,1.45.37,2.15.16.55.37,1.08.73,1.53.19.24.45.34.75.42,0-.1.01-.16.01-.23,0-.8,0-1.61-.02-2.41-.01-.39-.07-.78-.11-1.16Z"/>
          <path class="cls-1" d="M12.51,20.21s-.02.08-.03.11c.04,0,.09.01.12,0,.12-.05.24-.1.35-.17.78-.56,1.39-1.27,1.82-2.13.15-.29.28-.59.3-.92.03-.57-.06-1.12-.21-1.66-.01-.04-.04-.09-.07-.16-.04.08-.07.13-.09.17-.21.38-.47.71-.85.92-.22.12-.31.27-.3.51,0,.5-.1.99-.24,1.47-.19.65-.46,1.27-.78,1.87Z"/>
          <path class="cls-1" d="M9.68,19.94c.2.16.4.33.65.4.03,0,.07,0,.11,0,0-.03,0-.07-.02-.1-.1-.21-.22-.41-.32-.62-.41-.9-.71-1.82-.72-2.82,0-.17-.07-.28-.21-.36-.41-.21-.68-.54-.91-.93-.04-.06-.07-.13-.1-.19-.01,0-.03,0-.04,0-.02.06-.05.11-.06.17-.06.3-.13.6-.18.91-.06.43-.06.86.11,1.27.37.9.95,1.65,1.69,2.27Z"/>
          <path class="cls-1" d="M11.54,16.27c0,.22.13.3.33.24.33-.09.67-.18,1.01-.26.14-.03.25-.1.32-.22.21-.35.33-.74.36-1.15,0-.09-.03-.15-.1-.2-.44-.3-.94-.42-1.47-.4-.34.01-.38,0-.45.42,0,.03,0,.07,0,.1,0,.24,0,.47,0,.71h0c0,.25,0,.5,0,.75Z"/>
          <path class="cls-1" d="M10,16.25c.36.09.71.18,1.06.28.17.05.29-.04.3-.22,0-.44.03-.89.03-1.33,0-.18-.05-.35-.08-.53-.02-.09-.09-.14-.19-.14-.24,0-.47,0-.71.02-.35.04-.66.17-.95.36-.09.06-.13.13-.11.23.05.4.16.78.37,1.13.07.1.16.17.28.2Z"/>
          <path class="cls-1" d="M11.54,13.91c0,.16.03.19.19.19.2,0,.41,0,.61,0,.4,0,.76.11,1.09.33.04.02.08.03.12.04.01-.04.04-.09.03-.13-.04-.32-.07-.64-.13-.95-.01-.09-.08-.18-.14-.24-.37-.35-.82-.52-1.32-.56-.06,0-.13,0-.19.01-.18.02-.22.06-.25.24,0,.03,0,.07,0,.1,0,.32,0,.64,0,.96Z"/>
          <path class="cls-1" d="M11.36,12.78c-.02-.1-.07-.14-.17-.15-.57-.08-1.06.11-1.49.45-.08.06-.17.16-.2.26-.12.34-.17.69-.15,1.05,0,.04.02.07.04.1.03-.01.07-.02.1-.04.24-.16.49-.28.78-.31.19-.02.38-.03.57-.04,0,0,0,0,0,0,.14,0,.28,0,.41,0,.08,0,.12-.03.13-.11.04-.4.06-.81-.01-1.21Z"/>
          <path class="cls-1" d="M11.54,11.46c0,.24,0,.49,0,.73,0,.09.05.15.14.17.06.01.11.02.17.03.52.05,1.01.19,1.46.45.03.02.07.03.13.07,0-.08,0-.14,0-.18-.1-.42-.19-.85-.3-1.27-.05-.19-.15-.34-.33-.42-.23-.1-.46-.2-.69-.29-.09-.04-.16-.01-.21.06-.12.18-.23.36-.35.54-.02.03-.03.07-.03.11Z"/>
          <path class="cls-1" d="M11.35,11.36c-.11-.19-.24-.37-.36-.56-.05-.07-.11-.09-.19-.06-.17.06-.34.12-.5.19-.3.12-.51.33-.57.66-.07.36-.17.71-.25,1.07-.01.07,0,.14,0,.22.03,0,.04,0,.05,0,.03-.01.05-.03.08-.04.33-.19.69-.33,1.07-.39.17-.03.35-.05.52-.08.14-.03.18-.08.18-.22,0-.21,0-.41,0-.62,0-.06,0-.12-.03-.17Z"/>
          <path class="cls-1" d="M13.41,16.36c.15-.06.32-.1.45-.2.39-.27.64-.66.81-1.09.08-.2.05-.42-.08-.6-.22-.32-.49-.6-.79-.84-.03-.03-.08-.04-.14-.08.01.07.02.11.03.15.12.45.18.92.14,1.39-.03.45-.17.86-.51,1.18-.02.02-.03.04-.07.09.08,0,.12.01.16,0Z"/>
          <path class="cls-1" d="M9.61,16.28c-.31-.27-.45-.63-.5-1.03-.07-.53,0-1.04.12-1.55.01-.04.01-.08.02-.13l-.03-.02s-.1.05-.14.09c-.25.26-.5.5-.73.77-.18.22-.2.48-.08.73.1.2.21.39.33.57.19.27.43.49.75.6.09.03.18.07.29,0-.02-.03-.03-.04-.04-.06Z"/>
          <path class="cls-1" d="M13.31,11.2c.12.58.23,1.17.36,1.75.04.16.13.32.24.45.13.18.29.33.45.49.24.24.43.52.52.85,0,.03.02.07.05.13.13-.16.18-.33.19-.5l.08-.8c.01-.09.03-.18.04-.27.07-.6.08-1.21.05-1.82-.02-.33-.05-.66-.08-.98-.01-.14-.06-.17-.19-.12l-1.43.54h0s-.04,0-.07,0c-.15.02-.23.12-.2.27Z"/>
          <path class="cls-1" d="M7.93,10.39s0,0-.01,0h-.01s0,0,0,0c-.15-.06-.18,0-.21.23-.07.67-.1,1.35-.06,2.02.01.27.06.64.09.93h0s.07.74.07.74c0,0,0,.01,0,.02,0,.19.05.37.18.53.02-.02.03-.03.03-.04.01-.04.02-.07.04-.11.07-.24.18-.46.35-.65.15-.16.3-.31.45-.47.23-.25.4-.53.45-.87.01-.08.03-.16.05-.24.08-.42.17-.83.25-1.25.04-.19-.05-.29-.24-.31,0,0-.01,0-.02,0h0s-1.41-.53-1.41-.53Z"/>
        </g>
        <path class="cls-1" d="M13.02,5.72c-.15.34-.4.6-.64.87-.13.14-.26.27-.39.41-.02.02-.02.05-.03.08.03,0,.06.03.08.02.07-.01.14-.03.21-.05.32-.08.64-.16.95-.25.15-.04.3-.08.45-.12,0,0,0,0,0,0,.2-.06.54.08.72.2.1-.26.59-.41.59-.41l-.49-.22c-.11-.05-.2-.08-.28-.12-.33-.15-.66-.31-1-.47-.07-.03-.14-.05-.18.04Z"/>
        <path class="cls-1" d="M11.22,8.21c-.03-.43-.25-.75-.67-.91-.43-.16-.85-.31-1.29-.44-.32-.1-.74.25-.85.54-.22.58-.52,1.12-.82,1.66-.07.13-.11.27-.16.42-.03.09,0,.18.07.25.4.38.84.71,1.36.92.39.15.8.19,1.22.12.64-.1,1.15-.74,1.17-1.34.02-.4,0-.81-.03-1.21Z"/>
        <path class="cls-1" d="M8.47,6.89c.18-.11.52-.26.72-.2,0,0,0,0,0,0,.15.04.3.08.45.12.32.08.64.16.95.25.07.02.14.04.21.05.03,0,.05-.01.08-.02,0-.03,0-.06-.03-.08-.13-.14-.26-.27-.39-.41-.24-.27-.5-.53-.64-.87-.04-.09-.11-.08-.18-.04-.33.16-.66.31-1,.47-.09.04-.17.07-.28.12l-.49.22s.49.15.59.41Z"/>
        <path class="cls-1" d="M3.96,18.04c-.01.05-.02.11-.03.16l-.14.74c0,.07-.01.13-.02.2-.03.36-.07.73-.1,1.09l-.97-.56.03-.03c.41-.58.81-1.16,1.24-1.76,0,.07,0,.12,0,.16Z"/>
        <path class="cls-1" d="M20.29,19.74l-1.05.61c-.02-.41-.07-.81-.11-1.22,0-.07-.01-.13-.02-.2l-.14-.74c-.01-.05-.02-.11-.03-.16-.01-.04,0-.09,0-.16.42.6.83,1.18,1.24,1.76l.12.11Z"/>
      </g>
    </g>
  </g>
</svg>