<?xml version="1.0" encoding="UTF-8"?>
<svg id="Layer_2" data-name="Layer 2" xmlns="http://www.w3.org/2000/svg" viewBox="0 0 27.41 27.41">
  <defs>
    <style>
      .cls-1 {
        fill-rule: evenodd;
      }

      .cls-1, .cls-2 {
        fill: #fff;
      }

      .cls-3 {
        fill: #134686;
      }
    </style>
  </defs>
  <g id="Layer_1-2" data-name="Layer 1">
    <g>
      <path class="cls-3" d="M13.7,0C6.13,0,0,6.13,0,13.7s6.13,13.7,13.7,13.7,13.7-6.13,13.7-13.7S21.27,0,13.7,0ZM24.65,16.25c-.03.36-.23.69-.53.89-.31.19-.69.25-1.03.13l-3.36-1.28-2.02-2.11v4.02l-4.03,1.35-3.31-1.1v-4.27l-2.01,2.11-3.36,1.28c-.34.12-.72.06-1.03-.13-.3-.2-.5-.53-.53-.89v-.06c-.06-.54.25-1.05.77-1.24l3.4-1.43,2.68-2.91c.59-.59,1.29-.53,2.05-.53h3.43c.76,0,1.46-.06,2.05.53l2.68,2.91,3.4,1.43c.51.19.83.7.77,1.24v.06Z"/>
      <path class="cls-2" d="M24.66,16.19v.06c-.04.36-.24.69-.54.89-.31.19-.69.25-1.03.13l-3.36-1.28-2.02-2.11v4.02l-4.03,1.35-3.31-1.1v-4.27l-2.01,2.11-3.36,1.28c-.34.12-.72.06-1.03-.13-.3-.2-.5-.53-.53-.89v-.06c-.06-.54.25-1.05.77-1.24l3.4-1.43,2.68-2.91c.59-.59,1.29-.53,2.05-.53h3.43c.76,0,1.46-.06,2.05.53l2.68,2.91,3.4,1.43c.51.19.83.7.77,1.24Z"/>
      <path class="cls-1" d="M14.04,3.69c-1.39,0-2.52,1.13-2.52,2.53s1.13,2.52,2.52,2.52,2.52-1.13,2.52-2.52-1.13-2.53-2.52-2.53ZM12.58,19.72l-4.12-1.38c-.45-.12-.92-.06-1.32.18-.4.22-.69.6-.8,1.04-.12.45-.06.92.18,1.32.22.4.6.69,1.05.81l4.41.89c-.1-.16-.18-.33-.22-.53h0c-.24-.9.11-1.82.83-2.33ZM21.02,19.56c-.12-.44-.41-.82-.8-1.04-.4-.23-.87-.29-1.32-.18l-5.5,1.84c-.69.24-1.07.96-.88,1.66h0c.18.71.88,1.14,1.58,1.01l5.68-1.16c.45-.12.82-.41,1.05-.81.23-.4.29-.87.18-1.32Z"/>
    </g>
  </g>
</svg>