<svg id="ewsTRN50rny1" xmlns="http://www.w3.org/2000/svg" xmlns:xlink="http://www.w3.org/1999/xlink" viewBox="0 0 350.76 228.57" shape-rendering="geometricPrecision" text-rendering="geometricPrecision">
<g id="ewsTRN50rny2" transform="translate(-6.493027 8.778314)" opacity="0">
    <g transform="matrix(.999968 0.007984-.007984 0.999968 11.765969 47.576333)">
    <g transform="translate(1.784352 5.306735)">
        <g transform="translate(0-2)">
        <g id="ewsTRN50rny6" transform="translate(-.530088 0.004241)">
            <ellipse id="ewsTRN50rny7" rx="8.79" ry="13.72" transform="matrix(.998027-.06279 0.062791 0.998027 10.694189 39.436396)" fill="#134686"/>
            <line x1="30.82" y1="81.6" x2="8.82" y2="51.11" transform="translate(1.873903 0.137757)" fill="none" stroke="#134686" stroke-width="6" stroke-linecap="round" stroke-miterlimit="10"/>
        </g>
        </g>
    </g>
    </g>
    <g transform="translate(41.970295 128.626051)">
    <path id="ewsTRN50rny10" d="M41.81,13.31c-.18,0-.37-.02-.56-.05L2.44,5.95c-1.62-.31-2.69-1.88-2.39-3.51.31-1.62,1.88-2.69,3.51-2.39c2.046383.385089,3.929948.739539,5.650695,1.06335C18.303565,2.82445,22.85,3.68,22.85,3.68s17.084748,3.220895,19.52,3.68c1.63.31,2.7,1.88,2.39,3.5-.27,1.44-1.53,2.44-2.94,2.44l-.01.01Z" transform="translate(-.133922 1.186256)" fill="#134686"/>
    </g>
</g>
<g id="ewsTRN50rny11" transform="matrix(-1 0 0 1 331.548197 19.00723)" opacity="0">
    <g transform="matrix(.999968 0.007984-.007984 0.999968 11.765969 47.576333)">
    <g transform="translate(1.784352 5.306735)">
        <g transform="translate(0-2)">
        <g id="ewsTRN50rny15" transform="translate(-.530088 0.004241)">
            <ellipse id="ewsTRN50rny16" rx="8.79" ry="13.72" transform="matrix(.998027-.06279 0.062791 0.998027 10.694189 39.436396)" fill="#134686"/>
            <line x1="30.82" y1="81.6" x2="8.82" y2="51.11" transform="translate(1.873903 0.137757)" fill="none" stroke="#134686" stroke-width="6" stroke-linecap="round" stroke-miterlimit="10"/>
        </g>
        </g>
    </g>
    </g>
    <g transform="translate(41.970295 128.626051)">
    <path id="ewsTRN50rny19" d="M41.81,13.31c-.18,0-.37-.02-.56-.05L2.44,5.95c-1.62-.31-2.69-1.88-2.39-3.51.31-1.62,1.88-2.69,3.51-2.39c2.046383.385089,3.929948.739539,5.650695,1.06335C18.303565,2.82445,22.85,3.68,22.85,3.68s17.084748,3.220895,19.52,3.68c1.63.31,2.7,1.88,2.39,3.5-.27,1.44-1.53,2.44-2.94,2.44l-.01.01Z" transform="translate(-.133922 1.186256)" fill="#134686"/>
    </g>
    <g transform="translate(90.582994 58.893287)">
    <g>
        <path d="M61.82,61.23c-4.11,0-7.46,3.35-7.46,7.46c0,.27-.22.5-.49.5s-.5-.23-.5-.5c0-4.67,3.79-8.46,8.45-8.46.28,0,.5.23.5.5s-.22.5-.5.5Z" transform="translate(0 0.000002)" fill="#fff"/>
        <path d="M100.95,68.69c0,.28-.22.5-.5.5s-.49-.22-.49-.5c0-4.11-3.35-7.46-7.46-7.46-.28,0-.51-.23-.51-.5s.23-.5.51-.5c4.66,0,8.45,3.79,8.45,8.46Z" transform="translate(-.11768 0.000002)" fill="#fff"/>
    </g>
    </g>
    <g transform="translate(85.583676 63.996709)">
    <g>
        <path d="M154.13,94.38l-12.64,52.03c-.57,2.31-2.28,4.11-4.59,4.74-.61.18-1.22.23-1.8.23-1.7,0-3.35-.66-4.6-1.91l-7.29-7.31c-12.69,8.85-28.11,13.19-45.32,13.19C33.96,155.35,0,123.5,0,77.66C0,31.82,34.36,0,78.09,0c28.35,0,52.5,12.26,66.24,37.28L117.05,53.94l-3.76-.64C105.2,39.77,94.35,33.92,79.37,33.92c-22.51,0-40.21,17.71-40.21,43.74s17.7,43.76,40.81,43.76c7.12,0,13.25-1.27,18.54-4.05l-5.23-5.26c-1.29-1.27-1.97-2.99-1.92-4.76.02-.48.09-.97.21-1.46.58-2.26,2.26-3.99,4.51-4.66l6.55-1.93l43.29-12.73c2.29-.67,4.66-.12,6.36,1.53c1.71,1.62,2.4,3.96,1.85,6.28Z" fill="#134686"/>
        <path d="M92.89,88.88c-2.12,2.84-4.53,5.07-7.17,6.63-3.26,1.93-6.42,2.59-9.22,2.59-3.46,0-6.36-1-8.24-1.87-1.48-.69-2.12-2.44-1.44-3.92.69-1.48,2.44-2.13,3.92-1.44c2.87,1.33,7.28,2.33,11.98-.44c1.96-1.16,3.79-2.87,5.44-5.08.97-1.31,2.82-1.58,4.13-.6c1.31.97,1.58,2.82.6,4.13Z" fill="#134686"/>
    </g>
    <path id="ewsTRN50rny28" d="M92.5,57.25c-5.77,0-10.57,4.3-11.34,9.86h-8c-.77-5.57-5.57-9.86-11.34-9.86-6.31,0-11.44,5.13-11.44,11.44s5.13,11.44,11.44,11.44c5.77,0,10.56-4.29,11.34-9.86h8c.77,5.56,5.57,9.86,11.34,9.86c6.31,0,11.44-5.13,11.44-11.44s-5.13-11.44-11.44-11.44ZM61.82,61.23c-4.11,0-7.46,3.35-7.46,7.46c0,.27-.22.5-.49.5s-.5-.23-.5-.5c0-4.67,3.79-8.46,8.45-8.46.28,0,.5.23.5.5s-.22.5-.5.5Zm38.63,7.96c-.27,0-.49-.22-.49-.5c0-4.11-3.35-7.46-7.46-7.46-.28,0-.51-.23-.51-.5s.23-.5.51-.5c4.66,0,8.45,3.79,8.45,8.46c0,.28-.22.5-.5.5Z" fill="#134686"/>
    <path d="M92.89,88.88c-2.12,2.84-4.53,5.07-7.17,6.63-3.26,1.93-6.42,2.59-9.22,2.59-3.46,0-6.36-1-8.24-1.87-1.48-.69-2.12-2.44-1.44-3.92.69-1.48,2.44-2.13,3.92-1.44c2.87,1.33,7.28,2.33,11.98-.44c1.96-1.16,3.79-2.87,5.44-5.08.97-1.31,2.82-1.58,4.13-.6c1.31.97,1.58,2.82.6,4.13Z" fill="#134686"/>
    </g>
    <g id="ewsTRN50rny30" transform="matrix(.326529 0 0 0.326529 288.190595 202.121186)">
    <!-- Watermark rectangle removed -->
    </g>
    <path id="ewsTRN50rny32" d="M100.296,8.840967h1.86105v8.05706h-1.86105v-8.05706Zm.93793-1.32776c-.33752,0-.62035-.10561-.84864-.31684-.22829-.22129-.34251-.49288-.34251-.81477s.11422-.58843.34251-.79967c.22829-.22129.51112-.33193.84864-.33193s.62035.10562.84864.31685c.22829.20117.34251.45766.34251.76949c0,.33195-.11422.61358-.34251.84494-.21832.22129-.5013.33193-.84864.33193Zm17.50762,4.76743v4.61696h-1.86105v-4.37556c0-.70411-.16378-1.23218-.49133-1.58425-.32755-.3621-.7941-.54316-1.39949-.54316-.68501,0-1.2259.21123-1.62294.63369-.39705.41241-.59557,1.0109-.59557,1.7955v4.07379h-1.86105v-11.19538h1.86105v4.07379c.30776-.33195.68486-.58341,1.13162-.75441.45658-.18106.96271-.27159,1.51855-.27159c1.00259,0,1.80651.29673,2.41206.8902.60539.59346.90817,1.4736.90817,2.64042h-.00002Zm-11.14925,4.72426c-.87342,0-1.54846-.23136-2.02483-.69407-.47652-.46269-.71478-1.13663-.71478-2.02181v-3.87763h-1.3102v-1.50882h1.3102v-1.84075h1.8612v1.84075h2.12908v1.50882h-2.12908v3.83237c0,.39231.09428.69407.28283.9053.18855.20117.46156.30176.81888.30176.41684,0,.76433-.11065,1.04218-.33195l.52109,1.34285c-.21832.18106-.48634.31685-.80392.40738-.30776.09053-.63531.13579-.98265.13579v.00001Zm-13.2957-.10591l-2.05474-5.55243-2.08436,5.55243h-1.78672l-2.91819-8.05706h1.75696l2.09931,5.94472l2.18861-5.94472h1.56327l2.14403,5.97489l2.15884-5.97489h1.65271l-2.93315,8.05706h-1.78657Z" opacity="0.8" clip-rule="evenodd" fill="#fff" fill-rule="evenodd"/>
    <g id="ewsTRN50rny33" transform="matrix(.3 0 0 0.3-18.12243-25.905895)" opacity="0.8" mask="url(#ewsTRN50rny35)">
        <path id="ewsTRN50rny34" d="M129.5,243.58426c-8.76,2.18-20.08,1.79-37.33-19.63-2.35828-2.9281-4.38181-6.36293-5.93416-10.02849c3.00814.97918,6.21933,1.50849,9.55416,1.50849c17.03246,0,30.84-13.80754,30.84-30.84c0-5.42003-1.39819-10.5135-3.85355-14.93939c22.54068-3.14789,48.24701-1.18662,56.01355,6.19939c12.32,11.73-14.11,59.03-49.29,67.73Z" fill="#fff"/>
        <mask id="ewsTRN50rny35" mask-type="alpha" x="-150%" y="-150%" height="400%" width="400%">
        <path id="ewsTRN50rny36" d="M78.37454,207.03926c0-31.45994,25.50332-56.96327,56.96327-56.96327s56.96327,25.50332,56.96327,56.96327-25.50332,56.96327-56.96327,56.96327-56.96327-25.50332-56.96327-56.96327Zm89.23546-4.715c-.16775-.93858-1.05962-1.56734-2-1.41h-.06c-4.15414.71597-8.30501-1.28258-10.33588-4.97651s-1.49439-8.26953,1.33588-11.39349c.33036-.3301.51598-.77798.51598-1.245s-.18561-.9149-.51598-1.245l-.11-.1c-2.70671-2.31865-5.78705-4.16144-9.11-5.45-.43613-.17299-.92328-.16468-1.35326.02308s-.76719.53944-.93674.97692v.06c-1.40364,3.98681-5.18789,6.63916-9.41438,6.59848s-7.95898-2.76539-9.28562-6.77848c-.13404-.44903-.44162-.82607-.85458-1.04757s-.8972-.26916-1.34542-.13243h-.11c-3.26392,1.21388-6.31249,2.94242-9.03,5.12-.37331.28196-.619.70095-.6828,1.16441s.05956.93325.3428,1.30559l.1.12c2.68294,3.2243,3.03751,7.79124.8844,11.39101s-6.34454,5.44763-10.4544,4.60899c-.45624-.10445-.9353-.02286-1.33126.22672s-.67619.6466-.77874,1.10328v.09c-.55386,3.43784-.55386,6.94217,0,10.38.06433.46505.31181.88512.68739,1.16681s.84815.40164,1.31261.33319h.11c4.15414-.71597,8.30501,1.28258,10.33588,4.97651s1.49439,8.26953-1.33588,11.39349c-.33036.3301-.51598.77798-.51598,1.245s.18561.9149.51598,1.245l.11.1c2.70914,2.30768,5.7893,4.14023,9.11,5.42.43613.17299.92328.16468,1.35326-.02308s.76719-.53944.93674-.97692v-.06c1.40815-3.97311,5.18194-6.61524,9.39704-6.57914s7.94308,2.7425,9.28296,6.73914c.13404.44903.44162.82607.85458,1.04757s.8972.26916,1.34542.13243h.11c3.30375-1.22537,6.38706-2.97809,9.13-5.19.37164-.28659.61343-.70974.67164-1.17542s-.07198-.93533-.36164-1.30458l-.1-.12c-2.83001-3.19588-3.28744-7.84789-1.13412-11.53378s6.43037-5.57199,10.60412-4.67622c.93041.23341,1.87421-.33019,2.11-1.26v-.09c.5347-3.37898.5347-6.82102,0-10.2Zm-41.67,4.69c0-5.197,4.213-9.41,9.41-9.41s9.41,4.213,9.41,9.41-4.213,9.41-9.41,9.41-9.41-4.213-9.41-9.41Z" fill="#fff" stroke-width="0"/>
        </mask>
    </g>
    <path id="ewsTRN50rny37" d="M116.33,114.77l-3.64-2.18c-1.023263-.593162-1.652267-1.687247-1.65-2.87v-2c-.002267-1.182753.626737-2.276838,1.65-2.87l3.64-2.18c.762973-.435835,1.321342-1.157154,1.552062-2.005003s.114855-1.752643-.322062-2.514997v0l-1.74-3c-.935215-1.566004-2.961067-2.080293-4.53-1.15v0l-3.68,2.18c-1.024118.591275-2.285882.591275-3.31,0l-1.7-1c-1.023263-.593162-1.652267-1.687247-1.65-2.87v-4.38c0-.877867-.348731-1.719778-.969477-2.340523s-1.462656-.969477-2.340523-.969477h-3.47c-.877867,0-1.719778.348731-2.340523.969477s-.969477,1.462656-.969477,2.340523s0,.06,0,.09v4.35c.002267,1.182753-.626737,2.276838-1.65,2.87l-1.68,1c-1.024118.591275-2.285882.591275-3.31,0L80.56,94c-.767143-.448916-1.682599-.570435-2.540292-.337203s-1.585543.801616-2.019708,1.577203v0l-1.74,3c-.443418.7584-.567152,1.661967-.343945,2.511654s.775044,1.575787,1.533945,2.018346v0L79.1,105c1.023263.593162,1.652267,1.687247,1.65,2.87v2c.002267,1.182753-.626737,2.276838-1.65,2.87l-3.61,2.18c-1.578036.917936-2.114924,2.940216-1.2,4.52v0l1.74,3c.917936,1.578036,2.940216,2.114924,4.52,1.2v0l3.66-2.18c1.024118-.591275,2.285882-.591275,3.31,0l1.68,1c1.023263.593162,1.652267,1.687247,1.65,2.87v3.67c0,.877867.348731,1.719778.969477,2.340523s1.462656.969477,2.340523.969477h3.46c.877867,0,1.719778-.348731,2.340523-.969477s.969477-1.462656.969477-2.340523v0-3.77c-.002267-1.182753.626737-2.276838,1.65-2.87l1.7-1c1.024118-.591275,2.285882-.591275,3.31,0l3.66,2.18c1.5824.913239,3.605483.371662,4.52-1.21v0l1.74-3c.938839-1.568495.428452-3.601089-1.14-4.54Zm-20.49.91c-3.865993,0-7-3.134007-7-7s3.134007-7,7-7s7,3.134007,7,7v0c0,3.865993-3.134007,7-7,7v0Z" transform="matrix(.3 0 0 0.3-17.650844-2.6395)" opacity="0.8" fill="#fff"/>
</g>
<!-- The rest of your animation and script tag remain unchanged below -->
<script><![CDATA[
!function(t,e){"object"==typeof exports&&"undefined"!=typeof module?module.exports=e():... (rest of script unchanged) ...]]></script>
</svg>
