<?xml version="1.0" encoding="UTF-8"?>
<svg id="Layer_2" data-name="Layer 2" xmlns="http://www.w3.org/2000/svg" viewBox="0 0 1047.58 862.24">
  <defs>
    <style>
      .cls-1 {
        fill: #1a1a1a;
      }

      .cls-1, .cls-2, .cls-3, .cls-4, .cls-5, .cls-6, .cls-7 {
        fill-rule: evenodd;
      }

      .cls-2 {
        fill: #2ba680;
      }

      .cls-3 {
        stroke: #2ba680;
        stroke-miterlimit: 10;
        stroke-width: 3px;
      }

      .cls-3, .cls-4 {
        fill: #fff;
      }

      .cls-5 {
        fill: #207d60;
      }

      .cls-6 {
        fill: #165340;
      }
    </style>
  </defs>
  <g id="_Ñëîé_1" data-name="Ñëîé 1">
    <g>
      <path class="cls-2" d="M874.61,645.07c7.84-7.83,7.84-20.53,0-28.37-7.83-7.84-20.53-7.84-28.37,0l-59.64,59.94-3.95-16.35c-2.61-10.8-13.48-17.43-24.27-14.82-4.21,1.02-7.78,3.29-10.42,6.32l-96.53,98.11c-7.77,7.91-7.67,20.62.24,28.39,7.91,7.77,20.62,7.67,28.39-.24l72-73.17,3.89,16.1h.05c.83,3.46,2.61,6.75,5.31,9.45,7.83,7.84,20.53,7.84,28.37,0l84.93-85.36Z"/>
      <path class="cls-5" d="M306.33,450.67h0c15.99-3.84,32.22,6.1,36.07,22.09l31.7,131.92-58.16,13.97-31.7-131.92c-3.84-15.99,6.1-32.22,22.09-36.07Z"/>
      <path class="cls-6" d="M235.43,675.63c-5.83-11.85-.95-26.19,10.9-32.02,11.85-5.83,26.19-.95,32.02,10.9,14.25,28.98,16.25,61,7.79,89.97-8.46,28.93-27.41,54.84-55.07,71.61-29.41,17.83-63.25,22.06-94.18,14.48-30.98-7.59-59.08-27.02-76.95-56.49-3.29-5.43-6.12-10.98-8.47-16.61-2.47-5.92-4.45-11.87-5.93-17.81-3.17-12.84,4.66-25.82,17.5-28.99,12.84-3.17,25.82,4.66,28.99,17.5.97,3.87,2.16,7.51,3.57,10.89,1.53,3.67,3.28,7.13,5.22,10.34,10.97,18.1,28.27,30.04,47.36,34.72,19.14,4.69,40.06,2.09,58.22-8.92,16.97-10.29,28.62-26.26,33.85-44.14,5.22-17.85,3.98-37.58-4.81-55.45Z"/>
      <path class="cls-5" d="M889.04,626.81c-11.85,5.83-26.19.95-32.02-10.9-5.83-11.85-.95-26.19,10.9-32.02,28.98-14.25,61-16.25,89.97-7.79,28.93,8.46,54.84,27.41,71.61,55.07,17.83,29.41,22.06,63.25,14.48,94.18-7.59,30.98-27.02,59.08-56.49,76.95-5.43,3.29-10.98,6.12-16.61,8.47-5.92,2.47-11.87,4.45-17.81,5.93-12.84,3.17-25.82-4.66-28.99-17.5-3.17-12.84,4.66-25.82,17.5-28.99,3.87-.97,7.51-2.16,10.89-3.57,3.67-1.53,7.13-3.28,10.34-5.22,18.1-10.97,30.04-28.27,34.72-47.36,4.69-19.14,2.09-40.06-8.92-58.22-10.29-16.97-26.26-28.62-44.14-33.85-17.85-5.22-37.58-3.98-55.45,4.81Z"/>
      <path class="cls-2" d="M449.74,661.13c47.3,18.4-21.61,31.67-40.01,78.97-18.4,47.3,20.68,110.72-26.62,92.32-61.74-24-116.31-61.64-160.29-109.21-43.88-47.47-77.07-104.78-96.15-168.21-34.3-114.06-19.2-231.06,32.92-328.01,52.2-97.09,141.5-174.29,255.51-208.57C529.16-15.88,646.16-.79,743.11,51.34c97.09,52.2,174.29,141.5,208.57,255.51,21.46,71.36,23.77,145.62,8.43,215.91-15.35,70.33-48.4,136.9-97.67,192.87-33.57,38.06-91.64,41.69-129.7,8.12-38.06-33.57-41.69-91.64-8.12-129.7,28.07-31.88,46.94-70.01,55.77-110.44,8.83-40.47,7.55-83.03-4.69-123.75-19.61-65.21-63.85-116.33-119.52-146.27-55.81-30.01-122.92-38.77-188.08-19.18-65.21,19.61-116.33,63.85-146.27,119.52-30.01,55.81-38.77,122.92-19.18,188.08,10.98,36.51,30.03,69.44,55.19,96.66,25.07,27.13,56.35,48.65,91.89,62.46Z"/>
      <g>
        <g>
          <g>
            <path class="cls-3" d="M506.93,689.37h0c3.99-1.01,8.08,1.43,9.1,5.42l7.06,27.86c1.01,3.99-1.43,8.09-5.42,9.1h0c-3.99,1.01-8.08-1.43-9.1-5.42l-7.06-27.86c-1.01-3.99,1.43-8.08,5.42-9.1Z"/>
            <g>
              <path class="cls-3" d="M481.02,695.93h0c3.99-1.01,8.09,1.43,9.1,5.42l7.06,27.86c1.01,3.99-1.43,8.08-5.42,9.1h0c-3.99,1.01-8.08-1.43-9.1-5.42l-7.06-27.86c-1.01-3.99,1.43-8.08,5.42-9.1Z"/>
              <path class="cls-3" d="M532.83,682.8h0c3.99-1.01,8.09,1.43,9.1,5.42l7.06,27.86c1.01,3.99-1.43,8.08-5.42,9.1h0c-3.99,1.01-8.08-1.43-9.1-5.42l-7.06-27.86c-1.01-3.99,1.43-8.08,5.42-9.1Z"/>
              <path class="cls-3" d="M558.74,676.24h0c3.99-1.01,8.08,1.43,9.1,5.42l7.06,27.86c1.01,3.99-1.43,8.08-5.42,9.1h0c-3.99,1.01-8.08-1.43-9.1-5.42l-7.06-27.86c-1.01-3.99,1.43-8.08,5.42-9.1Z"/>
              <path class="cls-3" d="M584.64,669.67h0c3.99-1.01,8.08,1.43,9.1,5.42l7.06,27.86c1.01,3.99-1.43,8.09-5.42,9.1h0c-3.99,1.01-8.08-1.43-9.1-5.42l-7.06-27.86c-1.01-3.99,1.43-8.08,5.42-9.1Z"/>
            </g>
          </g>
          <g>
            <path class="cls-4" d="M453.93,793.88h0c1.97,2.03,1.93,5.3-.1,7.28l-14.16,13.78c-2.03,1.97-5.31,1.93-7.28-.1h0c-1.97-2.03-1.93-5.31.1-7.28l14.16-13.78c2.03-1.98,5.3-1.93,7.28.1Z"/>
            <g>
              <path class="cls-3" d="M441.11,780.71h0c1.97,2.03,1.93,5.3-.1,7.28l-14.16,13.78c-2.03,1.97-5.3,1.93-7.28-.1h0c-1.98-2.03-1.93-5.31.1-7.28l14.16-13.78c2.03-1.97,5.3-1.93,7.28.1Z"/>
              <path class="cls-3" d="M466.74,807.05h0c1.97,2.03,1.93,5.3-.1,7.28l-14.16,13.78c-2.03,1.97-5.3,1.93-7.28-.1h0c-1.97-2.03-1.93-5.31.1-7.28l14.16-13.78c2.03-1.97,5.3-1.93,7.28.1Z"/>
              <path class="cls-3" d="M479.56,820.22h0c1.97,2.03,1.93,5.3-.1,7.28l-14.16,13.78c-2.03,1.97-5.31,1.93-7.28-.1h0c-1.97-2.03-1.93-5.3.1-7.28l14.16-13.78c2.03-1.97,5.3-1.93,7.28.1Z"/>
              <path class="cls-3" d="M492.37,833.39h0c1.97,2.03,1.93,5.31-.1,7.28l-14.16,13.78c-2.03,1.98-5.31,1.93-7.28-.1h0c-1.97-2.03-1.93-5.31.1-7.28l14.16-13.78c2.03-1.97,5.3-1.93,7.28.1Z"/>
            </g>
          </g>
          <path class="cls-2" d="M357.93,590.28l55.11,15.57c13.09,3.7,23.21,12.94,28.52,24.46,4.11,8.92,13.78,13.53,23.29,11.12l169.55-42.96c10.53,41.59-14.53,83.49-55.59,93.89l-127.9,32.41c-30.22,7.66-40.76,44.96-19.02,67.3l57.62,59.21c-36.28,35.29-237.96-49.58-186.96-230.03,6.71-23.75,31.63-37.69,55.38-30.98Z"/>
          <path class="cls-1" d="M588.09,610.21l46.31-11.74c2.43,9.59,2.96,19.19,1.84,28.42-7.67,3.74-16.69,4.78-25.55,2.28-10.31-2.91-18.28-10.03-22.61-18.96Z"/>
        </g>
        <g>
          <path class="cls-7" d="M403.11,652.01c.99.48,1.4,1.67.92,2.65-.48.99-1.67,1.4-2.65.92-4.31-2.1-7.37-5.75-8.82-9.95-1.45-4.2-1.3-8.96.79-13.27,2.1-4.31,5.75-7.37,9.95-8.82,4.2-1.45,8.96-1.3,13.27.79.99.48,1.4,1.67.92,2.65-.48.99-1.67,1.4-2.65.92-3.33-1.62-7-1.73-10.24-.61-3.24,1.12-6.06,3.48-7.67,6.81-1.62,3.33-1.73,7-.61,10.24,1.12,3.24,3.48,6.06,6.81,7.67Z"/>
          <path class="cls-7" d="M413.87,631.51c4.75,2.31,6.74,8.04,4.42,12.79-2.31,4.75-8.04,6.74-12.79,4.42-4.75-2.31-6.74-8.04-4.42-12.79,2.31-4.75,8.04-6.74,12.79-4.42Z"/>
        </g>
      </g>
      <path class="cls-2" d="M804.86,666.42c-12.4,4.55-26.14-1.82-30.69-14.22-4.55-12.4,1.82-26.14,14.22-30.69,30.32-11.11,62.38-9.73,90.29,1.75,27.88,11.46,51.64,33.04,65.4,62.32,14.63,31.13,15.27,65.23,4.46,95.18-10.82,30.01-33.11,55.9-64.3,70.56-5.75,2.7-11.57,4.93-17.41,6.67-6.15,1.83-12.28,3.18-18.33,4.02-13.1,1.8-25.18-7.36-26.98-20.46-1.8-13.1,7.36-25.18,20.46-26.98,3.95-.55,7.69-1.36,11.2-2.4,3.81-1.13,7.43-2.5,10.83-4.1,19.16-9,32.86-24.94,39.53-43.43,6.69-18.54,6.31-39.62-2.72-58.83-8.44-17.96-23.09-31.23-40.32-38.31-17.2-7.07-36.95-7.92-55.64-1.07Z"/>
      <path class="cls-2" d="M195.81,591.45c-4.55-12.4,1.82-26.14,14.22-30.69,12.4-4.55,26.14,1.82,30.69,14.22,11.11,30.32,9.73,62.38-1.75,90.29-11.46,27.88-33.04,51.64-62.32,65.4-31.13,14.63-65.23,15.27-95.18,4.46-30.01-10.82-55.9-33.11-70.56-64.3-2.7-5.75-4.93-11.57-6.67-17.41-1.83-6.15-3.18-12.28-4.02-18.33-1.8-13.1,7.36-25.18,20.46-26.98,13.1-1.8,25.18,7.36,26.98,20.46.55,3.95,1.36,7.69,2.4,11.2,1.13,3.81,2.5,7.43,4.1,10.83,9,19.16,24.94,32.86,43.43,39.53,18.54,6.69,39.62,6.31,58.83-2.72,17.96-8.44,31.23-23.09,38.31-40.32,7.07-17.2,7.92-36.95,1.07-55.64Z"/>
      <path class="cls-5" d="M301.13,641.82c1.21,2.01.56,4.62-1.45,5.83-2.01,1.21-4.62.56-5.83-1.45l-70.2-116.1c-4.86-8.03-5.99-17.33-3.89-25.83,2.09-8.5,7.41-16.21,15.46-21.07h.02c8.03-4.86,17.31-5.99,25.81-3.89,8.5,2.09,16.21,7.41,21.07,15.45l70.2,116.1c1.21,2.01.56,4.62-1.45,5.83-2.01,1.21-4.62.56-5.83-1.45l-70.09-115.91c-.08-.11-.15-.23-.22-.35-3.65-5.94-9.39-9.88-15.72-11.44-6.33-1.56-13.25-.74-19.25,2.83-.11.07-.22.14-.33.2-5.94,3.65-9.88,9.39-11.43,15.72-1.57,6.39-.72,13.37,2.93,19.41l70.2,116.1Z"/>
    </g>
  </g>
</svg>
