<?xml version="1.0" encoding="UTF-8"?>
<svg id="Layer_1" data-name="Layer 1" xmlns="http://www.w3.org/2000/svg" xmlns:xlink="http://www.w3.org/1999/xlink" viewBox="0 0 971.34 452.39">
  <defs>
    <style>
      .cls-1 {
        font-family: Quasimoda-ExtraBold, Quasimoda;
        font-size: 72px;
        font-weight: 700;
      }

      .cls-2 {
        stroke-width: .75px;
      }

      .cls-2, .cls-3, .cls-4 {
        stroke: #000;
        stroke-miterlimit: 10;
      }

      .cls-2, .cls-4 {
        stroke-linecap: round;
      }

      .cls-3, .cls-5, .cls-4 {
        fill: none;
      }

      .cls-3, .cls-4 {
        stroke-width: 8px;
      }

      .cls-6 {
        clip-path: url(#clippath-1);
      }

      .cls-7 {
        letter-spacing: -.02em;
      }

      .cls-8 {
        clip-path: url(#clippath);
      }
    </style>
    <clipPath id="clippath">
      <rect class="cls-5" x="771.33" y="332.12" width="31.01" height="31.01"/>
    </clipPath>
    <clipPath id="clippath-1">
      <rect class="cls-5" x="812.89" y="332.12" width="31.01" height="31.01"/>
    </clipPath>
  </defs>
  <polygon class="cls-3" points="83.27 8 66.68 36.73 99.85 36.73 83.27 8"/>
  <g>
    <path d="M409.12,402.07c0-16.13,11.88-27.07,27.15-27.07,10.3,0,18.51,4.18,23.4,12.6l-9.5,5.83-1.3-.22c-2.95-4.46-6.55-6.48-11.95-6.48-8.14,0-14.26,6.12-14.26,15.34s5.62,15.41,13.75,15.41c6.77,0,11.59-2.95,12.46-8.64v-.22h-10.8v-9.29h22.32v28.01h-11.23v-1.8c0-1.87.43-3.67,1.08-5.33l-.14-.07c-3.53,5.98-8.93,8.57-16.2,8.57-14.33,0-24.77-10.87-24.77-26.64Z"/>
    <path d="M535.33,411c0-10.8,6.26-17.57,14.19-17.57,4.32,0,8.42,2.23,11.02,6.48-.14-2.88-.22-6.62-.22-10.44v-14.91h11.88v52.78h-11.52v-5.04c-2.45,4.1-6.91,6.41-11.59,6.41-8.14,0-13.75-6.7-13.75-17.71ZM560.6,411.14c0-4.68-2.88-7.92-6.91-7.92s-6.77,3.02-6.77,7.92,2.59,7.78,6.55,7.78c4.18,0,7.13-3.1,7.13-7.78Z"/>
    <path d="M574.91,374.56h12.39v41.15h21.96l-1.37,11.63h-32.98v-52.78Z"/>
    <path d="M603.87,381.76c0-3.67,2.88-6.26,6.98-6.26s6.98,2.59,6.98,6.34-2.88,6.26-6.98,6.26-6.98-2.59-6.98-6.34ZM604.88,427.34v-32.55h11.88v32.55h-11.88Z"/>
    <path d="M640.09,384.21c-1.01-.43-2.02-.65-2.81-.65-2.38,0-3.38,1.44-3.38,5.62v5.62h6.48v8.93h-6.48v23.62h-11.88v-23.62h-5.69v-8.93h5.69v-5.47c0-11.23,3.67-15.62,12.24-15.62,2.38,0,4.97.43,6.98,1.01l-.5,9.22-.65.29Z"/>
    <path d="M662.12,418.34l.36,9.07c-1.8.72-4.97,1.3-7.78,1.3-8.35,0-12.67-3.96-12.67-11.74v-13.25h-5.69v-8.93h5.76v-7.63l9.07-5.33h2.66v12.96h8.42v8.93h-8.42v10.37c0,3.53,1.22,4.68,4.39,4.68,1.08,0,2.09-.29,3.24-.72l.65.29Z"/>
    <rect x="491.09" y="410.4" width="15.5" height="4.29"/>
    <path class="cls-5" d="M493.33,410.4c-1.04-7.54-7.54-13.36-15.36-13.36-8.55,0-15.5,6.95-15.5,15.5s6.95,15.51,15.5,15.51c7.82,0,14.31-5.82,15.36-13.36h.15v-4.29h-.15ZM477.97,402.43c-5.57,0-10.11,4.54-10.11,10.11,0,.37-.3.68-.67.68s-.68-.31-.68-.68c0-6.32,5.14-11.46,11.46-11.46.38,0,.68.31.68.68s-.3.67-.68.67Z"/>
    <path d="M493.33,410.4c-1.04-7.54-7.54-13.36-15.36-13.36-8.55,0-15.5,6.95-15.5,15.5s6.95,15.51,15.5,15.51c7.82,0,14.31-5.82,15.36-13.36.1-.7.15-1.42.15-2.15s-.05-1.44-.15-2.14ZM477.97,402.43c-5.57,0-10.11,4.54-10.11,10.11,0,.37-.3.68-.67.68s-.68-.31-.68-.68c0-6.32,5.14-11.46,11.46-11.46.38,0,.68.31.68.68s-.3.67-.68.67Z"/>
    <path class="cls-5" d="M519.53,397.04c-8.55,0-15.51,6.95-15.51,15.5s6.96,15.51,15.51,15.51,15.5-6.96,15.5-15.51-6.95-15.5-15.5-15.5ZM530.31,413.22c-.37,0-.67-.3-.67-.68,0-5.57-4.54-10.11-10.11-10.11-.37,0-.68-.3-.68-.67s.31-.68.68-.68c6.32,0,11.46,5.14,11.46,11.46,0,.38-.3.68-.68.68Z"/>
    <path d="M519.53,397.04c-8.55,0-15.51,6.95-15.51,15.5s6.96,15.51,15.51,15.51,15.5-6.96,15.5-15.51-6.95-15.5-15.5-15.5ZM530.31,413.22c-.37,0-.67-.3-.67-.68,0-5.57-4.54-10.11-10.11-10.11-.37,0-.68-.3-.68-.67s.31-.68.68-.68c6.32,0,11.46,5.14,11.46,11.46,0,.38-.3.68-.68.68Z"/>
    <g>
      <path d="M497.1,392.68c-13.94,0-25.71-2.9-33.29-5.42-2.1-.7-3.23-2.96-2.54-5.06s2.96-3.23,5.06-2.54c12.66,4.2,37.9,9.56,64.71-1.79,10.11-4.28,19.44-10.49,27.73-18.46,1.59-1.53,4.12-1.48,5.66.11,1.53,1.59,1.48,4.12-.11,5.66-9,8.65-19.14,15.4-30.15,20.06-13.07,5.53-25.77,7.43-37.05,7.43Z"/>
      <g>
        <path d="M563.46,369.6l-9.61-9.64c-.7-.7-.4-1.9.56-2.18l12.87-3.79c.97-.29,1.88.59,1.65,1.57l-3.26,13.43c-.24,1-1.48,1.34-2.2.62Z"/>
        <path d="M564.38,370.36c-.44,0-.86-.17-1.19-.5l-9.61-9.64c-.42-.43-.59-1.03-.44-1.61s.58-1.03,1.16-1.2l12.87-3.79c.59-.17,1.2-.02,1.64.4.44.42.62,1.03.48,1.62l-3.26,13.43c-.15.6-.59,1.06-1.18,1.23-.15.04-.31.06-.46.06ZM563.73,369.34c.24.24.59.33.92.24.33-.09.58-.35.66-.68l3.26-13.43c.08-.33-.02-.67-.26-.9s-.58-.32-.91-.22l-12.87,3.79c-.32.09-.56.34-.64.67-.08.32,0,.66.24.89l9.61,9.64Z"/>
      </g>
    </g>
    <path d="M497.85,452.39c-4.68,0-8.62-1.35-11.16-2.53-2-.93-2.88-3.31-1.95-5.31.93-2,3.31-2.88,5.31-1.95,3.89,1.8,9.86,3.16,16.23-.6,2.66-1.57,5.14-3.89,7.37-6.88,1.32-1.77,3.83-2.14,5.6-.82s2.14,3.83.82,5.6c-2.87,3.85-6.14,6.88-9.72,8.99-4.41,2.61-8.7,3.5-12.5,3.5Z"/>
  </g>
  <path d="M717.98,337.15c0-16.13,11.88-27.07,27.15-27.07,10.3,0,18.51,4.18,23.4,12.6l-9.5,5.83-1.3-.22c-2.95-4.46-6.55-6.48-11.95-6.48-8.14,0-14.26,6.12-14.26,15.34s5.62,15.41,13.75,15.41c6.77,0,11.59-2.95,12.46-8.64v-.22h-10.8v-9.29h22.32v28.01h-11.23v-1.8c0-1.87.43-3.67,1.08-5.33l-.14-.07c-3.53,5.98-8.93,8.57-16.2,8.57-14.33,0-24.77-10.87-24.77-26.64Z"/>
  <path d="M844.19,346.08c0-10.8,6.26-17.57,14.19-17.57,4.32,0,8.42,2.23,11.02,6.48-.14-2.88-.22-6.62-.22-10.44v-14.91h11.88v52.78h-11.52v-5.04c-2.45,4.1-6.91,6.41-11.59,6.41-8.14,0-13.75-6.7-13.75-17.71ZM869.46,346.22c0-4.68-2.88-7.92-6.91-7.92s-6.77,3.02-6.77,7.92,2.59,7.78,6.55,7.78c4.18,0,7.13-3.1,7.13-7.78Z"/>
  <path d="M881.77,309.64h12.39v41.15h21.96l-1.37,11.63h-32.98v-52.78Z"/>
  <path d="M912.73,316.85c0-3.67,2.88-6.26,6.98-6.26s6.98,2.59,6.98,6.34-2.88,6.26-6.98,6.26-6.98-2.59-6.98-6.34ZM913.74,362.43v-32.55h11.88v32.55h-11.88Z"/>
  <path d="M948.95,319.29c-1.01-.43-2.02-.65-2.81-.65-2.38,0-3.38,1.44-3.38,5.62v5.62h6.48v8.93h-6.48v23.62h-11.88v-23.62h-5.69v-8.93h5.69v-5.47c0-11.23,3.67-15.62,12.24-15.62,2.38,0,4.97.43,6.98,1.01l-.5,9.22-.65.29Z"/>
  <path d="M970.98,353.42l.36,9.07c-1.8.72-4.97,1.3-7.78,1.3-8.35,0-12.67-3.96-12.67-11.74v-13.25h-5.69v-8.93h5.76v-7.63l9.07-5.33h2.66v12.96h8.42v8.93h-8.42v10.37c0,3.53,1.22,4.68,4.39,4.68,1.08,0,2.09-.29,3.24-.72l.65.29Z"/>
  <rect x="799.96" y="345.48" width="15.5" height="4.29"/>
  <g class="cls-8">
    <path d="M786.84,363.13c8.55,0,15.51-6.95,15.51-15.51s-6.96-15.51-15.51-15.51-15.51,6.96-15.51,15.51,6.95,15.51,15.51,15.51ZM786.84,336.16c.37,0,.67.3.67.67s-.3.67-.67.67c-5.57,0-10.11,4.54-10.11,10.11,0,.37-.3.67-.67.67s-.67-.3-.67-.67c0-6.32,5.14-11.46,11.46-11.46Z"/>
  </g>
  <g class="cls-6">
    <path d="M812.89,347.62c0,8.55,6.95,15.51,15.51,15.51s15.51-6.96,15.51-15.51-6.96-15.51-15.51-15.51-15.51,6.95-15.51,15.51ZM839.85,347.62c0,.37-.3.67-.67.67s-.67-.3-.67-.67c0-5.57-4.54-10.11-10.11-10.11-.37,0-.67-.3-.67-.67s.3-.67.67-.67c6.32,0,11.46,5.14,11.46,11.46Z"/>
  </g>
  <g>
    <path class="cls-4" d="M773.93,318.54c9.93,3.3,37.44,10.84,67.53-1.9,12.92-5.47,22.49-13.06,28.94-19.26"/>
    <path class="cls-2" d="M872.32,304.68l-9.61-9.64c-.7-.7-.4-1.9.56-2.18l12.87-3.79c.97-.29,1.88.59,1.65,1.57l-3.26,13.43c-.24,1-1.48,1.34-2.2.62Z"/>
  </g>
  <path class="cls-4" d="M797.24,381.31c2.93,1.36,11.06,4.47,19.94-.78,3.82-2.25,6.64-5.38,8.55-7.94"/>
  <text class="cls-1" transform="translate(0 167.95)"><tspan x="0" y="0">Lo</tspan><tspan class="cls-7" x="82.94" y="0">r</tspan><tspan x="115.85" y="0">em ipsum</tspan></text>
</svg>