<?xml version="1.0" encoding="UTF-8"?>
<svg id="Layer_2" data-name="Layer 2" xmlns="http://www.w3.org/2000/svg" viewBox="0 0 122.04 117.09">
  <defs>
    <style>
      .cls-1 {
        fill: #e5e7eb;
        opacity: 0.7;
      }
      .cls-primary {
        fill: #2563eb;
        opacity: 1;
      }
      .cls-secondary {
        fill: #60a5fa;
        opacity: 1;
      }
    </style>
  </defs>
  <g id="Layer_1-2" data-name="Layer 1">
    <g id="all-muscles">
      <g id="traps">
        <path class="cls-1" d="M89.97,20.26c-.33-.8-.85-1.41-1.79-1.55-1.15-.17-2.31-.27-3.46-.07-.94.17-1.85.45-2.78.68,0,.04,0,.09,0,.13,1.36.41,1.9,1.48,2.22,2.72.12.47.21.96.32,1.43.23,1.01.44,2.03,1.02,2.9.93,1.41,1.9,2.79,2.88,4.16.88,1.23,1.8,2.43,2.25,3.9.1.31.16.63.25,1.01.03-.51.07-.95.07-1.38-.03-3.29-.08-6.57-.09-9.86,0-1.43-.36-2.77-.9-4.07Z"/>
        <path class="cls-1" d="M94.61,18.63c-.86.09-1.6.35-2.05,1.15-.51.93-.87,1.94-.98,2.97-.17,1.58-.22,3.17-.24,4.76-.04,2.28-.01,4.56,0,6.84,0,.36.04.73.05,1.09.34-1.88,1.45-3.34,2.54-4.81.68-.92,1.35-1.83,2.01-2.76.69-.98,1.3-1.99,1.6-3.17.22-.9.41-1.81.64-2.71.24-.9.64-1.71,1.47-2.22.22-.13.46-.22.69-.33,0-.03,0-.06,0-.09-.72-.2-1.43-.43-2.16-.6-1.18-.28-2.38-.24-3.58-.12Z"/>
        <path class="cls-1" d="M93.17,18.57l1.42-.34h0c.88.03,1.77.02,2.66.03.04,0,.09-.02.21-.05-.13-.08-.2-.12-.27-.16-.54-.32-1.09-.63-1.62-.97-.68-.42-1-1.06-1.04-1.85-.03-.69-.1-1.37-.13-2.06-.04-1.03-.34-1.98-.86-2.87-.05-.08-.11-.14-.17-.21-.03.01-.07.02-.1.03.12,1.35.23,2.71.35,4.07-.02-.08-.05-.17-.06-.25-.18-1.31-.35-2.61-.54-3.91-.02-.14-.12-.33-.24-.4-.99-.58-2-.59-3.03-.09-.31.15-.4.35-.42.68-.07,1.47-.27,2.92-.65,4.35-.04.15-.11.29-.16.44.35-2.08.58-4.55.39-4.92-.08.11-.17.21-.23.32-.39.66-.64,1.38-.71,2.15-.09.97-.14,1.95-.24,2.93-.07.65-.31,1.25-.89,1.62-.5.32-1.02.62-1.54.93-.09.05-.19.1-.34.18.12.03.17.06.23.06.94-.01,1.88-.03,2.82-.05h0s1.23.37,1.23.37c1.26.99,1.77,2.32,1.92,3.89.22-.8.37-1.5.62-2.17.26-.7.77-1.22,1.4-1.73Z"/>
        <path class="cls-1" d="M32.7,17.15c-.38.88-1.03,1.56-1.67,2.25-.33.36-.67.7-1,1.05-.05.05-.05.14-.07.21.07.02.15.07.21.06.18-.03.37-.07.55-.12.82-.21,1.64-.42,2.46-.63.39-.1.77-.2,1.16-.31,0,0,0,0,.01,0,.52-.15,1.4.22,1.86.51.26-.66,1.52-1.05,1.52-1.05l-1.27-.56c-.29-.12-.51-.21-.73-.31-.86-.4-1.72-.8-2.57-1.21-.19-.09-.37-.12-.47.11Z"/>
        <path class="cls-1" d="M20.94,20.16c.47-.3,1.34-.66,1.86-.51,0,0,0,0,.01,0,.38.11.77.21,1.16.31.82.22,1.64.42,2.46.63.18.05.36.09.55.12.07,0,.14-.04.21-.06-.02-.07-.02-.16-.07-.21-.33-.35-.67-.69-1-1.05-.63-.69-1.28-1.37-1.67-2.25-.1-.24-.28-.2-.47-.11-.86.4-1.71.81-2.57,1.21-.22.1-.45.19-.73.31l-1.27.56s1.26.38,1.52,1.05Z"/>
      </g>
      <g id="lower_back" data-name="lower back">
        <path class="cls-1" d="M91.36,51.15c0,.75-.03,1.5-.03,2.25,0,.09.05.18.08.27.09-.05.2-.09.25-.17.3-.44.6-.88.86-1.33.78-1.36,1.19-2.87,1.69-4.35.34-1.02.67-2.06,1.28-2.96.34-.52.7-1.03,1.35-1.21.45-.13.46-.14.43-.62-.13-1.82-.63-3.54-1.72-5-.83-1.11-1.82-2.09-2.74-3.13-.08-.09-.19-.14-.3-.2-.18-.09-.36-.06-.42.14-.22.69-.54,1.37-.62,2.08-.12,1.04-.07,2.09-.07,3.14,0,1.98,0,3.96,0,5.94,0,0-.02,0-.02,0,0,1.72,0,3.44,0,5.16Z"/>
        <path class="cls-1" d="M90.92,38.25s-.04-1.13-.13-1.67c-.1-.56-.35-1.1-.55-1.64-.12-.32-.29-.37-.58-.19-.12.07-.22.17-.32.27-.39.43-.78.86-1.16,1.29-.42.47-.84.94-1.24,1.42-.56.67-.91,1.45-1.24,2.25-.43,1.04-.64,2.12-.7,3.23-.01.23.07.35.3.4.45.09.79.35,1.08.7.79.93,1.17,2.06,1.56,3.18.38,1.11.74,2.22,1.15,3.31.37.97.87,1.89,1.52,2.71.05.07.15.1.23.16.04-.09.1-.17.1-.26,0-.21-.03-.42-.03-.63,0-4.85,0-9.69,0-14.54Z"/>
      </g>
      <g id="lats">
        <path class="cls-secondary" d="M101.88,29.16l-.05-1.15h0c0-.07-.02-.15-.05-.25-.08-.27-.17-.53-.26-.8-.5-1.38-1.36-2.5-2.56-3.35-.52-.36-.76-.25-.88.36-.17.92-.42,1.82-.89,2.62-.41.7-.9,1.36-1.36,2.04l-.66,1.08c-.74,1.14-1.49,2.27-2.23,3.41-.25.39-.26.79.03,1.17.85,1.16,1.86,2.17,3.1,2.92.93.56,1.88.54,2.83.07,1.02-.51,1.66-1.38,2.16-2.37.69-1.36.89-2.83.9-4.56-.01-.25-.04-.73-.07-1.2Z"/>
        <path class="cls-secondary" d="M89.12,34.58c.53-.66.57-.93.12-1.64-.68-1.07-1.4-2.12-2.09-3.18l-.54-.92h-.04c-.03-.07-.07-.15-.13-.23-.35-.49-.72-.96-1.04-1.47-.64-1.01-1.02-2.12-1.22-3.29-.08-.44-.31-.55-.7-.32-.16.09-.32.21-.47.32-1.25,1-2.05,2.3-2.49,3.83-.04.13-.06.23-.06.32h0s-.05,1.17-.05,1.17c-.03.46-.06.92-.08,1.38.02.44.04.87.07,1.31.13,1.54.62,2.95,1.54,4.19.57.76,1.31,1.28,2.24,1.52.9.23,1.69-.09,2.43-.58.98-.66,1.78-1.51,2.52-2.42Z"/>
        <path class="cls-secondary" d="M101.39,34.95s-.06-.02-.09-.02c-.04.09-.08.19-.14.28-.3.53-.58,1.08-.92,1.58-.35.52-.78.98-1.42,1.14-.87.23-1.72.16-2.55-.18-.07-.03-.15-.05-.3-.09,1.02,1.86,1.53,3.8,1.91,5.88.22-.15.38-.23.51-.35.64-.58,1.09-1.3,1.46-2.07.8-1.66,1.18-3.43,1.43-5.24.04-.31.07-.62.11-.93Z"/>
        <path class="cls-secondary" d="M86.26,37.67c-.1.02-.13.02-.17.04-.59.26-1.2.37-1.84.34-.69-.04-1.38-.16-1.82-.76-.46-.62-.86-1.29-1.28-1.94-.08-.12-.11-.27-.17-.4-.02,0-.05.01-.07.02,0,.05-.01.1,0,.14.24,1.5.4,3,.91,4.45.37,1.08.81,2.11,1.5,3.01.2.27.45.51.71.73.29.26.39.21.46-.16,0-.03,0-.06.01-.09.27-1.49.65-2.94,1.28-4.32.15-.34.31-.68.49-1.05Z"/>
      </g>
      <g id="calves">
        <path class="cls-1" d="M82.67,81.94c-.11,0-.25.14-.3.26-.31.58-.8,1.21-1.09,1.8-.69,1.43-1.08,2.07-1.59,3.85-.29,1-.64,1.95-.74,2.88-.06.58-.05,1.77,0,2.23.1,1.1.88,1.69,1.93,1.97.8.21,1.34-.11,1.4-.9.07-.93.05-1.87.14-2.79.15-1.54.32-3.07.53-4.6.15-1.09.36-2.17.36-3.28,0-.42-.12-.79-.32-1.15-.06-.11-.21-.25-.31-.25Z"/>
        <path class="cls-1" d="M85.88,86.25c0-.52.02-1.4.05-1.92.02-.37.02-.74,0-1.11,0-.22-.17-.32-.41-.22-.27.11-.56.23-.77.4-.56.45-.86,1.05-1.03,1.67-.46,1.68-.67,3.39-.82,5.11-.03.92-.1,1.85-.1,2.77,0,.98.14,1.95.49,2.9.27.73.7,1.38,1.49,1.82.34.19.66.18.95-.04.17-.13.6-.69.7-.85.49-.85.7-1.56.76-2.2.15-1.38,0-2.67-.42-4.02-.54-1.75-.9-2.34-.89-4.31Z"/>
        <path class="cls-1" d="M99.84,91.22c.09.93.07,1.87.14,2.79.06.78.61,1.11,1.4.9,1.05-.28,1.83-.86,1.93-1.97.04-.46.06-1.65,0-2.23-.1-.93-.46-1.88-.74-2.88-.51-1.77-.9-2.42-1.59-3.85-.28-.59-.78-1.22-1.09-1.8-.06-.11-.2-.25-.3-.26-.1,0-.25.14-.31.25-.21.35-.32.73-.32,1.15,0,1.11.21,2.19.36,3.28.21,1.53.39,3.07.53,4.6Z"/>
        <path class="cls-1" d="M96.53,97.63c.28.23.61.23.95.04.79-.44,1.22-1.09,1.49-1.82.35-.95.49-1.92.49-2.9,0-.92-.06-1.85-.1-2.77-.15-1.72-.36-3.44-.82-5.11-.17-.62-.47-1.22-1.03-1.67-.21-.17-.5-.28-.77-.4-.24-.1-.41,0-.41.22-.02.37-.02.74,0,1.11.03.52.05,1.4.05,1.92,0,1.97-.35,2.56-.89,4.31-.42,1.35-.57,2.65-.42,4.02.07.63.28,1.35.76,2.2.1.17.53.72.7.85Z"/>
        <path class="cls-1" d="M23.48,88.01c-.01-.06-.05-1.93-.1-2.07-.05.15-.34,1.22-.36,1.3-.07.32-.14.63-.21.95-.38,1.69-.77,3.37-1.13,5.06-.19.9-.42,1.79-.51,2.7-.14,1.44-.22,2.89-.26,4.34-.04,1.51.11,3,.52,4.46.19.68.38,1.36.57,2.04-.05-.02-.07-.04-.09-.08-.16-.45-.34-.9-.49-1.37-.7-2.25-.9-4.57-.93-6.91-.03-2.58-.15-5.15-.34-7.72-.09-1.2-.14-2.4-.15-3.61-.01-1.41.18-2.81.42-4.21.08-.47.14-.95.22-1.46-.08.03-.11.03-.12.05-.09.13-.19.25-.28.38-1.63,2.3-2.59,4.89-2.93,7.69-.23,1.88-.3,4.38,0,6.26.43,2.7.54,4.03,1.4,6.62.33.97,1.18,2.62,1.83,3.43.62.77,1.23,1.54,1.85,2.31.08.1.17.18.31.32.03-.18.07-.28.05-.38-.15-.91-.23-1.85-.5-2.73-.33-1.04-.37-2.55-.15-3.63.54-2.68,1.35-3.79,1.92-6.46.25-1.18.31-2.82.05-4.04-.25-1.16-.39-2.12-.61-3.28Z"/>
        <path class="cls-1" d="M35.01,108.21c.62-.77,1.23-1.54,1.85-2.31.65-.82,1.5-2.46,1.83-3.43.87-2.59.98-3.92,1.4-6.62.3-1.88.23-4.38,0-6.26-.34-2.8-1.29-5.39-2.93-7.69-.09-.13-.18-.26-.28-.38,0-.01-.03-.01-.12-.05.08.52.14.99.22,1.46.24,1.39.43,2.79.42,4.21,0,1.2-.06,2.41-.15,3.61-.19,2.57-.32,5.14-.34,7.72-.02,2.33-.23,4.66-.93,6.91-.14.46-.32.91-.49,1.37-.01.03-.03.06-.09.08.19-.68.38-1.36.57-2.04.42-1.46.56-2.95.52-4.46-.04-1.45-.12-2.9-.26-4.34-.09-.91-.32-1.81-.51-2.7-.37-1.69-.75-3.37-1.13-5.06-.07-.32-.14-.63-.21-.95-.02-.08-.31-1.15-.36-1.3-.05.14-.09,2.01-.1,2.07-.22,1.16-.36,2.13-.61,3.28-.26,1.22-.2,2.86.05,4.04.56,2.68,1.38,3.78,1.92,6.46.22,1.07.18,2.58-.15,3.63-.27.88-.35,1.82-.5,2.73-.02.09.03.2.06.38.14-.15.23-.23.31-.32Z"/>
      </g>
      <g id="glutes">
        <path class="cls-1" d="M85.09,44.36s-.08-.08-.13-.12h0s0,0,0,0c-.07-.05-.14-.09-.21-.13-.07-.04-.16-.03-.3-.06-1.13.07-2.08.61-2.8,1.55-.52.69-.78,1.53-.99,2.36-.23.92-.41,1.85-.59,2.77-.02.11.05.24.08.36.12-.05.28-.06.35-.15.24-.32.5-.65.68-1.01.06-.12.12-.24.18-.35l1.03-1.03.58-.37c.2-.12.4-.22.62-.29.8-.26,1.63-.45,2.45-.65.34-.08.43-.13.34-.46-.15-.53-.33-1.06-.53-1.58-.06-.15-.12-.25-.2-.3v-.03s-.56-.51-.56-.51Z"/>
        <path class="cls-1" d="M87.03,47.97c-.13-.48-.39-.63-.97-.55-1.21.15-2.22.65-3.07,1.35-1.28,1.06-2.05,2.38-2.63,3.79-.16.41-.08.58.39.8.76.36,1.25.9,1.49,1.6.35,1.05.55,2.12.5,3.2-.04.79-.16,1.58-.25,2.36-.09.55.21.76.83.59,1.58-.43,3.08-1.01,4.45-1.82,1.25-.74,2.32-1.61,2.96-2.82.34-.64.32-1.16-.16-1.78-1.61-2.07-2.85-4.3-3.53-6.72Z"/>
        <path class="cls-1" d="M100.13,42.27c-.41.49-.81.98-1.21,1.47.4.28.8.54,1.17.83.22.18.39.42.6.62.08.07.24.14.31.11.08-.03.16-.2.14-.29-.19-.91-.39-1.82-.61-2.73-.05-.21-.24-.21-.4-.01Z"/>
        <path class="cls-1" d="M94.49,59.3c1.36.81,2.86,1.39,4.45,1.82.62.17.92-.04.83-.59-.09-.79-.21-1.57-.25-2.36-.05-1.08.14-2.15.5-3.2.24-.7.73-1.24,1.49-1.6.47-.22.55-.39.39-.8-.57-1.41-1.35-2.73-2.63-3.79-.86-.71-1.86-1.2-3.07-1.35-.58-.07-.83.07-.97.55-.68,2.42-1.92,4.65-3.53,6.72-.48.62-.5,1.15-.16,1.78.64,1.21,1.71,2.09,2.96,2.82Z"/>
        <path class="cls-1" d="M96.21,47.24c.82.2,1.65.39,2.45.65.22.07.42.18.62.29l.58.37,1.03,1.03c.06.12.12.23.18.35.18.36.43.69.68,1.01.07.09.23.1.35.15.03-.12.1-.25.08-.36-.18-.93-.36-1.86-.59-2.77-.21-.84-.47-1.67-.99-2.36-.71-.94-1.66-1.48-2.8-1.55-.14.02-.24.02-.3.06-.06.04-.14.08-.21.13h0s0,0,0,0c-.05.04-.1.07-.13.12l-.57.51v.03c-.07.05-.14.15-.19.3-.2.52-.38,1.05-.53,1.58-.09.33,0,.38.34.46Z"/>
      </g>
      <g id="hamstrings">
        <path class="cls-1" d="M82.35,57.51c-.03-.98-.17-1.95-.76-2.82-.28-.4-.63-.74-1.14-.89-.61-.19-.97-.04-1.06.53-.16,1-.3,2.01-.36,3.02-.08,1.25-.14,2.51-.11,3.76.04,1.93.08,3.86.28,5.78.24,2.34.65,4.67.99,7.01.03.24.09.47.14.71l.52,2.9c0,.06,0,.11,0,.17-.02,1.18-.16,2.37-.19,3.55-.02.59.07,1.18.15,1.77.03.25.16.49.24.74.03,0,.07,0,.1-.01.03-.05.06-.1.08-.15.45-1.02.85-2.06,1.37-3.05,1.01-1.93,1.51-3.96,1.6-6.09.07-1.68.14-3.35.22-5.03.03-.51.12-1.02.16-1.53.09-1.29.2-2.58.24-3.88.03-.74-.03-1.49-.1-2.23-.03-.39-.19-.49-.61-.37-.26.08-.52.16-.78.26-.45.15-1.54.43-1.55-.24.33-1.28.6-2.57.55-3.9Z"/>
        <path class="cls-1" d="M89.82,59.18s0-.09,0-.14c-.03-.26-.33-.37-.51-.19-.5.5-1.17.77-1.83,1.03-1.1.42-1.61,1.22-1.76,2.2-.18,1.13-.29,2.27-.4,3.41-.13,1.35-.24,2.7-.34,4.06-.08,1.18-.19,2.37-.18,3.55,0,.11,0,.22,0,.33h0s-.48,4.76-.48,4.76h0c-.1.3-.14.61-.07.93.23,1.17.83,2.2,1.67,3.11.26.29.42.57.41.93,0,.25.02.51.03.76l.03,2.7c.06.01.12.02.18.03.12-.2.22-.4.35-.6,1.11-2.58,1.31-3.98,1.9-6.22.5-1.93.93-4.19,1.01-5.64.15-2.63.17-6.22.32-8.85.02-.37-.32-4.92-.33-5.29v-.88Z"/>
        <path class="cls-1" d="M95.68,86.66c.06-.01.12-.02.18-.03l.03-2.7c.01-.25.04-.51.03-.76,0-.36.14-.64.41-.93.84-.91,1.45-1.94,1.67-3.11.06-.32.02-.63-.07-.93h0l-.48-4.76h0c0-.12,0-.22,0-.33.01-1.18-.1-2.37-.18-3.55-.09-1.35-.21-2.71-.34-4.06-.11-1.14-.22-2.28-.4-3.41-.16-.99-.66-1.78-1.76-2.2-.66-.25-1.33-.52-1.83-1.03-.19-.19-.49-.07-.51.19,0,.05,0,.09,0,.14v.88c0,.37-.35,4.92-.32,5.29.15,2.63.18,6.22.32,8.85.08,1.45.5,3.71,1.01,5.64.58,2.24.78,3.64,1.9,6.22.13.2.23.4.35.6Z"/>
        <path class="cls-1" d="M98.9,61.65c-.26-.09-.52-.18-.78-.26-.41-.12-.57-.02-.61.37-.07.74-.12,1.49-.1,2.23.05,1.29.15,2.59.24,3.88.04.51.13,1.02.16,1.53.08,1.67.15,3.35.22,5.03.09,2.13.59,4.16,1.6,6.09.52.99.91,2.03,1.37,3.05.02.05.05.1.08.15.03,0,.07,0,.1.01.08-.25.21-.49.24-.74.08-.59.16-1.18.15-1.77-.03-1.18-.17-2.37-.19-3.55,0-.06,0-.11,0-.17l.52-2.9c.05-.24.11-.47.14-.71.34-2.33.75-4.66.99-7.01.2-1.92.24-3.85.28-5.78.03-1.25-.02-2.51-.11-3.76-.07-1.01-.21-2.02-.36-3.02-.09-.57-.45-.72-1.06-.53-.51.16-.87.49-1.14.89-.59.87-.73,1.83-.76,2.82-.04,1.33.23,2.62.55,3.9-.01.67-1.1.39-1.55.24Z"/>
      </g>
      <g id="rear_delts" data-name="rear delts">
        <path class="cls-1" d="M98.5,22.49c-.01.22.07.36.26.49.47.32.95.63,1.36,1.02.8.75,1.52,1.59,2.34,2.32,1.03.93,2.28,1.39,3.84,1.36.16-.02.48-.06.79-.09.2-.02.28-.13.26-.32-.07-.59-.1-1.18-.21-1.75-.22-1.24-.63-2.4-1.51-3.34-1.13-1.2-2.53-1.98-4.07-2.5-.22-.07-.48-.08-.71-.03-1.14.26-2.28,1.66-2.35,2.84Z"/>
        <path class="cls-1" d="M75.03,27.59c.32.03.63.07.79.09,1.56.02,2.8-.44,3.84-1.36.82-.73,1.54-1.57,2.34-2.32.41-.39.89-.7,1.36-1.02.19-.13.27-.27.26-.49-.08-1.18-1.21-2.58-2.35-2.84-.22-.05-.49-.04-.71.03-1.55.52-2.95,1.29-4.07,2.5-.88.94-1.29,2.1-1.51,3.34-.1.58-.14,1.17-.21,1.75-.02.19.06.3.26.32Z"/>
      </g>
      <g id="triceps">
        <path class="cls-1" d="M108.49,33.42c-.33-.03-.67-.12-.95-.25-.5-.23-.96-.51-1.5-.81,0,.12.02.19.02.26,0,.53.05,1.06-.02,1.58-.08.63-.37,1.2-1.12,1.55-.01,0-.02.02-.03.03-.05,0-.13,0-.29-.01-.31-.03-.73-.38-.95-.6-.05-.06-.11-.11-.17-.17,0,0,0,0,0,0h0c-.15-.15-.31-.3-.46-.46-.03.02-.06.03-.1.05.02.05.03.11.05.16.61,1.1,1.18,2.21,1.85,3.29.23.38.66.71,1.04,1.03.11.1.38.09.58.14l.95.07c.11.02.23,0,.37-.05.41-.15.82-.29,1.25-.37.29-.05.42-.15.44-.36.07-.62.19-1.24.18-1.86-.02-.97-.18-1.92-.58-2.84-.09-.21-.23-.33-.55-.35Z"/>
        <path class="cls-1" d="M105.38,34.73c.02-.05.03-.11.04-.16.05-.52.11-1.04.14-1.4-.08-.5-.15-.83-.19-1.17-.23-1.86-1.36-3.31-2.5-4.76-.09-.12-.35-.19-.53-.18-.1,0-.18.24-.25.37-.04.08-.04.17-.04.26,0,1.13-.02,2.26.03,3.39.07,1.55.82,2.85,1.95,3.96.6.59,1.09.45,1.34-.33Z"/>
        <path class="cls-1" d="M105.09,27.93c-.33-.07-.66-.15-1.1-.25.08.23.11.37.18.5.37.74.8,1.45,1.12,2.21.46,1.09,1.4,1.84,2.42,2.55.58.4,1.1.24,1.28-.37.04-.14.08-.29.05-.43-.1-.59-.15-1.2-.34-1.77-.23-.71-.55-1.39-.85-2.09-.08-.19-.21-.35-.53-.28-.75.17-1.49.07-2.22-.08Z"/>
        <path class="cls-1" d="M80.07,27.71c0-.09,0-.18-.04-.26-.07-.14-.15-.37-.25-.37-.17-.02-.43.05-.53.18-1.14,1.45-2.27,2.9-2.5,4.76-.04.33-.11.67-.19,1.17.04.36.09.88.14,1.4,0,.05.02.11.04.16.26.78.74.91,1.34.33,1.13-1.11,1.88-2.4,1.95-3.96.05-1.13.02-2.26.03-3.39Z"/>
        <path class="cls-1" d="M73.13,38.85c.43.08.85.22,1.25.37.14.05.26.07.37.05l.95-.07c.2-.04.47-.04.58-.14.38-.32.81-.65,1.04-1.03.66-1.08,1.24-2.19,1.85-3.29.03-.05.04-.11.05-.16-.03-.02-.06-.03-.1-.05-.15.16-.3.31-.46.46h0s0,0,0,0c-.06.06-.11.11-.17.17-.23.22-.64.57-.95.6-.16.01-.25.02-.29.01-.01-.01-.02-.03-.03-.03-.76-.35-1.04-.92-1.12-1.55-.07-.52-.02-1.06-.02-1.58,0-.07,0-.14.02-.26-.54.3-1,.58-1.5.81-.28.13-.62.22-.95.25-.32.03-.46.14-.55.35-.4.92-.56,1.87-.58,2.84-.01.62.11,1.24.18,1.86.02.21.15.31.44.36Z"/>
        <path class="cls-1" d="M74.43,32.95c1.02-.71,1.96-1.46,2.42-2.55.32-.75.74-1.47,1.12-2.21.07-.13.1-.27.18-.5-.44.1-.77.18-1.1.25-.73.15-1.47.25-2.22.08-.32-.07-.45.09-.53.28-.3.69-.63,1.38-.85,2.09-.18.58-.24,1.18-.34,1.77-.02.14.01.29.05.43.18.61.7.77,1.28.37Z"/>
        <path class="cls-1" d="M15.16,37.56c.15-.01.31-.23.39-.35.18-.29.63-.99.77-1.3.74-1.55.98-2.07,1.28-3.64.03-.18.12-1.35.08-1.53-.02-.12,0-.71-.02-.84-.08-.77-.24-1.87-.29-1.77-.13.61-.66,3.38-.75,3.7-.4,1.39-.79,2.79-1.17,4.19-.11.41-.21.82-.31,1.22.04.02-.03.32,0,.32Z"/>
        <path class="cls-1" d="M42.13,37.56s-.03-.29,0-.32c-.1-.41-.2-.82-.31-1.22-.39-1.4-.77-2.8-1.17-4.19-.09-.32-.62-3.09-.75-3.7-.05-.1-.2.99-.29,1.77-.01.13,0,.72-.02.84-.03.18.05,1.35.08,1.53.3,1.57.54,2.09,1.28,3.64.15.31.6,1,.77,1.3.07.12.24.34.39.35Z"/>
      </g>
      <g id="biceps">
        <path class="cls-1" d="M11.79,40.98c0,.22.05.44.08.72.07-.08.09-.1.11-.13.37-.62.68-1.28,1.11-1.85.91-1.24,1.58-2.59,2.06-4.04.27-.82.55-1.65.8-2.48.5-1.65.81-3.34.95-5.06.06-.69-.35-1.02-1.01-.79-1.79.64-3.53.67-4.84,3.5-.57,1.22-.68,1.85-.76,3.18-.04.69.17,1.89.76,2.63.81,1.01.71,3.01.74,4.33Z"/>
        <path class="cls-1" d="M40.39,28.13c.14,1.72.46,3.4.95,5.06.25.83.52,1.66.8,2.48.48,1.45,1.15,2.81,2.06,4.04.43.58.74,1.23,1.11,1.85.02.03.04.05.11.13.03-.28.07-.5.08-.72.03-1.31-.07-3.32.74-4.33.59-.73.8-1.94.76-2.63-.08-1.33-.19-1.96-.76-3.18-1.31-2.83-3.05-2.86-4.84-3.5-.65-.23-1.06.1-1.01.79Z"/>
      </g>
      <g id="front_delts" data-name="front delts">
        <path class="cls-secondary" d="M12.8,28.25c.41-.27,1.06-.55,1.5-.77.51-.26,1.95-.49,2.47-.72,1.01-.45,1.06-.15,1.67-1.21.8-1.4,1.88-3.16,2.23-4.72.06-.27-.02-.51-.22-.67-.36-.29-.73-.57-1.13-.8-.15-.09-.38-.07-.55-.04-1.6.24-2.54.45-3.74,1.36-.73.55-1.82,1.77-2.15,2.63-.61,1.58-.47,3.45-.52,5.12,0,.04.02.09.04.18.1-.09.33-.3.4-.35Z"/>
        <path class="cls-secondary" d="M36.63,20.83c.35,1.55,1.44,3.32,2.23,4.72.61,1.06.65.76,1.67,1.21.52.23,1.96.46,2.47.72.44.22,1.08.5,1.5.77.08.05.31.27.4.35.02-.09.05-.14.04-.18-.06-1.67.08-3.54-.52-5.12-.33-.86-1.41-2.07-2.15-2.63-1.2-.91-2.15-1.11-3.74-1.36-.17-.03-.41-.04-.55.04-.4.24-.77.51-1.13.8-.2.16-.28.4-.22.67Z"/>
      </g>
      <g id="forearms">
        <path class="cls-1" d="M69.75,43.31c.73-1.2,1.6-2.3,2.58-3.33.17-.18.24-.37.19-.6-.11-.55-.21-1.1-.32-1.65-.02-.11-.1-.21-.15-.31h-.12c-1.23,1.86-2.4,3.74-2.44,6.01.03.02.06.03.09.05.06-.06.13-.11.17-.18Z"/>
        <path class="cls-1" d="M109.8,39.98c.97,1.03,1.85,2.13,2.58,3.33.04.07.11.12.17.18.03-.02.06-.03.09-.05-.04-2.28-1.21-4.16-2.44-6.02h-.12c-.05.11-.12.2-.15.31-.11.55-.21,1.1-.32,1.65-.05.24.02.43.19.6Z"/>
        <path class="cls-1" d="M115.93,54.37c.29.06.35-.07.24-.36-.58-1.59-1.18-3.18-1.74-4.78-.27-.76-.45-1.55-.68-2.33-.03-.09-.12-.17-.18-.25-.08.08-.17.15-.23.25-.04.07-.05.17-.05.26-.03.53-.09,1.06-.08,1.59,0,1.01.05,2.02.08,3.02-.04,0-.07,0-.11,0-.3-1.63-.36-3.27-.3-4.91.06-1.63-.26-3.12-1.34-4.41-.07-.08-.14-.17-.21-.26h0s-.07-.08-.11-.12l-.82-.9c-.36-.25-.68-.49-1.01-.71l-.62-.58s-.04-.05-.07-.07h0s0,0,0,0c-.08-.04-.2-.05-.36-.01-.27.07-.53.22-.77.37-.27.16-.33.42-.2.68.14.29.3.57.48.83.35.48.71.95.89,1.53.64,2.02,1.31,4.02,1.96,6.04.19.59.37,1.18.56,1.77l-.05.02s-.04-.07-.05-.1c-.67-2.04-1.34-4.08-2.03-6.11-.32-.96-.61-1.94-1.26-2.76-.4-.5-.79-1.01-1.19-1.5-.28-.35-.57-.69-.87-1.02-.05-.06-.17-.12-.23-.1-.06.01-.12.14-.11.21.01.4-.03.81.09,1.18.17.53.46,1.02.71,1.53.17.35.41.68.53,1.05.65,1.96,1.45,3.85,2.38,5.7,1,1.97,2.04,3.91,3.06,5.87.13.25.28.24.5.14,1.01-.46,2-.96,3.19-.73Z"/>
        <path class="cls-1" d="M76.66,39.64c0-.07-.06-.2-.11-.21-.07-.02-.18.04-.23.1-.3.33-.59.67-.87,1.02-.4.5-.79,1-1.19,1.5-.65.82-.94,1.8-1.26,2.76-.69,2.03-1.35,4.07-2.03,6.11-.01.04-.03.07-.05.1l-.05-.02c.19-.59.37-1.18.56-1.77.65-2.01,1.32-4.02,1.96-6.04.18-.58.54-1.05.89-1.53.19-.26.34-.55.48-.83.13-.27.08-.52-.2-.68-.24-.14-.5-.3-.77-.37-.16-.04-.28-.03-.36.01h0s0,0,0,0c-.03.02-.05.04-.07.07l-.62.58c-.33.22-.65.45-1.01.71l-.82.9c-.11.12-.22.25-.33.38-1.08,1.29-1.4,2.78-1.34,4.41.07,1.64,0,3.29-.3,4.91-.04,0-.07,0-.11,0,.03-1.01.07-2.02.08-3.02,0-.53-.05-1.06-.08-1.59,0-.09,0-.19-.05-.26-.06-.09-.15-.17-.23-.25-.06.08-.15.16-.18.25-.23.78-.41,1.57-.68,2.33-.56,1.6-1.16,3.19-1.74,4.78-.11.29-.05.42.24.36,1.19-.24,2.19.27,3.19.73.22.1.37.11.5-.14,1.02-1.96,2.06-3.9,3.06-5.87.93-1.84,1.74-3.74,2.38-5.7.12-.37.36-.7.53-1.05.25-.51.54-1,.71-1.53.12-.37.07-.78.09-1.18Z"/>
        <path class="cls-1" d="M15.06,40.61c.36-.69.49-1.44.28-2.21-.03-.13-.12-.29-.23-.34-.08-.03-.26.07-.34.16-.33.37-.64.75-.96,1.13-.71.83-1.37,1.7-1.81,2.7-.49,1.14-.89,2.32-1.3,3.5-1.03,3.02-1.71,6.1-1.81,9.3,0,.21.03.42.05.63.04,0,.07.02.11.02.06-.15.13-.3.19-.45.81-1.96,1.92-3.71,2.72-5.67.7-1.72,1.51-3.75,2.12-5.5.4-1.15.4-2.18.97-3.27Z"/>
        <path class="cls-1" d="M5.93,52.59c.96-1.1,1.79-2.28,2.54-3.53,1.62-2.71,2.74-5.6,2.99-8.78.07-.86.09-1.71-.31-2.52-.26-.53-.51-.57-.86-.1-1.56,2.08-2.32,4.46-2.52,7.02-.21,2.74-.97,5.31-2.15,7.77-.08.17-.19.34-.29.5.03.03.06.06.09.09.17-.15.37-.28.52-.45Z"/>
        <path class="cls-1" d="M46.59,45.54c-.4-1.18-.8-2.36-1.3-3.5-.43-1-1.1-1.87-1.81-2.7-.32-.37-.63-.76-.96-1.13-.08-.09-.26-.2-.34-.16-.11.05-.2.21-.23.34-.21.77-.08,1.52.28,2.21.57,1.08.58,2.12.97,3.27.61,1.75,1.42,3.78,2.12,5.5.8,1.97,1.91,3.71,2.72,5.67.06.15.13.3.19.45.04,0,.07-.02.11-.02.02-.21.05-.42.05-.63-.1-3.2-.79-6.28-1.81-9.3Z"/>
        <path class="cls-1" d="M46.15,37.75c-.4.81-.37,1.66-.31,2.52.24,3.18,1.36,6.07,2.99,8.78.75,1.25,1.58,2.44,2.54,3.53.15.17.34.3.52.45.03-.03.06-.06.09-.09-.1-.17-.2-.33-.29-.5-1.19-2.46-1.94-5.03-2.15-7.77-.2-2.55-.96-4.94-2.52-7.02-.35-.47-.6-.44-.86.1Z"/>
      </g>
      <g id="quads">
        <path class="cls-1" d="M23.69,68.23c.02-1.24-.02-2.48-.29-3.68-.43-1.88-.95-3.73-1.41-5.6-.62-2.51-1.21-5.03-1.82-7.54-.07-.31-.16-.61-.25-.91-.02-.07-.12-.11-.18-.17-.04.07-.1.14-.12.21-.02.06-.02.14-.02.21,0,.78.01,1.56,0,2.34-.02.96-.04,1.92-.11,2.87-.08,1.02-.25,2.04-.34,3.06-.19,2-.38,3.99-.52,5.99-.09,1.34-.18,2.68-.14,4.02.07,2.36.24,4.71.36,7.07.06,1.19.1,2.39.13,3.58.02.99.01,1.97.02,3.03.09-.1.15-.15.19-.21.65-.96,1.33-1.91,1.95-2.9.58-.93,1.11-1.89,1.44-2.95.61-1.95.82-3.98,1.03-6,.08-.8.09-1.62.1-2.43Z"/>
        <path class="cls-1" d="M38.43,82.71c0-1.06,0-2.04.02-3.03.03-1.19.07-2.39.13-3.58.12-2.36.29-4.71.36-7.07.04-1.34-.05-2.69-.14-4.02-.14-2-.33-4-.52-5.99-.1-1.02-.26-2.04-.34-3.06-.08-.95-.09-1.91-.11-2.87-.02-.78,0-1.56,0-2.34,0-.07,0-.14-.02-.21-.03-.08-.08-.14-.12-.21-.06.05-.16.1-.18.17-.1.3-.18.6-.25.91-.61,2.51-1.2,5.03-1.82,7.54-.46,1.87-.98,3.73-1.41,5.6-.28,1.21-.31,2.45-.29,3.68.01.81.02,1.62.1,2.43.21,2.02.42,4.05,1.03,6,.33,1.05.86,2.02,1.44,2.95.62.98,1.3,1.93,1.95,2.9.04.06.1.11.19.21Z"/>
        <path class="cls-1" d="M16.61,69.68c0,.07,1.9,7.41,1.92,7.47.06-.47-.49-7.59-.45-9.7.06-2.94.42-5.44.69-8.38.05-.51.12-1.02.17-1.53.1-1.11.25-2.22.27-3.34.03-1.43-.04-2.86-.08-4.29-.01-.53-.06-1.06-.1-1.58h-.1c-.02.08-.04.15-.06.22-.18.77-.32,1.55-.53,2.31-.74,2.6-1.65,5.64-1.88,8.31-.15,1.77-.59,3.89-.51,5.45.1,1.85.35,2.98.66,5.05Z"/>
        <path class="cls-1" d="M40.8,69.68c.3-2.07.56-3.2.66-5.05.08-1.57-.35-3.69-.5-5.45-.23-2.67-1.14-5.71-1.88-8.31-.22-.76-.36-1.54-.53-2.31-.02-.07-.04-.15-.06-.22h-.1c-.03.53-.08,1.05-.1,1.58-.04,1.43-.11,2.86-.08,4.29.02,1.11.17,2.22.27,3.34.05.51.12,1.02.17,1.53.27,2.93.63,5.43.69,8.38.04,2.11-.52,9.23-.45,9.7.02-.07,1.91-7.4,1.92-7.47Z"/>
      </g>
      <g id="vastus_medialis" data-name="vastus medialis">
        <path class="cls-1" d="M24.41,68.26c-.02.09-.04.19-.05.28-.09,1-.16,2.01-.26,3.01-.08.76-.14,1.52-.29,2.26-.26,1.31-.58,2.6-.86,3.9-.03.13-.04.28,0,.41.59,1.82.69,3.7.67,5.59,0,.36-.02.71-.03,1.07.03,0,.05,0,.08,0,1.09-2.54,1.66-5.2,1.79-7.95.14-2.91-.13-5.78-.93-8.59h-.12Z"/>
        <path class="cls-1" d="M33.82,84.78c-.01-.36-.03-.71-.03-1.07-.01-1.89.09-3.77.67-5.59.04-.12.03-.28,0-.41-.29-1.3-.6-2.6-.86-3.9-.15-.74-.21-1.5-.29-2.26-.1-1-.17-2.01-.26-3.01,0-.09-.03-.19-.05-.28-.04,0-.08,0-.12,0-.8,2.81-1.07,5.67-.93,8.59.13,2.76.7,5.41,1.79,7.95.03,0,.05,0,.08,0Z"/>
      </g>
      <g id="adductors">
        <path class="cls-1" d="M27.11,56.7c-.57-.47-2.08-1.17-2.63-1.67-1.46-1.33-2.19-1.74-3.26-3.41-.25-.38-.48-.77-.72-1.15-.03,0-.06.01-.09.02.02.19.03.38.06.57.29,1.8.77,3.55,1.32,5.28,1.27,3.98,2.3,8.03,3.23,12.11.16.69.3,1.38.44,2.08.08-.07.11-.15.12-.23.12-.74.55-2.2.66-2.95.56-2.58.59-3,.86-5.15.25-2.12.3-2.49.3-3.69,0-1.11.01-1.56-.3-1.82Z"/>
        <path class="cls-1" d="M32.38,68.46c.93-4.07,1.96-8.12,3.23-12.11.55-1.73,1.03-3.49,1.32-5.28.03-.19.04-.38.06-.57-.03,0-.06-.01-.09-.02-.24.38-.47.77-.72,1.15-1.08,1.66-1.81,2.08-3.26,3.41-.55.5-2.05,1.2-2.63,1.67-.32.26-.3.71-.3,1.82,0,1.2.05,1.57.3,3.69.27,2.16.3,2.58.86,5.15.1.74.53,2.21.66,2.95.01.08.04.16.12.23.15-.69.29-1.39.44-2.08Z"/>
      </g>
      <g id="others">
        <path class="cls-1" d="M25.87,14.36c-.25-.08-.49-.22-.81-.38l-.22.65c-.05.56-.11,1.12-.13,1.68,0,.17.06.35.14.5.48.88,1.06,1.7,1.76,2.41.38.38.82.7,1.27,1.01.26.18.39.1.4-.21.01-.39.02-.79-.03-1.18-.13-1.04-.5-2-.88-2.97-.29-.74-.73-1.26-1.49-1.51Z"/>
        <path class="cls-1" d="M27.37,15.32c.51,1.17.92,2.37,1.03,3.66,0,.1.03.2.08.28.04.07.11.12.17.18.06-.06.14-.11.17-.18.05-.13.08-.27.09-.4.11-1.11.44-2.16.87-3.18.08-.19.16-.39.23-.59h-2.72c.03.08.05.16.08.24Z"/>
        <path class="cls-1" d="M28.63,23.11c.05-.06.07-.08.08-.11.17-.64.43-1.23.88-1.72.05-.06.05-.18.07-.27-.09,0-.19-.05-.27-.02-.47.15-.93.16-1.4.02-.11-.03-.24,0-.36,0,.04.11.06.25.14.33.35.43.59.91.75,1.43.03.1.07.19.12.32Z"/>
        <path class="cls-1" d="M85.46,9.48c.11.24.23.49.39.71.07.09.25.14.38.14h.42c.04.31.08.62.12.93.07.54.11,1.09.17,1.64.05.39.33.58.69.76.02-.13.04-.23.06-.32.1-.59.16-1.19.3-1.77.19-.78.46-1.56,1.14-2.06,1.17-.87,2.42-.91,3.73-.29.68.32,1.06.88,1.3,1.54.22.61.34,1.25.47,1.88.07.33.09.66.14,1.05.32-.18.59-.35.65-.68.09-.52.12-1.05.2-1.57.05-.37.1-.73.15-1.1h.39c.14-.05.28-.09.41-.16.06-.03.09-.13.12-.2.29-.61.58-1.22.87-1.84.03-.07.05-.15.07-.2,0-.27-.42-.79-.67-.8l-.66-.27h0c.07-.92.05-1.85-.16-2.78-.56-2.58-2.94-4.32-5.53-4-1.06.13-2.01.53-2.79,1.27-1.23,1.16-1.69,2.66-1.76,4.3-.02.44,0,.87.04,1.31l-.64.18c-.39,0-.76.66-.61,1.01.2.45.4.89.6,1.34Z"/>
        <path class="cls-1" d="M84.66,107.01c-.61-.23-1.83.19-2.05.79-.12.35-.27.68-.42,1.02h0c-.42.92-.46.95-.96,1.64-.44-.03-2.35-.22-3.03-.06-.74.18-1.49.78-1.78,1.51-.22.56-.16,1.2.36,1.8.95,1.08,2.57.74,3.54,1.74.29.3.51.68.79.99.45.49,2.73.93,3.85.39.71-1.52.61-2.5.43-4.01.1-.73.19-1.46.28-2.2.09-.76.18-1.52,0-2.28-.14-.58-.37-1.11-1.01-1.34Z"/>
        <path class="cls-1" d="M104.05,110.41c-.67-.16-2.59.03-3.03.06-.5-.69-.54-.72-.96-1.65h0c-.15-.33-.3-.67-.42-1.02-.21-.6-1.44-1.02-2.05-.79-.64.24-.86.76-1.01,1.34-.19.76-.1,1.52,0,2.28.08.73.18,1.46.28,2.2-.18,1.51-.28,2.5.43,4.01,1.12.54,3.4.1,3.85-.39.28-.31.51-.69.79-.99.97-1,2.59-.66,3.54-1.74.53-.6.58-1.24.36-1.8-.28-.74-1.04-1.33-1.78-1.51Z"/>
        <path class="cls-1" d="M23.11,9.65c.07.15.15.31.27.42.08.07.23.1.34.08h.44c.08.81.16,1.6.22,2.4.03.36.19.63.49.79,1.05.56,2.26,1.37,3.51,1.37,1.38,0,2.74-.65,3.92-1.28.43-.23.63-.62.66-1.12.04-.71.12-1.42.18-2.12l.44-.05c.56.19,1-1.34,1.17-1.69.34-.72.27-1.01-.39-1.44l-.62-.42c-.08-.06-.02-1.55-.05-1.76-.08-.57-.19-1.18-.42-1.71-1.02-2.4-3.55-3.6-6.04-2.94-1.24.33-2.63,1.53-3.14,2.73-.35.82-.52,1.68-.56,2.56-.02.4-.02.79,0,1.18l-.62.34c-.36.05-.74.64-.6.96.25.57.51,1.13.78,1.69Z"/>
        <path class="cls-1" d="M19.57,105.21c-.03-.06-.13-.13-.17-.12-.06.01-.12.11-.13.17-.06.5-.14.99-.16,1.49l-.51,3.04-.8.82c-.88,1.15-1.65,1.89-2.89,2.66-.13.08-1.01.82-1.59,1.55-.46.58-.72,1.15-.26,1.36,2.08.92,3.76,1.51,5.71-.06.5-.4.9-.78,1.51-1.02.61-.24,1.48-.4,1.67-1.15.02-.09.37-1.46.37-1.46v-.04c.04-.1.07-.21.08-.31.06-.78.12-1.55.17-2.33.04-.58-.16-1.05-.56-1.49-.89-.97-1.88-1.87-2.44-3.11Z"/>
        <path class="cls-1" d="M42.5,113.27c-1.24-.77-2.01-1.5-2.89-2.66l-.8-.82-.51-3.04c-.02-.5-.09-1-.16-1.49,0-.07-.08-.16-.13-.17-.05-.01-.15.06-.17.12-.56,1.24-1.55,2.14-2.44,3.11-.4.44-.6.91-.56,1.49.05.78.11,1.55.17,2.33,0,.1.04.21.07.31v.04s.35,1.37.37,1.46c.19.75,1.06.91,1.67,1.15.61.24,1.01.62,1.51,1.02,1.95,1.57,3.63.98,5.71.06.47-.21.2-.78-.26-1.36-.57-.72-1.45-1.47-1.59-1.55Z"/>
        <path class="cls-1" d="M28.89,30.72c.23-.32.46-.64.68-.97.08-.11.13-.24.19-.37-.03-.08-.04-.16-.08-.23-.25-.39-.5-.78-.78-1.15-.2-.26-.33-.26-.54.01-.28.37-.52.77-.76,1.16-.05.08-.06.25,0,.33.26.42.54.83.83,1.23.14.19.32.18.46-.01Z"/>
        <path class="cls-1" d="M29.04,20.02c0,.29.11.36.35.23.32-.18.67-.36.92-.63.59-.65,1.14-1.33,1.68-2.02.4-.52.72-1.09.61-1.8-.07-.42-.09-.85-.15-1.33l-.25-.41c-.46.16-.87.34-1.27.56-.22.12-.48.26-.58.46-.56,1.06-1.02,2.17-1.22,3.36-.09.52-.09,1.06-.09,1.59Z"/>
        <path class="cls-1" d="M83.82,97.5c-.44-.39-.69-.89-.87-1.43-.04-.14-.08-.22-.28-.2-.31.03-.63.03-.94-.02-.35-.05-.68-.17-1.09-.28.16.69.3,1.31.45,1.94.15.64.3,1.28.44,1.92.14.63.27,1.26.39,1.9.12.63.22,1.26.33,1.9-.08-.03-.09-.06-.1-.1-.5-2.46-1.1-4.9-1.83-7.32-.18-.59-.75-1.11-1.21-1.63,0,.96.36,1.87.63,2.71.77,2.36,1.33,4.77,1.89,7.18.25,1.07.35,2.12.14,3.2-.11.58-.16,1.17-.23,1.76-.01.11.02.22.02.32h.09c.02-.11.05-.22.07-.34.12-.66.34-1.28.81-1.8.65-.71,1.73-.92,2.5-.48.12.07.24.16.42.29-.04-.19-.05-.32-.09-.44-.1-.33-.22-.65-.32-.98-.21-.73-.24-1.9-.08-2.66.32-1.47.46-2.5.79-3.97.1-.44.2-.89.31-1.39-.9.73-1.42.7-2.26-.05Z"/>
        <path class="cls-1" d="M97.28,102.92c.16.76.13,1.94-.08,2.66-.1.33-.22.65-.32.98-.04.12-.05.24-.09.44.19-.13.3-.22.42-.29.76-.44,1.85-.23,2.5.48.47.52.69,1.14.81,1.8.02.11.05.23.07.34.03,0,.06,0,.09,0,0-.11.04-.22.02-.32-.07-.59-.12-1.18-.23-1.76-.21-1.08-.11-2.13.14-3.2.56-2.41,1.13-4.82,1.89-7.18.27-.84.64-1.75.63-2.71-.46.52-1.04,1.04-1.21,1.63-.73,2.41-1.33,4.85-1.83,7.32,0,.04-.02.08-.1.1.11-.63.21-1.27.33-1.9.12-.63.26-1.27.39-1.9.14-.64.29-1.28.44-1.92.14-.63.29-1.25.45-1.94-.41.11-.75.23-1.09.28-.31.05-.63.05-.94.02-.2-.02-.24.07-.28.2-.17.54-.43,1.03-.87,1.43-.84.76-1.36.78-2.26.05.11.5.21.95.31,1.39.33,1.47.47,2.5.79,3.97Z"/>
        <path class="cls-1" d="M97.19,82.56c.29.2.54.45.81.67.09.08.19.14.33.25.08-.26.12-.48.2-.68.18-.43.35-.85.57-1.26.11-.21.17-.38.06-.59-.28-.52-.55-1.04-.86-1.62-.07.13-.1.17-.11.21-.22.88-.63,1.68-1.14,2.45-.19.28-.13.39.14.58Z"/>
        <path class="cls-1" d="M83.93,83.48c.14-.11.23-.17.33-.25.27-.22.52-.47.81-.67.28-.19.33-.3.14-.58-.5-.76-.91-1.57-1.14-2.45-.01-.04-.04-.08-.11-.21-.31.58-.59,1.1-.86,1.62-.11.21-.05.39.06.59.22.41.39.84.57,1.26.08.2.13.42.2.68Z"/>
        <path class="cls-1" d="M81.57,45.18c.21-.19.37-.44.6-.62.37-.29.77-.55,1.17-.83-.4-.49-.8-.98-1.21-1.47-.17-.2-.35-.2-.4.01-.22.91-.42,1.82-.61,2.73-.02.09.06.26.14.29.08.03.24-.04.31-.11Z"/>
        <path class="cls-1" d="M35.2,78.82c-.05-.08-.18-.2-.23-.18-.09.03-.19.15-.21.24-.15.75-.34,1.5-.42,2.26-.14,1.31-.25,2.64-.07,3.96.07.49.22.96.34,1.44.21.86.45,1.71.65,2.58.38,1.71.74,3.43,1.12,5.15.03.13.08.25.11.38.03,0,.06,0,.08,0,.03-.13.08-.25.09-.38.08-1.17.18-2.34.24-3.52.06-1.4.09-2.8.12-4.2.03-1.3-.19-2.58-.51-3.83-.27-1.03-.59-2.05-.9-3.06-.09-.29-.24-.56-.39-.83Z"/>
        <path class="cls-1" d="M22.21,78.82c-.14.27-.3.54-.39.83-.32,1.02-.64,2.03-.9,3.06-.33,1.25-.54,2.53-.51,3.83.03,1.4.06,2.8.12,4.2.05,1.17.15,2.34.24,3.52,0,.13.06.25.09.38.03,0,.06,0,.08,0,.04-.13.09-.25.11-.38.37-1.72.73-3.44,1.12-5.15.19-.86.43-1.72.65-2.58.12-.48.27-.95.34-1.44.18-1.32.07-2.64-.07-3.96-.08-.76-.27-1.51-.42-2.26-.02-.1-.12-.21-.21-.24-.06-.02-.19.1-.23.18Z"/>
      </g>
      <path class="cls-1" d="M31.37,54.59c-.05.08-.04.2-.07.29.1,0,.22.03.31,0,.31-.14.63-.26.9-.45,2.02-1.44,3.58-3.29,4.71-5.51.38-.75.72-1.53.77-2.38.09-1.46-.17-2.89-.56-4.3-.03-.12-.1-.22-.19-.41-.11.21-.18.33-.24.45-.53.98-1.22,1.85-2.2,2.38-.57.31-.79.69-.78,1.31,0,1.29-.26,2.55-.61,3.79-.48,1.69-1.18,3.29-2.03,4.82Z"/>
      <path class="cls-1" d="M24.06,53.87c.51.42,1.02.85,1.68,1.02.08.02.18-.01.27-.02-.02-.08-.02-.17-.05-.25-.27-.54-.57-1.06-.82-1.61-1.07-2.31-1.84-4.71-1.86-7.29,0-.43-.17-.74-.55-.93-1.05-.53-1.77-1.4-2.36-2.39-.09-.16-.17-.32-.26-.49-.03,0-.07,0-.1,0-.05.14-.13.28-.16.43-.16.78-.34,1.56-.45,2.35-.16,1.11-.15,2.22.29,3.29.96,2.33,2.44,4.27,4.38,5.87Z"/>
      <g id="abs">
        <path class="cls-primary" d="M31.04,54.55c.94-1.44,1.47-3.03,1.85-4.69.33-1.41.55-2.83.63-4.27.04-.67-.25-.99-.92-.9-1.02.13-1.98.46-2.94.8-.33.12-.5.33-.55.66-.09.59-.21,1.17-.24,1.76-.08,1.62-.14,4.86-.12,4.86,0,.98,0,1.96,0,2.93,0,.37.04.39.4.28.81-.24,1.43-.72,1.89-1.43Z"/>
        <path class="cls-primary" d="M28.22,46.25c-.04-.42-.25-.69-.67-.8-.19-.05-.37-.15-.56-.2-.77-.2-1.54-.41-2.33-.56-.57-.11-.93.23-.9.76.11,1.89.41,3.75.94,5.57.42,1.42.95,2.78,1.88,3.96.49.62,1.16.87,1.93,1.09.01-.25.03-.42.03-.6-.01-2.07,0-4.15-.05-6.22-.03-1-.18-2-.28-3Z"/>
        <path class="cls-primary" d="M28.87,44.4c0,.56.33.78.85.63.86-.24,1.73-.48,2.61-.67.37-.08.64-.25.83-.56.55-.91.85-1.9.94-2.96.02-.24-.07-.38-.27-.51-1.15-.77-2.42-1.09-3.79-1.03-.87.04-.98-.02-1.16,1.08-.01.09-.02.18-.02.27,0,.61,0,1.22,0,1.84h.02c0,.64,0,1.28,0,1.93Z"/>
        <path class="cls-primary" d="M24.9,44.33c.92.22,1.84.46,2.75.71.45.12.75-.1.76-.57.02-1.14.08-2.29.07-3.43,0-.46-.12-.92-.21-1.37-.05-.24-.24-.36-.48-.36-.61,0-1.22-.02-1.82.04-.89.1-1.71.44-2.46.94-.22.15-.34.32-.29.6.12,1.04.4,2.03.96,2.92.17.27.4.43.73.51Z"/>
        <path class="cls-primary" d="M28.86,38.31c0,.41.08.48.49.49.52.01,1.05.02,1.57.01,1.03,0,1.96.29,2.83.84.09.06.21.08.31.11.03-.11.1-.23.08-.33-.1-.82-.19-1.64-.33-2.46-.04-.22-.2-.46-.37-.62-.95-.91-2.11-1.35-3.42-1.43-.17,0-.34.01-.5.03-.47.05-.57.15-.65.61-.01.09-.02.18-.02.27,0,.83,0,1.66,0,2.48Z"/>
        <path class="cls-primary" d="M28.39,35.38c-.04-.25-.18-.37-.44-.4-1.46-.2-2.73.28-3.86,1.15-.22.17-.43.41-.52.66-.3.87-.44,1.78-.4,2.71,0,.09.06.18.09.27.09-.03.18-.05.26-.1.62-.41,1.28-.71,2.02-.79.49-.05.98-.07,1.48-.1,0,0,0,0,0,.01.36,0,.71,0,1.07,0,.19,0,.32-.08.34-.29.11-1.04.15-2.09-.03-3.13Z"/>
        <path class="cls-primary" d="M28.86,31.96c0,.63,0,1.26,0,1.89,0,.24.13.39.36.44.14.03.29.05.44.06,1.34.13,2.62.48,3.78,1.17.08.05.17.09.34.18,0-.21.02-.35,0-.48-.25-1.09-.5-2.19-.76-3.28-.12-.49-.4-.87-.85-1.08-.59-.27-1.19-.51-1.79-.76-.23-.09-.41-.03-.54.16-.31.46-.6.92-.89,1.39-.05.08-.07.19-.07.28Z"/>
        <path class="cls-primary" d="M28.39,31.7c-.29-.49-.61-.97-.93-1.44-.12-.17-.29-.22-.5-.14-.43.16-.88.31-1.3.48-.78.32-1.31.84-1.48,1.71-.18.93-.43,1.85-.63,2.77-.04.17,0,.36,0,.57.08,0,.11,0,.14-.02.07-.03.14-.07.21-.11.86-.5,1.77-.85,2.76-1.01.45-.07.9-.13,1.35-.21.37-.07.46-.2.46-.57,0-.53,0-1.07,0-1.6,0-.15,0-.32-.07-.43Z"/>
      </g>
      <g id="obliques">
        <path class="cls-1" d="M33.7,44.64c.39-.15.82-.27,1.16-.5,1-.7,1.65-1.7,2.08-2.82.21-.53.13-1.07-.2-1.56-.57-.83-1.27-1.54-2.04-2.18-.08-.07-.2-.11-.36-.2.03.18.04.28.07.38.3,1.17.46,2.37.37,3.58-.08,1.17-.43,2.23-1.31,3.06-.05.04-.08.1-.18.24.2,0,.32.03.42,0Z"/>
        <path class="cls-1" d="M23.88,44.43c-.79-.71-1.17-1.63-1.3-2.65-.18-1.36-.02-2.7.32-4.02.03-.11.04-.22.05-.32l-.07-.04c-.12.08-.25.14-.35.24-.63.66-1.29,1.3-1.88,2-.47.56-.52,1.24-.2,1.89.25.51.53,1.02.86,1.48.49.69,1.1,1.27,1.93,1.55.22.08.46.18.74.02-.05-.07-.07-.12-.11-.15Z"/>
        <path class="cls-1" d="M33.45,31.31c.3,1.51.59,3.02.94,4.52.1.42.35.82.61,1.16.34.45.75.86,1.16,1.26.63.62,1.11,1.33,1.34,2.2.02.09.06.18.12.33.34-.42.46-.85.49-1.29l.2-2.07c.04-.23.08-.46.11-.69.19-1.56.21-3.13.12-4.7-.05-.85-.12-1.69-.2-2.54-.03-.37-.15-.44-.49-.32l-3.7,1.4h0c-.06,0-.11,0-.18.02-.39.06-.6.32-.52.71Z"/>
        <path class="cls-1" d="M19.54,29.21s-.02,0-.03-.01h-.03s0-.01,0-.01c-.39-.15-.47,0-.54.59-.19,1.74-.26,3.48-.16,5.23.04.7.16,1.64.24,2.41h0s.18,1.91.18,1.91c0,.02,0,.03,0,.05,0,.49.12.95.46,1.37.05-.06.08-.08.09-.11.03-.09.06-.19.09-.28.19-.62.46-1.19.92-1.67.39-.41.78-.81,1.16-1.22.6-.64,1.04-1.36,1.17-2.25.03-.2.08-.41.12-.61.22-1.07.45-2.14.65-3.22.09-.49-.12-.75-.62-.8-.02,0-.04,0-.06,0h0s-3.63-1.37-3.63-1.37Z"/>
      </g>
      <g id="chest">
        <path class="cls-secondary" d="M32.08,30.17c1.08.17,2.14.08,3.14-.31,1.34-.53,2.48-1.38,3.52-2.36.19-.18.25-.41.17-.65-.12-.36-.23-.74-.41-1.07-.78-1.4-1.55-2.8-2.12-4.3-.28-.75-1.37-1.65-2.2-1.4-1.12.34-2.23.74-3.33,1.15-1.07.4-1.64,1.23-1.72,2.34-.08,1.04-.12,2.09-.08,3.14.07,1.57,1.38,3.2,3.03,3.47Z"/>
        <path class="cls-secondary" d="M28.04,23.57c-.08-1.12-.65-1.94-1.72-2.34-1.1-.41-2.21-.81-3.33-1.15-.84-.26-1.92.65-2.2,1.4-.57,1.5-1.34,2.9-2.12,4.3-.19.33-.29.71-.41,1.07-.08.24-.02.47.17.65,1.04.98,2.18,1.84,3.52,2.36,1.01.4,2.06.49,3.14.31,1.65-.26,2.96-1.9,3.03-3.47.04-1.04,0-2.09-.08-3.14Z"/>
      </g>
      <g id="grip">
        <path class="cls-1" d="M68.96,55.53c-.54-.27-1.09-.53-1.65-.75-.2-.08-.41-.1-.61-.09,0-.01.01-.02.01-.02l-1.26.11c-.13.04-.26.06-.38.11-.84.35-1.46.94-2.01,1.61-.19.23-.39.46-.57.71-.54.74-1.34,1.1-2.16,1.46-.29.13-.32.23-.13.48.26.35.63.48,1.06.39.55-.12,1.1-.23,1.63-.4.22-.07.43-.27.55-.46,0,0,.26.08.38.32-.01.03-.02.06-.03.09-.21.38-.41.77-.62,1.15-.39.73-.79,1.46-1.16,2.2-.14.27-.22.58-.34.92.09.13.16.33.29.39.09.04.32-.1.39-.22.63-1.08,1.26-2.18,1.88-3.27.04.06.1.12.16.18-.69,1.33-1.36,2.67-2.04,4.01-.04.09-.11.19-.1.28.03.18.06.39.18.5.09.09.35.12.46.05.2-.12.41-.3.52-.51.46-.88.89-1.79,1.34-2.68.15-.3.31-.6.46-.9.08.07.15.14.21.22-.18.32-.36.63-.52.96-.37.77-.72,1.56-1.07,2.35-.04.09-.07.19-.09.24,0,.29.13.41.38.4.45-.02.67-.32.83-.69.3-.67.6-1.33.9-1.99.12-.25.24-.5.36-.75.11.15.21.25.3.3-.04.07-.08.14-.11.22-.2.49-.46.96-.68,1.44-.07.14-.15.34.05.41.13.04.37-.01.45-.11.27-.34.51-.72.73-1.1.29-.5.56-1.02.83-1.53.03-.05.04-.1.07-.17.37-.44.6-.97.83-1.56.23-.59.55-1.2.44-1.83.01-.73.04-1.46.03-2.18,0-.1-.09-.25-.19-.3Z"/>
        <path class="cls-1" d="M121.79,58.68c-.82-.36-1.62-.73-2.16-1.46-.18-.24-.38-.47-.57-.71-.55-.67-1.17-1.26-2.01-1.61-.12-.05-.25-.08-.38-.11l-1.26-.11s0,0,.01.02c-.2-.01-.41.01-.61.09-.56.21-1.11.48-1.65.75-.09.05-.19.2-.19.3,0,.73.02,1.46.03,2.18-.1.63.22,1.24.44,1.83.23.6.46,1.12.83,1.56.02.07.04.12.07.17.27.51.54,1.03.83,1.53.22.38.46.75.73,1.1.08.1.32.15.45.11.2-.07.12-.27.05-.41-.23-.48-.49-.94-.68-1.44-.03-.08-.07-.16-.11-.22.09-.06.19-.15.3-.3.12.25.24.5.36.75.3.66.6,1.33.9,1.99.16.37.38.66.83.69.25.01.38-.11.38-.4-.02-.05-.05-.15-.09-.24-.35-.78-.7-1.57-1.07-2.35-.16-.33-.34-.65-.52-.96.06-.07.13-.14.21-.22.16.3.31.6.46.9.44.89.87,1.8,1.34,2.68.11.21.31.39.52.51.11.07.37.04.46-.05.12-.11.15-.32.18-.5.01-.09-.05-.19-.1-.28-.68-1.34-1.36-2.67-2.04-4.01.06-.06.11-.12.16-.18.62,1.09,1.24,2.18,1.88,3.27.07.12.3.26.39.22.13-.06.2-.25.29-.39-.13-.34-.21-.65-.34-.92-.37-.74-.77-1.47-1.16-2.2-.2-.39-.41-.77-.62-1.15,0-.03-.02-.06-.03-.09.12-.24.38-.32.38-.32.12.19.34.39.55.46.53.17,1.09.28,1.63.4.43.09.8-.04,1.06-.39.19-.25.17-.35-.13-.48Z"/>
        <path class="cls-1" d="M8.49,55.27c.06-1.16.19-2.32.3-3.48.01-.17.03-.34.05-.5l.37-1.91h0c.03-.14.06-.28.09-.42.02-.12,0-.24,0-.43-1.09,1.56-2.14,3.05-3.19,4.55l-.72.7c-.47.07-.91.25-1.25.57-.7.65-1.36,1.34-2.04,2.01l-.65.8h0c-.46.19-.91.38-1.36.58-.06.03-.1.23-.06.31.18.35.5.51.9.57.62-.14,1.25-.28,1.89-.42l.55.21s-.03.05-.05.08c-.03.04-.05.08-.07.13-.51.91-1.04,1.81-1.54,2.73-.24.44-.68.85-.65,1.38.01.21.17.35.3.44.05.04.25-.1.36-.19.1-.08.17-.19.24-.3.49-.8.97-1.6,1.45-2.41.22-.37.44-.74.64-1.12l.16.19c-.52.9-1.04,1.79-1.54,2.7-.35.64-.66,1.3-.98,1.95-.18.37.03.78.51.76.1-.08.33-.19.45-.37.23-.33.39-.71.58-1.06.53-.98,1.05-1.97,1.58-2.95l.18.31c-.39.69-.77,1.39-1.13,2.1-.26.51-.49,1.03-.72,1.55-.14.31-.01.5.3.5.3,0,.54-.12.68-.39.18-.35.34-.71.51-1.06.32-.65.64-1.29.97-1.93l.25.28c-.04.06-.07.12-.1.19-.21.49-.48.94-.71,1.42-.04.09-.03.3.01.31.11.05.25.03.38.01.05,0,.09-.07.13-.11.59-.7,1.02-1.49,1.43-2.3h0s1.22-1.63,1.22-1.63c.81-1.02.91-1.89.49-3.09-.14-.4-.22-.85-.2-1.27Z"/>
        <path class="cls-1" d="M57.21,57.74c-.45-.19-.9-.39-1.36-.58h0s-.65-.8-.65-.8c-.68-.67-1.35-1.36-2.04-2.01-.34-.32-.78-.5-1.25-.57l-.72-.7c-1.05-1.49-2.1-2.99-3.19-4.55,0,.18-.02.31,0,.43.03.14.05.28.09.42h0s.37,1.91.37,1.91c.02.17.03.34.05.5.1,1.16.23,2.32.3,3.48.02.42-.06.87-.2,1.27-.42,1.19-.32,2.07.49,3.09l1.22,1.62h0c.41.81.83,1.61,1.43,2.31.04.04.08.11.13.11.13.02.27.03.38-.01.04-.02.05-.23.01-.31-.23-.48-.5-.94-.71-1.42-.03-.07-.06-.13-.1-.19l.25-.28c.33.64.65,1.29.97,1.93.17.35.33.71.51,1.06.14.27.38.39.68.39.31,0,.44-.18.3-.5-.23-.52-.46-1.05-.72-1.55-.36-.71-.75-1.4-1.13-2.1l.18-.31c.53.98,1.05,1.96,1.58,2.95.19.36.35.73.58,1.06.12.18.35.29.45.37.48.01.69-.39.51-.76-.32-.65-.63-1.31-.98-1.95-.5-.91-1.02-1.8-1.54-2.7l.16-.19c.2.38.42.75.64,1.12.48.8.96,1.61,1.45,2.41.07.11.14.22.24.3.11.09.31.23.36.19.13-.08.28-.23.3-.44.03-.53-.41-.95-.65-1.38-.5-.92-1.02-1.82-1.54-2.73-.02-.04-.05-.09-.07-.13-.02-.03-.03-.05-.05-.08l.55-.21c.63.15,1.27.28,1.89.42.4-.06.72-.22.9-.57.04-.08,0-.29-.06-.31Z"/>
      </g>
    </g>
  </g>
</svg>