<?xml version="1.0" encoding="UTF-8"?>
<svg id="Layer_2" data-name="Layer 2" xmlns="http://www.w3.org/2000/svg" viewBox="0 0 108.28 98.83">
  <defs>
    <style>
      .cls-1 {
        fill: none;
      }
    </style>
  </defs>
  <g id="Layer_1-2" data-name="Layer 1">
    <g>
      <rect x="30.03" y="56.84" width="15.5" height="4.29"/>
      <path class="cls-1" d="M32.27,56.84c-1.04-7.54-7.54-13.36-15.36-13.36-8.55,0-15.5,6.95-15.5,15.5s6.95,15.51,15.5,15.51c7.82,0,14.31-5.82,15.36-13.36h.15v-4.29h-.15ZM16.91,48.87c-5.57,0-10.11,4.54-10.11,10.11,0,.37-.3.68-.67.68s-.68-.31-.68-.68c0-6.32,5.14-11.46,11.46-11.46.38,0,.68.31.68.68s-.3.67-.68.67Z"/>
      <path d="M32.27,56.84c-1.04-7.54-7.54-13.36-15.36-13.36-8.55,0-15.5,6.95-15.5,15.5s6.95,15.51,15.5,15.51c7.82,0,14.31-5.82,15.36-13.36.1-.7.15-1.42.15-2.15s-.05-1.44-.15-2.14ZM16.91,48.87c-5.57,0-10.11,4.54-10.11,10.11,0,.37-.3.68-.67.68s-.68-.31-.68-.68c0-6.32,5.14-11.46,11.46-11.46.38,0,.68.31.68.68s-.3.67-.68.67Z"/>
      <path class="cls-1" d="M58.47,43.48c-8.55,0-15.51,6.95-15.51,15.5s6.96,15.51,15.51,15.51,15.5-6.96,15.5-15.51-6.95-15.5-15.5-15.5ZM69.25,59.66c-.37,0-.67-.3-.67-.68,0-5.57-4.54-10.11-10.11-10.11-.37,0-.68-.3-.68-.67s.31-.68.68-.68c6.32,0,11.46,5.14,11.46,11.46,0,.38-.3.68-.68.68Z"/>
      <path d="M58.47,43.48c-8.55,0-15.51,6.95-15.51,15.5s6.96,15.51,15.51,15.51,15.5-6.96,15.5-15.51-6.95-15.5-15.5-15.5ZM69.25,59.66c-.37,0-.67-.3-.67-.68,0-5.57-4.54-10.11-10.11-10.11-.37,0-.68-.3-.68-.67s.31-.68.68-.68c6.32,0,11.46,5.14,11.46,11.46,0,.38-.3.68-.68.68Z"/>
      <g>
        <path d="M36.03,39.12c-13.94,0-25.71-2.9-33.29-5.42-2.1-.7-3.23-2.96-2.54-5.06s2.96-3.23,5.06-2.54c12.66,4.2,37.9,9.56,64.71-1.79,10.11-4.28,19.44-10.49,27.73-18.46,1.59-1.53,4.12-1.48,5.66.11,1.53,1.59,1.48,4.12-.11,5.66-9,8.65-19.14,15.4-30.15,20.06-13.07,5.53-25.77,7.43-37.05,7.43Z"/>
        <g>
          <path d="M102.4,16.04l-9.61-9.64c-.7-.7-.4-1.9.56-2.18l12.87-3.79c.97-.29,1.88.59,1.65,1.57l-3.26,13.43c-.24,1-1.48,1.34-2.2.62Z"/>
          <path d="M103.32,16.81c-.44,0-.86-.17-1.19-.5l-9.61-9.64c-.42-.43-.59-1.03-.44-1.61s.58-1.03,1.16-1.2L106.12.07c.59-.17,1.2-.02,1.64.4.44.42.62,1.03.48,1.62l-3.26,13.43c-.15.6-.59,1.06-1.18,1.23-.15.04-.31.06-.46.06ZM102.66,15.78c.24.24.59.33.92.24.33-.09.58-.35.66-.68l3.26-13.43c.08-.33-.02-.67-.26-.9s-.58-.32-.91-.22l-12.87,3.79c-.32.09-.56.34-.64.67-.08.32,0,.66.24.89l9.61,9.64Z"/>
        </g>
      </g>
      <path d="M36.79,98.83c-4.68,0-8.62-1.35-11.16-2.53-2-.93-2.88-3.31-1.95-5.31.93-2,3.31-2.88,5.31-1.95,3.89,1.8,9.86,3.16,16.23-.6,2.66-1.57,5.14-3.89,7.37-6.88,1.32-1.77,3.83-2.14,5.6-.82s2.14,3.83.82,5.6c-2.87,3.85-6.14,6.88-9.72,8.99-4.41,2.61-8.7,3.5-12.5,3.5Z"/>
    </g>
  </g>
</svg>