<?xml version="1.0" encoding="UTF-8"?>
<svg id="Layer_2" data-name="Layer 2" xmlns="http://www.w3.org/2000/svg" xmlns:xlink="http://www.w3.org/1999/xlink" viewBox="0 0 156.61 157.65">
  <defs>
    <style>
      .cls-1 {
        fill: url(#linear-gradient);
        stroke: #497d67;
        stroke-miterlimit: 10;
      }
    </style>
    <linearGradient id="linear-gradient" x1="78.31" y1="6.28" x2="78.31" y2="161.9" gradientUnits="userSpaceOnUse">
      <stop offset="0" stop-color="#1db584"/>
      <stop offset=".66" stop-color="#168863"/>
      <stop offset=".98" stop-color="#0f5b42"/>
    </linearGradient>
  </defs>
  <g id="Layer_1-2" data-name="Layer 1">
    <path class="cls-1" d="M155.93,95.67l-12.75,52.47c-.58,2.33-2.3,4.14-4.64,4.78-.61.17-1.23.23-1.81.23-1.72,0-3.38-.67-4.64-1.92l-7.35-7.38c-12.8,8.92-28.35,13.3-45.7,13.3C34.74,157.15.5,125.04.5,78.81S35.15.5,79.25.5c28.58,0,52.94,12.37,66.79,37.6l-27.5,16.8-3.79-.64c-8.17-13.65-19.1-19.54-34.21-19.54-22.69,0-40.54,17.85-40.54,44.1s17.85,44.13,41.15,44.13c7.17,0,13.36-1.28,18.7-4.08l-5.28-5.31c-1.66-1.63-2.3-4-1.72-6.27.58-2.28,2.28-4.02,4.55-4.7l50.25-14.79c2.3-.67,4.7-.12,6.42,1.55,1.72,1.63,2.42,4,1.87,6.33Z"/>
  </g>
</svg>
