<?xml version="1.0" encoding="UTF-8"?>
<svg id="Layer_2" data-name="Layer 2" xmlns="http://www.w3.org/2000/svg" viewBox="0 0 180 180">
  <defs>
    <style>
      .cls-1 {
        fill: none;
      }

      .cls-2 {
        fill: #fff;
      }
    </style>
  </defs>
  <g id="Layer_1-2" data-name="Layer 1">
    <g>
      <rect class="cls-2" width="180" height="180"/>
      <g>
        <path d="M166.97,106.7l-12.64,52.03c-.58,2.31-2.28,4.11-4.6,4.74-.61.17-1.21.23-1.79.23-1.71,0-3.36-.67-4.6-1.91l-7.29-7.32c-12.7,8.85-28.11,13.19-45.32,13.19-43.94,0-77.89-31.84-77.89-77.69S47.2,12.33,90.93,12.33c28.35,0,52.5,12.26,66.24,37.28l-27.28,16.66-3.76-.64c-8.1-13.54-18.95-19.38-33.93-19.38-22.5,0-40.2,17.7-40.2,43.73s17.7,43.76,40.81,43.76c7.12,0,13.25-1.27,18.54-4.05l-5.24-5.26c-1.65-1.62-2.28-3.96-1.71-6.22.58-2.26,2.26-3.99,4.51-4.66l49.84-14.66c2.28-.67,4.66-.12,6.36,1.53,1.71,1.62,2.4,3.96,1.85,6.28Z"/>
        <g>
          <rect x="84.35" y="79.44" width="11.44" height="3.17"/>
          <path class="cls-1" d="M86,79.44c-.77-5.56-5.56-9.86-11.34-9.86-6.31,0-11.44,5.13-11.44,11.44s5.13,11.45,11.44,11.45c5.77,0,10.56-4.3,11.34-9.86h.11v-3.17h-.11ZM74.66,73.55c-4.11,0-7.46,3.35-7.46,7.46,0,.27-.22.5-.49.5s-.5-.23-.5-.5c0-4.66,3.79-8.46,8.46-8.46.28,0,.5.23.5.5s-.22.49-.5.49Z"/>
          <path d="M86,79.44c-.77-5.56-5.56-9.86-11.34-9.86-6.31,0-11.44,5.13-11.44,11.44s5.13,11.45,11.44,11.45c5.77,0,10.56-4.3,11.34-9.86.07-.52.11-1.05.11-1.59s-.04-1.06-.11-1.58ZM74.66,73.55c-4.11,0-7.46,3.35-7.46,7.46,0,.27-.22.5-.49.5s-.5-.23-.5-.5c0-4.66,3.79-8.46,8.46-8.46.28,0,.5.23.5.5s-.22.49-.5.49Z"/>
          <path class="cls-1" d="M105.34,69.58c-6.31,0-11.45,5.13-11.45,11.44s5.14,11.45,11.45,11.45,11.44-5.14,11.44-11.45-5.13-11.44-11.44-11.44ZM113.29,81.52c-.27,0-.49-.22-.49-.5,0-4.11-3.35-7.46-7.46-7.46-.27,0-.5-.22-.5-.49s.23-.5.5-.5c4.66,0,8.46,3.79,8.46,8.46,0,.28-.22.5-.5.5Z"/>
          <path d="M105.34,69.58c-6.31,0-11.45,5.13-11.45,11.44s5.14,11.45,11.45,11.45,11.44-5.14,11.44-11.45-5.13-11.44-11.44-11.44ZM113.29,81.52c-.27,0-.49-.22-.49-.5,0-4.11-3.35-7.46-7.46-7.46-.27,0-.5-.22-.5-.49s.23-.5.5-.5c4.66,0,8.46,3.79,8.46,8.46,0,.28-.22.5-.5.5Z"/>
          <path d="M89.34,110.42c-3.45,0-6.36-1-8.24-1.87-1.48-.69-2.12-2.44-1.44-3.92.69-1.48,2.44-2.12,3.92-1.44,2.87,1.33,7.28,2.33,11.98-.44,1.96-1.16,3.79-2.87,5.44-5.08.97-1.31,2.82-1.58,4.13-.6s1.58,2.82.6,4.13c-2.12,2.84-4.53,5.08-7.17,6.64-3.26,1.92-6.42,2.58-9.22,2.58Z"/>
        </g>
      </g>
    </g>
  </g>
</svg>