<?xml version="1.0" encoding="UTF-8"?>
<svg id="Layer_2" data-name="Layer 2" xmlns="http://www.w3.org/2000/svg" viewBox="0 0 209.09 210.49">
  <defs>
    <style>
      .cls-1 {
        fill: none;
      }
    </style>
  </defs>
  <g id="Layer_1-2" data-name="Layer 1">
    <g>
      <path fill="#134686" d="M208.84,127.88l-17.13,70.5c-.78,3.14-3.1,5.56-6.23,6.43-.82.24-1.65.31-2.43.31-2.31,0-4.55-.9-6.23-2.59l-9.88-9.92c-17.2,11.99-38.09,17.87-61.41,17.87C46.01,210.49,0,167.34,0,105.22S46.56,0,105.81,0c38.41,0,71.13,16.62,89.75,50.52l-36.96,22.57-5.09-.86c-10.97-18.34-25.67-26.26-45.97-26.26-30.49,0-54.47,23.98-54.47,59.26s23.98,59.29,55.3,59.29c9.64,0,17.95-1.72,25.12-5.49l-7.09-7.13c-2.23-2.19-3.1-5.37-2.31-8.43.78-3.06,3.06-5.41,6.11-6.31l67.52-19.87c3.1-.9,6.31-.16,8.62,2.08,2.31,2.19,3.25,5.37,2.51,8.5Z"/>
      <g>
        <rect fill="#134686" x="96.89" y="92.83" width="15.5" height="4.29"/>
        <path class="cls-1" d="M99.13,92.83c-1.04-7.54-7.54-13.36-15.36-13.36-8.55,0-15.5,6.95-15.5,15.5s6.95,15.51,15.5,15.51c7.82,0,14.31-5.82,15.36-13.36h.15v-4.29h-.15ZM83.77,84.86c-5.57,0-10.11,4.54-10.11,10.11,0,.37-.3.68-.67.68s-.68-.31-.68-.68c0-6.32,5.14-11.46,11.46-11.46.38,0,.68.31.68.68s-.3.67-.68.67Z"/>
        <path fill="#134686" d="M99.13,92.83c-1.04-7.54-7.54-13.36-15.36-13.36-8.55,0-15.5,6.95-15.5,15.5s6.95,15.51,15.5,15.51c7.82,0,14.31-5.82,15.36-13.36.1-.7.15-1.42.15-2.15s-.05-1.44-.15-2.14ZM83.77,84.86c-5.57,0-10.11,4.54-10.11,10.11,0,.37-.3.68-.67.68s-.68-.31-.68-.68c0-6.32,5.14-11.46,11.46-11.46.38,0,.68.31.68.68s-.3.67-.68.67Z"/>
        <path class="cls-1" d="M125.33,79.47c-8.55,0-15.51,6.95-15.51,15.5s6.96,15.51,15.51,15.51,15.5-6.96,15.5-15.51-6.95-15.5-15.5-15.5ZM136.11,95.65c-.37,0-.67-.3-.67-.68,0-5.57-4.54-10.11-10.11-10.11-.37,0-.68-.3-.68-.67s.31-.68.68-.68c6.32,0,11.46,5.14,11.46,11.46,0,.38-.3.68-.68.68Z"/>
        <path fill="#134686" d="M125.33,79.47c-8.55,0-15.51,6.95-15.51,15.5s6.96,15.51,15.51,15.51,15.5-6.96,15.5-15.51-6.95-15.5-15.5-15.5ZM136.11,95.65c-.37,0-.67-.3-.67-.68,0-5.57-4.54-10.11-10.11-10.11-.37,0-.68-.3-.68-.67s.31-.68.68-.68c6.32,0,11.46,5.14,11.46,11.46,0,.38-.3.68-.68.68Z"/>
        <path fill="#134686" d="M103.65,134.81c-4.68,0-8.62-1.35-11.16-2.53-2-.93-2.88-3.31-1.95-5.31.93-2,3.31-2.88,5.31-1.95,3.89,1.8,9.86,3.16,16.23-.6,2.66-1.57,5.14-3.89,7.37-6.88,1.32-1.77,3.83-2.14,5.6-.82s2.14,3.83.82,5.6c-2.87,3.85-6.14,6.88-9.72,8.99-4.41,2.61-8.7,3.5-12.5,3.5Z"/>
      </g>
    </g>
  </g>
</svg>
