<?xml version="1.0" encoding="UTF-8"?>
<svg id="Layer_2" data-name="Layer 2" xmlns="http://www.w3.org/2000/svg" viewBox="0 0 253.36 98.83">
  <defs>
    <style>
      .cls-1 {
        fill: none;
      }
    </style>
  </defs>
  <g id="Layer_1-2" data-name="Layer 1">
    <g>
      <path d="M126.21,57.44c0-10.8,6.26-17.57,14.19-17.57,4.32,0,8.42,2.23,11.02,6.48-.14-2.88-.22-6.62-.22-10.44v-14.91h11.88v52.78h-11.52v-5.04c-2.45,4.1-6.91,6.41-11.59,6.41-8.14,0-13.75-6.7-13.75-17.71ZM151.48,57.59c0-4.68-2.88-7.92-6.91-7.92s-6.77,3.02-6.77,7.92,2.59,7.78,6.55,7.78c4.18,0,7.13-3.1,7.13-7.78Z"/>
      <path d="M165.79,21.01h12.39v41.15h21.96l-1.37,11.63h-32.98V21.01Z"/>
      <path d="M194.75,28.21c0-3.67,2.88-6.26,6.98-6.26s6.98,2.59,6.98,6.34-2.88,6.26-6.98,6.26-6.98-2.59-6.98-6.34ZM195.76,73.79v-32.55h11.88v32.55h-11.88Z"/>
      <path d="M230.97,30.66c-1.01-.43-2.02-.65-2.81-.65-2.38,0-3.38,1.44-3.38,5.62v5.62h6.48v8.93h-6.48v23.62h-11.88v-23.62h-5.69v-8.93h5.69v-5.47c0-11.23,3.67-15.62,12.24-15.62,2.38,0,4.97.43,6.98,1.01l-.5,9.22-.65.29Z"/>
      <path d="M253,64.79l.36,9.07c-1.8.72-4.97,1.3-7.78,1.3-8.35,0-12.67-3.96-12.67-11.74v-13.25h-5.69v-8.93h5.76v-7.63l9.07-5.33h2.66v12.96h8.42v8.93h-8.42v10.37c0,3.53,1.22,4.68,4.39,4.68,1.08,0,2.09-.29,3.24-.72l.65.29Z"/>
      <rect x="81.97" y="56.84" width="15.5" height="4.29"/>
      <path class="cls-1" d="M84.21,56.84c-1.04-7.54-7.54-13.36-15.36-13.36-8.55,0-15.5,6.95-15.5,15.5s6.95,15.51,15.5,15.51c7.82,0,14.31-5.82,15.36-13.36h.15v-4.29h-.15ZM68.85,48.87c-5.57,0-10.11,4.54-10.11,10.11,0,.37-.3.68-.67.68s-.68-.31-.68-.68c0-6.32,5.14-11.46,11.46-11.46.38,0,.68.31.68.68s-.3.67-.68.67Z"/>
      <path d="M84.21,56.84c-1.04-7.54-7.54-13.36-15.36-13.36-8.55,0-15.5,6.95-15.5,15.5s6.95,15.51,15.5,15.51c7.82,0,14.31-5.82,15.36-13.36.1-.7.15-1.42.15-2.15s-.05-1.44-.15-2.14ZM68.85,48.87c-5.57,0-10.11,4.54-10.11,10.11,0,.37-.3.68-.67.68s-.68-.31-.68-.68c0-6.32,5.14-11.46,11.46-11.46.38,0,.68.31.68.68s-.3.67-.68.67Z"/>
      <path class="cls-1" d="M110.41,43.48c-8.55,0-15.51,6.95-15.51,15.5s6.96,15.51,15.51,15.51,15.5-6.96,15.5-15.51-6.95-15.5-15.5-15.5ZM121.19,59.66c-.37,0-.67-.3-.67-.68,0-5.57-4.54-10.11-10.11-10.11-.37,0-.68-.3-.68-.67s.31-.68.68-.68c6.32,0,11.46,5.14,11.46,11.46,0,.38-.3.68-.68.68Z"/>
      <path d="M110.41,43.48c-8.55,0-15.51,6.95-15.51,15.5s6.96,15.51,15.51,15.51,15.5-6.96,15.5-15.51-6.95-15.5-15.5-15.5ZM121.19,59.66c-.37,0-.67-.3-.67-.68,0-5.57-4.54-10.11-10.11-10.11-.37,0-.68-.3-.68-.67s.31-.68.68-.68c6.32,0,11.46,5.14,11.46,11.46,0,.38-.3.68-.68.68Z"/>
      <path d="M87.98,39.12c-13.94,0-25.71-2.9-33.29-5.42-2.1-.7-3.23-2.96-2.54-5.06s2.96-3.23,5.06-2.54c12.66,4.2,37.9,9.56,64.71-1.79,10.11-4.28,19.44-10.49,27.73-18.46,1.59-1.53,4.12-1.48,5.66.11,1.53,1.59,1.48,4.12-.11,5.66-9,8.65-19.14,15.4-30.15,20.06-13.07,5.53-25.77,7.43-37.05,7.43Z"/>
      <g>
        <path d="M154.34,16.04l-9.61-9.64c-.7-.7-.4-1.9.56-2.18l12.87-3.79c.97-.29,1.88.59,1.65,1.57l-3.26,13.43c-.24,1-1.48,1.34-2.2.62Z"/>
        <path d="M155.26,16.81c-.44,0-.86-.17-1.19-.5l-9.61-9.64c-.42-.43-.59-1.03-.44-1.61s.58-1.03,1.16-1.2L158.06.07c.59-.17,1.2-.02,1.64.4.44.42.62,1.03.48,1.62l-3.26,13.43c-.15.6-.59,1.06-1.18,1.23-.15.04-.31.06-.46.06ZM154.61,15.78c.24.24.59.33.92.24.33-.09.58-.35.66-.68l3.26-13.43c.08-.33-.02-.67-.26-.9s-.58-.32-.91-.22l-12.87,3.79c-.32.09-.56.34-.64.67-.08.32,0,.66.24.89l9.61,9.64Z"/>
      </g>
      <path d="M88.73,98.83c-4.68,0-8.62-1.35-11.16-2.53-2-.93-2.88-3.31-1.95-5.31.93-2,3.31-2.88,5.31-1.95,3.89,1.8,9.86,3.16,16.23-.6,2.66-1.57,5.14-3.89,7.37-6.88,1.32-1.77,3.83-2.14,5.6-.82s2.14,3.83.82,5.6c-2.87,3.85-6.14,6.88-9.72,8.99-4.41,2.61-8.7,3.5-12.5,3.5Z"/>
      <g>
        <g>
          <path d="M46.03,73.33l-13.96-14.01c-.7-.7-.4-1.9.56-2.18l18.7-5.51c.97-.29,1.88.59,1.65,1.57l-4.74,19.51c-.24,1-1.48,1.34-2.2.62Z"/>
          <path d="M46.71,73.79c-.59,0-1.16-.23-1.59-.67l-12.87-12.91c-.57-.57-.79-1.38-.59-2.16s.78-1.38,1.55-1.61l17.24-5.08c.79-.23,1.61-.03,2.2.53.59.56.83,1.37.64,2.17l-4.37,17.99c-.2.81-.79,1.42-1.59,1.64-.21.06-.42.09-.62.09ZM45.83,72.41c.33.33.78.45,1.23.32.44-.12.77-.47.88-.91l4.37-17.99c.11-.44-.03-.89-.35-1.21s-.78-.43-1.22-.29l-17.24,5.08c-.43.13-.75.46-.86.89-.11.43.01.88.33,1.2l12.87,12.91Z"/>
        </g>
        <path d="M0,48.3c0-15.91,11.88-26.86,27-26.86,9.79,0,18.15,4.25,22.9,12.89l-9.43,5.76-1.3-.22c-2.81-4.68-6.55-6.7-11.74-6.7-7.78,0-13.9,6.12-13.9,15.12s6.12,15.12,14.11,15.12c5.26,0,8.93-2.02,11.67-6.62l1.37-.22,9.36,5.76c-4.97,8.64-13.18,12.82-23.11,12.82-15.19,0-26.93-11.02-26.93-26.86Z"/>
      </g>
    </g>
  </g>
</svg>