<?xml version="1.0" encoding="UTF-8"?>
<svg id="Layer_2" data-name="Layer 2" xmlns="http://www.w3.org/2000/svg" viewBox="0 0 400.68 359.07">
  <defs>
    <style>
      .cls-1 {
        fill: #1db584;
      }
    </style>
  </defs>
  <g id="Layer_1-2" data-name="Layer 1">
    <g>
      <path class="cls-1" d="M394.1,149.61h-122.12c-1.32,0-2.64.18-3.91.54-1.27.37-2.49.91-3.61,1.6-1.14.71-2.16,1.55-3.05,2.53-.91.98-1.64,2.07-2.24,3.27l-27.51,55.16-46.39-139.45c-.46-1.35-1.09-2.61-1.9-3.76s-1.8-2.16-2.92-3.04c-1.12-.87-2.33-1.57-3.65-2.07-1.33-.51-2.7-.81-4.11-.91-1.41-.11-2.81,0-4.19.32-1.38.31-2.69.83-3.91,1.52-1.24.71-2.33,1.58-3.31,2.61-.97,1.03-1.78,2.18-2.41,3.45l-39.02,78.22H6.57C-7.85,109.26,1.78,63.3,32.35,32.68c2.59-2.58,5.29-5.03,8.13-7.35,2.82-2.32,5.75-4.5,8.81-6.52,3.04-2.03,6.17-3.91,9.39-5.63,3.22-1.72,6.52-3.28,9.9-4.68s6.81-2.62,10.31-3.68c3.5-1.06,7.04-1.95,10.63-2.65,3.58-.72,7.18-1.26,10.82-1.61S107.63,0,111.28,0s7.29.18,10.92.54,7.26.89,10.83,1.6c3.59.72,7.14,1.6,10.62,2.67,3.5,1.04,6.94,2.29,10.33,3.68,3.36,1.4,6.66,2.95,9.9,4.66,3.22,1.73,6.35,3.61,9.39,5.63s5.98,4.2,8.81,6.52c2.84,2.32,5.54,4.77,8.13,7.35.66.66,1.38,1.27,2.16,1.78.78.54,1.61.97,2.49,1.34.86.37,1.76.64,2.69.83.92.17,1.86.26,2.79.26s1.87-.09,2.79-.26c.94-.18,1.83-.46,2.69-.83.87-.37,1.7-.8,2.49-1.34.78-.51,1.5-1.12,2.16-1.78,43.45-43.53,114.27-43.56,157.84,0,30.58,30.64,40.23,76.6,25.79,116.95Z"/>
      <path class="cls-1" d="M378.67,178.32c-3.15,4.39-6.6,8.52-10.36,12.4l-167.97,168.35L32.37,190.72c-3.74-3.88-7.2-8.01-10.36-12.4h106.69c1.34,0,2.64-.17,3.91-.54,1.29-.37,2.49-.91,3.62-1.6,1.14-.71,2.15-1.55,3.04-2.53.91-.98,1.66-2.07,2.24-3.27l27.51-55.16,46.39,139.45c.45,1.35,1.09,2.61,1.9,3.76.81,1.15,1.8,2.16,2.9,3.04,1.12.87,2.35,1.57,3.67,2.07,1.32.51,2.69.81,4.1.92.35.02.69.03,1.03.03,1.33,0,2.62-.18,3.91-.54,1.29-.37,2.49-.91,3.62-1.6,1.14-.71,2.15-1.55,3.04-2.55.91-.98,1.64-2.06,2.24-3.25l39.04-78.24h97.82Z"/>
    </g>
  </g>
</svg>
